Castoro-Regular.ufo
<glyph name="numbersign" format="2">
  <advance width="605"/>
  <unicode hex="0023"/>
  <outline>
    <contour>
      <point x="349" y="0" type="line"/>
      <point x="503" y="620" type="line"/>
      <point x="445" y="620" type="line"/>
      <point x="290" y="0" type="line"/>
    </contour>
    <contour>
      <point x="526" y="185" type="line"/>
      <point x="526" y="242" type="line"/>
      <point x="45" y="242" type="line"/>
      <point x="45" y="185" type="line"/>
    </contour>
    <contour>
      <point x="162" y="0" type="line"/>
      <point x="313" y="620" type="line"/>
      <point x="256" y="620" type="line"/>
      <point x="102" y="0" type="line"/>
    </contour>
    <contour>
      <point x="560" y="380" type="line"/>
      <point x="560" y="437" type="line"/>
      <point x="80" y="437" type="line"/>
      <point x="80" y="380" type="line"/>
    </contour>
  </outline>
</glyph>
<glyph name="dollar" format="2">
  <advance width="531"/>
  <unicode hex="0024"/>
  <outline>
    <contour>
      <point x="256" y="-7" type="curve" smooth="yes"/>
      <point x="371" y="-7"/>
      <point x="491" y="47"/>
      <point x="491" y="175" type="curve" smooth="yes"/>
      <point x="491" y="282"/>
      <point x="408" y="325"/>
      <point x="266" y="368" type="curve" smooth="yes"/>
      <point x="189" y="392"/>
      <point x="142" y="422"/>
      <point x="142" y="479" type="curve" smooth="yes"/>
      <point x="142" y="535"/>
      <point x="187" y="576"/>
      <point x="274" y="576" type="curve" smooth="yes"/>
      <point x="298" y="576"/>
      <point x="334" y="576"/>
      <point x="367" y="551" type="curve"/>
      <point x="355" y="577" type="line"/>
      <point x="348" y="507"/>
      <point x="383" y="464"/>
      <point x="422" y="464" type="curve" smooth="yes"/>
      <point x="448" y="464"/>
      <point x="469" y="482"/>
      <point x="469" y="514" type="curve" smooth="yes"/>
      <point x="469" y="595"/>
      <point x="339" y="616"/>
      <point x="279" y="616" type="curve" smooth="yes"/>
      <point x="159" y="616"/>
      <point x="54" y="559"/>
      <point x="54" y="443" type="curve" smooth="yes"/>
      <point x="54" y="328"/>
      <point x="156" y="292"/>
      <point x="262" y="259" type="curve" smooth="yes"/>
      <point x="344" y="233"/>
      <point x="396" y="206"/>
      <point x="396" y="139" type="curve" smooth="yes"/>
      <point x="396" y="61"/>
      <point x="327" y="31"/>
      <point x="255" y="31" type="curve" smooth="yes"/>
      <point x="216" y="31"/>
      <point x="185" y="40"/>
      <point x="150" y="57" type="curve"/>
      <point x="160" y="39" type="line"/>
      <point x="166" y="94"/>
      <point x="137" y="154"/>
      <point x="89" y="154" type="curve" smooth="yes"/>
      <point x="62" y="154"/>
      <point x="40" y="135"/>
      <point x="40" y="101" type="curve" smooth="yes"/>
      <point x="40" y="17"/>
      <point x="179" y="-7"/>
    </contour>
    <contour>
      <point x="243" y="-103" type="line"/>
      <point x="258" y="-104"/>
      <point x="274" y="-104"/>
      <point x="288" y="-103" type="curve"/>
      <point x="288" y="705" type="line"/>
      <point x="274" y="706"/>
      <point x="258" y="706"/>
      <point x="243" y="705" type="curve"/>
    </contour>
  </outline>
</glyph>
<glyph name="ampersand" format="2">
  <advance width="751"/>
  <unicode hex="0026"/>
  <outline>
    <contour>
      <point x="597" y="-4" type="curve" smooth="yes"/>
      <point x="646" y="-4"/>
      <point x="693" y="11"/>
      <point x="731" y="40" type="curve"/>
      <point x="730" y="48"/>
      <point x="726" y="60"/>
      <point x="720" y="68" type="curve"/>
      <point x="698" y="57"/>
      <point x="674" y="52"/>
      <point x="659" y="52" type="curve" smooth="yes"/>
      <point x="606" y="52"/>
      <point x="562" y="114"/>
      <point x="504" y="190" type="curve" smooth="yes"/>
      <point x="457" y="252"/>
      <point x="365" y="355"/>
      <point x="304" y="414" type="curve" smooth="yes"/>
      <point x="255" y="461"/>
      <point x="222" y="506"/>
      <point x="222" y="565" type="curve" smooth="yes"/>
      <point x="222" y="619"/>
      <point x="253" y="653"/>
      <point x="297" y="653" type="curve" smooth="yes"/>
      <point x="345" y="653"/>
      <point x="371" y="614"/>
      <point x="371" y="554" type="curve" smooth="yes"/>
      <point x="371" y="492"/>
      <point x="342" y="447"/>
      <point x="283" y="422" type="curve"/>
      <point x="307" y="397" type="line"/>
      <point x="400" y="432"/>
      <point x="456" y="484"/>
      <point x="456" y="559" type="curve" smooth="yes"/>
      <point x="456" y="645"/>
      <point x="384" y="691"/>
      <point x="302" y="691" type="curve" smooth="yes"/>
      <point x="207" y="691"/>
      <point x="124" y="631"/>
      <point x="124" y="536" type="curve" smooth="yes"/>
      <point x="124" y="470"/>
      <point x="163" y="423"/>
      <point x="210" y="376" type="curve" smooth="yes"/>
      <point x="313" y="273"/>
      <point x="371" y="202"/>
      <point x="439" y="111" type="curve" smooth="yes"/>
      <point x="502" y="27"/>
      <point x="535" y="-4"/>
    </contour>
    <contour>
      <point x="252" y="-19" type="curve" smooth="yes"/>
      <point x="338" y="-19"/>
      <point x="408" y="21"/>
      <point x="463" y="96" type="curve"/>
      <point x="439" y="131" type="line"/>
      <point x="393" y="76"/>
      <point x="356" y="48"/>
      <point x="294" y="48" type="curve" smooth="yes"/>
      <point x="199" y="48"/>
      <point x="138" y="113"/>
      <point x="138" y="211" type="curve" smooth="yes"/>
      <point x="138" y="286"/>
      <point x="176" y="339"/>
      <point x="231" y="367" type="curve"/>
      <point x="206" y="394" type="line"/>
      <point x="113" y="352"/>
      <point x="35" y="280"/>
      <point x="35" y="176" type="curve" smooth="yes"/>
      <point x="35" y="56"/>
      <point x="133" y="-19"/>
    </contour>
    <contour>
      <point x="512" y="161" type="line"/>
      <point x="565" y="241"/>
      <point x="612" y="339"/>
      <point x="639" y="365" type="curve" smooth="yes"/>
      <point x="657" y="382"/>
      <point x="681" y="386"/>
      <point x="715" y="389" type="curve"/>
      <point x="717" y="399"/>
      <point x="717" y="410"/>
      <point x="715" y="420" type="curve"/>
      <point x="684" y="420"/>
      <point x="654" y="418"/>
      <point x="607" y="418" type="curve" smooth="yes"/>
      <point x="558" y="418"/>
      <point x="515" y="420"/>
      <point x="481" y="420" type="curve"/>
      <point x="479" y="410"/>
      <point x="479" y="399"/>
      <point x="481" y="389" type="curve"/>
      <point x="527" y="386"/>
      <point x="562" y="383"/>
      <point x="562" y="350" type="curve" smooth="yes"/>
      <point x="562" y="320"/>
      <point x="535" y="266"/>
      <point x="484" y="190" type="curve"/>
    </contour>
  </outline>
</glyph>
<glyph name="comma" format="2">
  <advance width="297"/>
  <unicode hex="002C"/>
  <outline>
    <contour>
      <point x="158" y="36" type="line"/>
      <point x="174" y="18"/>
      <point x="176" y="-5"/>
      <point x="176" y="-17" type="curve" smooth="yes"/>
      <point x="176" y="-76"/>
      <point x="138" y="-124"/>
      <point x="73" y="-160" type="curve"/>
      <point x="90" y="-189" type="line"/>
      <point x="187" y="-143"/>
      <point x="233" y="-55"/>
      <point x="233" y="25" type="curve" smooth="yes"/>
      <point x="233" y="89"/>
      <point x="203" y="143"/>
      <point x="146" y="143" type="curve" smooth="yes"/>
      <point x="102" y="143"/>
      <point x="71" y="113"/>
      <point x="71" y="72" type="curve" smooth="yes"/>
      <point x="71" y="33"/>
      <point x="99" y="10"/>
      <point x="129" y="10" type="curve" smooth="yes"/>
      <point x="146" y="10"/>
      <point x="163" y="17"/>
      <point x="177" y="32" type="curve"/>
    </contour>
  </outline>
</glyph>
<glyph name="hyphen" format="2">
  <advance width="353"/>
  <unicode hex="002D"/>
  <outline>
    <contour>
      <point x="307" y="213" type="line"/>
      <point x="308" y="239"/>
      <point x="308" y="266"/>
      <point x="307" y="291" type="curve"/>
      <point x="43" y="291" type="line"/>
      <point x="42" y="265"/>
      <point x="42" y="239"/>
      <point x="43" y="213" type="curve"/>
    </contour>
  </outline>
</glyph>
<glyph name="one" format="2">
  <advance width="372"/>
  <unicode hex="0031"/>
  <outline>
    <contour>
      <point x="49" y="-1" type="curve"/>
      <point x="90" y="-1"/>
      <point x="124" y="2"/>
      <point x="201" y="2" type="curve" smooth="yes"/>
      <point x="280" y="2"/>
      <point x="311" y="-1"/>
      <point x="346" y="-1" type="curve"/>
      <point x="348" y="11"/>
      <point x="348" y="19"/>
      <point x="346" y="31" type="curve"/>
      <point x="249" y="39"/>
      <point x="247" y="40"/>
      <point x="247" y="125" type="curve" smooth="yes"/>
      <point x="247" y="492" type="line" smooth="yes"/>
      <point x="247" y="548"/>
      <point x="257" y="589"/>
      <point x="274" y="609" type="curve"/>
      <point x="270" y="619"/>
      <point x="265" y="625"/>
      <point x="258" y="632" type="curve"/>
      <point x="175" y="597"/>
      <point x="115" y="575"/>
      <point x="17" y="550" type="curve"/>
      <point x="18" y="538"/>
      <point x="20" y="529"/>
      <point x="24" y="518" type="curve"/>
      <point x="68" y="527"/>
      <point x="101" y="531"/>
      <point x="116" y="531" type="curve" smooth="yes"/>
      <point x="142" y="531"/>
      <point x="145" y="521"/>
      <point x="145" y="488" type="curve" smooth="yes"/>
      <point x="145" y="115" type="line" smooth="yes"/>
      <point x="145" y="43"/>
      <point x="144" y="40"/>
      <point x="49" y="31" type="curve"/>
      <point x="47" y="21"/>
      <point x="47" y="11"/>
    </contour>
  </outline>
</glyph>
<glyph name="seven" format="2">
  <advance width="503"/>
  <unicode hex="0037"/>
  <outline>
    <contour>
      <point x="119" y="-116" type="line"/>
      <point x="136" y="-117"/>
      <point x="151" y="-117"/>
      <point x="167" y="-117" type="curve" smooth="yes"/>
      <point x="184" y="-117"/>
      <point x="207" y="-117"/>
      <point x="222" y="-116" type="curve"/>
      <point x="285" y="100"/>
      <point x="392" y="371"/>
      <point x="481" y="589" type="curve"/>
      <point x="480" y="602"/>
      <point x="479" y="608"/>
      <point x="477" y="618" type="curve"/>
      <point x="453" y="615"/>
      <point x="376" y="615"/>
      <point x="320" y="615" type="curve" smooth="yes"/>
      <point x="220" y="615"/>
      <point x="133" y="616"/>
      <point x="47" y="620" type="curve"/>
      <point x="41" y="561"/>
      <point x="31" y="498"/>
      <point x="17" y="432" type="curve"/>
      <point x="28" y="427"/>
      <point x="40" y="427"/>
      <point x="49" y="427" type="curve"/>
      <point x="82" y="520"/>
      <point x="95" y="524"/>
      <point x="152" y="526" type="curve" smooth="yes"/>
      <point x="181" y="527"/>
      <point x="207" y="527"/>
      <point x="228" y="527" type="curve" smooth="yes"/>
      <point x="326" y="527"/>
      <point x="410" y="526"/>
      <point x="412" y="526" type="curve"/>
      <point x="312" y="313"/>
      <point x="210" y="108"/>
      <point x="114" y="-103" type="curve"/>
    </contour>
  </outline>
</glyph>
<glyph name="eight" format="2">
  <advance width="539"/>
  <unicode hex="0038"/>
  <outline>
    <contour>
      <point x="257" y="-12" type="curve" smooth="yes"/>
      <point x="412" y="-12"/>
      <point x="508" y="82"/>
      <point x="508" y="195" type="curve" smooth="yes"/>
      <point x="508" y="301"/>
      <point x="423" y="353"/>
      <point x="338" y="398" type="curve" smooth="yes"/>
      <point x="232" y="455"/>
      <point x="161" y="489"/>
      <point x="161" y="578" type="curve" smooth="yes"/>
      <point x="161" y="647"/>
      <point x="201" y="708"/>
      <point x="273" y="708" type="curve" smooth="yes"/>
      <point x="349" y="708"/>
      <point x="380" y="640"/>
      <point x="380" y="564" type="curve" smooth="yes"/>
      <point x="380" y="481"/>
      <point x="342" y="431"/>
      <point x="306" y="409" type="curve"/>
      <point x="348" y="383" type="line"/>
      <point x="348" y="395" type="line"/>
      <point x="408" y="428"/>
      <point x="482" y="486"/>
      <point x="482" y="574" type="curve" smooth="yes"/>
      <point x="482" y="659"/>
      <point x="411" y="744"/>
      <point x="281" y="744" type="curve" smooth="yes"/>
      <point x="147" y="744"/>
      <point x="60" y="658"/>
      <point x="60" y="551" type="curve" smooth="yes"/>
      <point x="60" y="458"/>
      <point x="125" y="407"/>
      <point x="205" y="360" type="curve" smooth="yes"/>
      <point x="307" y="300"/>
      <point x="404" y="266"/>
      <point x="404" y="163" type="curve" smooth="yes"/>
      <point x="404" y="92"/>
      <point x="359" y="24"/>
      <point x="271" y="24" type="curve" smooth="yes"/>
      <point x="181" y="24"/>
      <point x="138" y="97"/>
      <point x="138" y="181" type="curve" smooth="yes"/>
      <point x="138" y="264"/>
      <point x="178" y="319"/>
      <point x="229" y="355" type="curve"/>
      <point x="188" y="380" type="line"/>
      <point x="188" y="368" type="line"/>
      <point x="108" y="327"/>
      <point x="31" y="269"/>
      <point x="31" y="173" type="curve" smooth="yes"/>
      <point x="31" y="72"/>
      <point x="113" y="-12"/>
    </contour>
  </outline>
</glyph>
<glyph name="nine" format="2">
  <advance width="570"/>
  <unicode hex="0039"/>
  <outline>
    <contour>
      <point x="416" y="327" type="curve" smooth="yes"/>
      <point x="416" y="73"/>
      <point x="309" y="-102"/>
      <point x="78" y="-102" type="curve"/>
      <point x="77" y="-102"/>
      <point x="71" y="-102"/>
      <point x="59" y="-101" type="curve"/>
      <point x="55" y="-114"/>
      <point x="55" y="-125"/>
      <point x="56" y="-137" type="curve"/>
      <point x="69" y="-139"/>
      <point x="87" y="-139"/>
      <point x="91" y="-139" type="curve" smooth="yes"/>
      <point x="395" y="-139"/>
      <point x="526" y="106"/>
      <point x="526" y="332" type="curve" smooth="yes"/>
      <point x="526" y="551"/>
      <point x="405" y="630"/>
      <point x="277" y="630" type="curve" smooth="yes"/>
      <point x="122" y="630"/>
      <point x="38" y="512"/>
      <point x="38" y="386" type="curve" smooth="yes"/>
      <point x="38" y="271"/>
      <point x="110" y="159"/>
      <point x="254" y="159" type="curve" smooth="yes"/>
      <point x="305" y="159"/>
      <point x="372" y="172"/>
      <point x="444" y="231" type="curve"/>
      <point x="436" y="267" type="line"/>
      <point x="382" y="222"/>
      <point x="334" y="212"/>
      <point x="301" y="212" type="curve" smooth="yes"/>
      <point x="199" y="212"/>
      <point x="152" y="316"/>
      <point x="152" y="415" type="curve" smooth="yes"/>
      <point x="152" y="512"/>
      <point x="198" y="592"/>
      <point x="271" y="592" type="curve" smooth="yes"/>
      <point x="343" y="592"/>
      <point x="416" y="520"/>
    </contour>
  </outline>
</glyph>
<glyph name="less" format="2">
  <advance width="581"/>
  <unicode hex="003C"/>
  <outline>
    <contour>
      <point x="61" y="258" type="line"/>
      <point x="58" y="245"/>
      <point x="58" y="232"/>
      <point x="61" y="219" type="curve"/>
      <point x="504" y="13" type="line"/>
      <point x="511" y="26"/>
      <point x="521" y="47"/>
      <point x="527" y="62" type="curve"/>
      <point x="128" y="243" type="line"/>
      <point x="128" y="233" type="line"/>
      <point x="527" y="415" type="line"/>
      <point x="522" y="429"/>
      <point x="512" y="450"/>
      <point x="504" y="464" type="curve"/>
    </contour>
  </outline>
</glyph>
<glyph name="A" format="2">
  <advance width="679"/>
  <unicode hex="0041"/>
  <outline>
    <contour>
      <point x="-27" y="-1" type="curve"/>
      <point x="13" y="-1"/>
      <point x="45" y="1"/>
      <point x="83" y="1" type="curve" smooth="yes"/>
      <point x="128" y="1"/>
      <point x="172" y="-1"/>
      <point x="217" y="-1" type="curve"/>
      <point x="218" y="9"/>
      <point x="218" y="20"/>
      <point x="217" y="31" type="curve"/>
      <point x="154" y="37"/>
      <point x="129" y="40"/>
      <point x="129" y="69" type="curve" smooth="yes"/>
      <point x="129" y="82"/>
      <point x="134" y="97"/>
      <point x="143" y="123" type="curve" smooth="yes"/>
      <point x="310" y="583" type="line"/>
      <point x="300" y="583" type="line"/>
      <point x="475" y="107" type="line" smooth="yes"/>
      <point x="482" y="87"/>
      <point x="486" y="74"/>
      <point x="486" y="64" type="curve" smooth="yes"/>
      <point x="486" y="39"/>
      <point x="464" y="37"/>
      <point x="399" y="31" type="curve"/>
      <point x="397" y="20"/>
      <point x="397" y="9"/>
      <point x="399" y="-1" type="curve"/>
      <point x="450" y="-1"/>
      <point x="501" y="1"/>
      <point x="552" y="1" type="curve" smooth="yes"/>
      <point x="601" y="1"/>
      <point x="651" y="-1"/>
      <point x="698" y="-1" type="curve"/>
      <point x="699" y="9"/>
      <point x="699" y="21"/>
      <point x="698" y="31" type="curve"/>
      <point x="619" y="39"/>
      <point x="616" y="39"/>
      <point x="580" y="136" type="curve" smooth="yes"/>
      <point x="365" y="707" type="line"/>
      <point x="350" y="707"/>
      <point x="326" y="704"/>
      <point x="312" y="699" type="curve"/>
      <point x="96" y="145" type="line" smooth="yes"/>
      <point x="56" y="42"/>
      <point x="47" y="39"/>
      <point x="-27" y="31" type="curve"/>
      <point x="-28" y="21"/>
      <point x="-28" y="9"/>
    </contour>
    <contour>
      <point x="429" y="261" type="line"/>
      <point x="414" y="303" type="line"/>
      <point x="197" y="303" type="line"/>
      <point x="182" y="261" type="line"/>
    </contour>
  </outline>
  <guideline angle="0" x="0" y="284"/>
</glyph>
<glyph name="B" format="2">
  <advance width="637"/>
  <unicode hex="0042"/>
  <outline>
    <contour>
      <point x="326" y="-2" type="curve" smooth="yes"/>
      <point x="374" y="-2"/>
      <point x="417" y="1"/>
      <point x="454" y="11" type="curve" smooth="yes"/>
      <point x="539" y="34"/>
      <point x="604" y="99"/>
      <point x="604" y="194" type="curve" smooth="yes"/>
      <point x="604" y="305"/>
      <point x="514" y="363"/>
      <point x="407" y="372" type="curve"/>
      <point x="407" y="373" type="line"/>
      <point x="512" y="403"/>
      <point x="564" y="461"/>
      <point x="564" y="545" type="curve" smooth="yes"/>
      <point x="564" y="646"/>
      <point x="486" y="701"/>
      <point x="324" y="701" type="curve" smooth="yes"/>
      <point x="292" y="701"/>
      <point x="229" y="699"/>
      <point x="188" y="699" type="curve" smooth="yes"/>
      <point x="149" y="699"/>
      <point x="75" y="701"/>
      <point x="33" y="701" type="curve"/>
      <point x="32" y="690"/>
      <point x="32" y="679"/>
      <point x="33" y="669" type="curve"/>
      <point x="125" y="661"/>
      <point x="130" y="659"/>
      <point x="130" y="576" type="curve" smooth="yes"/>
      <point x="130" y="111" type="line" smooth="yes"/>
      <point x="130" y="40"/>
      <point x="126" y="40"/>
      <point x="33" y="31" type="curve"/>
      <point x="32" y="20"/>
      <point x="32" y="9"/>
      <point x="33" y="-1" type="curve"/>
      <point x="72" y="-1"/>
      <point x="155" y="1"/>
      <point x="187" y="1" type="curve" smooth="yes"/>
      <point x="226" y="1"/>
      <point x="279" y="-2"/>
    </contour>
    <contour>
      <point x="226" y="336" type="line"/>
      <point x="252" y="340"/>
      <point x="280" y="341"/>
      <point x="299" y="341" type="curve" smooth="yes"/>
      <point x="425" y="341"/>
      <point x="482" y="295"/>
      <point x="482" y="193" type="curve" smooth="yes"/>
      <point x="482" y="88"/>
      <point x="423" y="37"/>
      <point x="320" y="37" type="curve" smooth="yes"/>
      <point x="295" y="37"/>
      <point x="270" y="40"/>
      <point x="241" y="46" type="curve"/>
      <point x="240" y="60"/>
      <point x="240" y="83"/>
      <point x="240" y="116" type="curve" smooth="yes"/>
      <point x="240" y="655" type="line"/>
      <point x="263" y="658"/>
      <point x="279" y="660"/>
      <point x="298" y="660" type="curve" smooth="yes"/>
      <point x="396" y="660"/>
      <point x="444" y="615"/>
      <point x="444" y="520" type="curve" smooth="yes"/>
      <point x="444" y="426"/>
      <point x="395" y="381"/>
      <point x="267" y="381" type="curve" smooth="yes"/>
      <point x="256" y="381"/>
      <point x="242" y="381"/>
      <point x="227" y="384" type="curve"/>
    </contour>
  </outline>
</glyph>
<glyph name="E" format="2">
  <advance width="640"/>
  <unicode hex="0045"/>
  <outline>
    <contour>
      <point x="33" y="-1" type="curve"/>
      <point x="86" y="-1"/>
      <point x="117" y="1"/>
      <point x="211" y="1" type="curve" smooth="yes"/>
      <point x="279" y="1"/>
      <point x="462" y="0"/>
      <point x="581" y="0" type="curve"/>
      <point x="587" y="44"/>
      <point x="596" y="104"/>
      <point x="610" y="179" type="curve"/>
      <point x="600" y="180"/>
      <point x="589" y="180"/>
      <point x="579" y="179" type="curve"/>
      <point x="556" y="131"/>
      <point x="528" y="92"/>
      <point x="510" y="77" type="curve" smooth="yes"/>
      <point x="483" y="54"/>
      <point x="446" y="43"/>
      <point x="379" y="43" type="curve" smooth="yes"/>
      <point x="242" y="43" type="line"/>
      <point x="240" y="51"/>
      <point x="240" y="79"/>
      <point x="240" y="124" type="curve" smooth="yes"/>
      <point x="240" y="658" type="line"/>
      <point x="371" y="658" type="line" smooth="yes"/>
      <point x="423" y="658"/>
      <point x="457" y="649"/>
      <point x="482" y="630" type="curve" smooth="yes"/>
      <point x="504" y="614"/>
      <point x="527" y="582"/>
      <point x="543" y="542" type="curve"/>
      <point x="553" y="541"/>
      <point x="565" y="541"/>
      <point x="576" y="542" type="curve"/>
      <point x="567" y="600"/>
      <point x="559" y="652"/>
      <point x="554" y="701" type="curve"/>
      <point x="537" y="701"/>
      <point x="394" y="699"/>
      <point x="237" y="699" type="curve" smooth="yes"/>
      <point x="122" y="699"/>
      <point x="102" y="701"/>
      <point x="33" y="701" type="curve"/>
      <point x="32" y="690"/>
      <point x="32" y="679"/>
      <point x="33" y="669" type="curve"/>
      <point x="125" y="661"/>
      <point x="130" y="659"/>
      <point x="130" y="576" type="curve" smooth="yes"/>
      <point x="130" y="111" type="line" smooth="yes"/>
      <point x="130" y="40"/>
      <point x="126" y="40"/>
      <point x="33" y="31" type="curve"/>
      <point x="32" y="20"/>
      <point x="32" y="9"/>
    </contour>
    <contour>
      <point x="424" y="230" type="curve"/>
      <point x="436" y="228"/>
      <point x="448" y="228"/>
      <point x="458" y="230" type="curve"/>
      <point x="456" y="362" type="line"/>
      <point x="456" y="381"/>
      <point x="455" y="383"/>
      <point x="458" y="492" type="curve"/>
      <point x="448" y="494"/>
      <point x="435" y="494"/>
      <point x="424" y="492" type="curve"/>
      <point x="410" y="394"/>
      <point x="390" y="385"/>
      <point x="295" y="385" type="curve" smooth="yes"/>
      <point x="220" y="385" type="line"/>
      <point x="220" y="341" type="line"/>
      <point x="304" y="341" type="line" smooth="yes"/>
      <point x="390" y="341"/>
      <point x="411" y="335"/>
    </contour>
  </outline>
  <guideline angle="90" x="-239" y="0"/>
</glyph>
<glyph name="I" format="2">
  <advance width="370"/>
  <unicode hex="0049"/>
  <outline>
    <contour>
      <point x="240" y="589" type="line" smooth="yes"/>
      <point x="240" y="661"/>
      <point x="244" y="660"/>
      <point x="339" y="669" type="curve"/>
      <point x="341" y="680"/>
      <point x="341" y="691"/>
      <point x="339" y="701" type="curve"/>
      <point x="300" y="701"/>
      <point x="224" y="699"/>
      <point x="187" y="699" type="curve" smooth="yes"/>
      <point x="149" y="699"/>
      <point x="71" y="701"/>
      <point x="30" y="701" type="curve"/>
      <point x="29" y="690"/>
      <point x="29" y="679"/>
      <point x="30" y="669" type="curve"/>
      <point x="125" y="661"/>
      <point x="130" y="659"/>
      <point x="130" y="576" type="curve" smooth="yes"/>
      <point x="130" y="111" type="line" smooth="yes"/>
      <point x="130" y="39"/>
      <point x="126" y="40"/>
      <point x="30" y="31" type="curve"/>
      <point x="28" y="20"/>
      <point x="28" y="9"/>
      <point x="30" y="-1" type="curve"/>
      <point x="73" y="-1"/>
      <point x="146" y="1"/>
      <point x="185" y="1" type="curve" smooth="yes"/>
      <point x="223" y="1"/>
      <point x="298" y="-1"/>
      <point x="339" y="-1" type="curve"/>
      <point x="341" y="9"/>
      <point x="341" y="21"/>
      <point x="339" y="31" type="curve"/>
      <point x="241" y="39"/>
      <point x="240" y="40"/>
      <point x="240" y="124" type="curve" smooth="yes"/>
    </contour>
  </outline>
</glyph>
<glyph name="K" format="2">
  <advance width="715"/>
  <unicode hex="004B"/>
  <outline>
    <contour>
      <point x="30" y="-1" type="curve"/>
      <point x="71" y="-1"/>
      <point x="145" y="1"/>
      <point x="183" y="1" type="curve" smooth="yes"/>
      <point x="221" y="1"/>
      <point x="296" y="-1"/>
      <point x="336" y="-1" type="curve"/>
      <point x="338" y="9"/>
      <point x="338" y="21"/>
      <point x="336" y="31" type="curve"/>
      <point x="245" y="38"/>
      <point x="240" y="39"/>
      <point x="240" y="124" type="curve" smooth="yes"/>
      <point x="240" y="589" type="line"/>
      <point x="241" y="661"/>
      <point x="244" y="660"/>
      <point x="336" y="669" type="curve"/>
      <point x="338" y="680"/>
      <point x="338" y="691"/>
      <point x="336" y="701" type="curve"/>
      <point x="296" y="701"/>
      <point x="222" y="699"/>
      <point x="185" y="699" type="curve" smooth="yes"/>
      <point x="148" y="699"/>
      <point x="70" y="701"/>
      <point x="30" y="701" type="curve"/>
      <point x="29" y="690"/>
      <point x="29" y="679"/>
      <point x="30" y="669" type="curve"/>
      <point x="125" y="661"/>
      <point x="130" y="659"/>
      <point x="130" y="576" type="curve" smooth="yes"/>
      <point x="130" y="111" type="line" smooth="yes"/>
      <point x="130" y="39"/>
      <point x="126" y="40"/>
      <point x="30" y="31" type="curve"/>
      <point x="29" y="20"/>
      <point x="29" y="9"/>
    </contour>
    <contour>
      <point x="720" y="-1" type="curve"/>
      <point x="722" y="9"/>
      <point x="722" y="21"/>
      <point x="720" y="31" type="curve"/>
      <point x="635" y="39"/>
      <point x="624" y="46"/>
      <point x="560" y="129" type="curve" smooth="yes"/>
      <point x="344" y="413" type="line"/>
      <point x="271" y="336" type="line"/>
      <point x="521" y="0" type="line"/>
      <point x="540" y="0"/>
      <point x="566" y="1"/>
      <point x="581" y="1" type="curve" smooth="yes"/>
      <point x="616" y="1"/>
      <point x="682" y="-1"/>
    </contour>
    <contour>
      <point x="305" y="349" type="line"/>
      <point x="501" y="552" type="line" smooth="yes"/>
      <point x="594" y="649"/>
      <point x="609" y="661"/>
      <point x="691" y="669" type="curve"/>
      <point x="692" y="679"/>
      <point x="692" y="691"/>
      <point x="691" y="701" type="curve"/>
      <point x="646" y="701"/>
      <point x="611" y="699"/>
      <point x="568" y="699" type="curve" smooth="yes"/>
      <point x="535" y="699"/>
      <point x="464" y="701"/>
      <point x="431" y="701" type="curve"/>
      <point x="430" y="691"/>
      <point x="430" y="680"/>
      <point x="431" y="669" type="curve"/>
      <point x="486" y="665"/>
      <point x="508" y="659"/>
      <point x="508" y="642" type="curve" smooth="yes"/>
      <point x="508" y="630"/>
      <point x="496" y="614"/>
      <point x="470" y="586" type="curve" smooth="yes"/>
      <point x="229" y="330" type="line"/>
      <point x="229" y="266" type="line"/>
    </contour>
  </outline>
</glyph>
<glyph name="L" format="2">
  <advance width="614"/>
  <unicode hex="004C"/>
  <outline>
    <contour>
      <point x="33" y="-1" type="curve"/>
      <point x="73" y="-1"/>
      <point x="150" y="1"/>
      <point x="188" y="1" type="curve" smooth="yes"/>
      <point x="317" y="1"/>
      <point x="445" y="0"/>
      <point x="575" y="0" type="curve"/>
      <point x="581" y="44"/>
      <point x="591" y="109"/>
      <point x="607" y="191" type="curve"/>
      <point x="597" y="193"/>
      <point x="586" y="193"/>
      <point x="576" y="191" type="curve"/>
      <point x="552" y="137"/>
      <point x="528" y="99"/>
      <point x="504" y="76" type="curve" smooth="yes"/>
      <point x="480" y="54"/>
      <point x="440" y="42"/>
      <point x="384" y="42" type="curve" smooth="yes"/>
      <point x="242" y="42" type="line"/>
      <point x="240" y="51"/>
      <point x="240" y="79"/>
      <point x="240" y="124" type="curve" smooth="yes"/>
      <point x="240" y="589" type="line" smooth="yes"/>
      <point x="240" y="661"/>
      <point x="244" y="660"/>
      <point x="339" y="669" type="curve"/>
      <point x="341" y="680"/>
      <point x="341" y="691"/>
      <point x="339" y="701" type="curve"/>
      <point x="300" y="701"/>
      <point x="222" y="699"/>
      <point x="185" y="699" type="curve" smooth="yes"/>
      <point x="148" y="699"/>
      <point x="74" y="701"/>
      <point x="33" y="701" type="curve"/>
      <point x="32" y="690"/>
      <point x="32" y="679"/>
      <point x="33" y="669" type="curve"/>
      <point x="125" y="661"/>
      <point x="130" y="659"/>
      <point x="130" y="576" type="curve" smooth="yes"/>
      <point x="130" y="111" type="line" smooth="yes"/>
      <point x="130" y="39"/>
      <point x="126" y="40"/>
      <point x="33" y="31" type="curve"/>
      <point x="32" y="20"/>
      <point x="32" y="9"/>
    </contour>
  </outline>
</glyph>
<glyph name="O" format="2">
  <advance width="802"/>
  <unicode hex="004F"/>
  <outline>
    <contour>
      <point x="628" y="344" type="curve" smooth="yes"/>
      <point x="628" y="184"/>
      <point x="570" y="25"/>
      <point x="406" y="25" type="curve" smooth="yes"/>
      <point x="237" y="25"/>
      <point x="175" y="194"/>
      <point x="175" y="349" type="curve" smooth="yes"/>
      <point x="175" y="505"/>
      <point x="236" y="670"/>
      <point x="403" y="670" type="curve" smooth="yes"/>
      <point x="568" y="670"/>
      <point x="628" y="506"/>
    </contour>
    <contour>
      <point x="752" y="354" type="curve" smooth="yes"/>
      <point x="752" y="562"/>
      <point x="620" y="711"/>
      <point x="407" y="711" type="curve" smooth="yes"/>
      <point x="190" y="711"/>
      <point x="50" y="556"/>
      <point x="50" y="342" type="curve" smooth="yes"/>
      <point x="50" y="135"/>
      <point x="179" y="-15"/>
      <point x="395" y="-15" type="curve" smooth="yes"/>
      <point x="612" y="-15"/>
      <point x="752" y="138"/>
    </contour>
  </outline>
</glyph>
<glyph name="P" format="2">
  <advance width="592"/>
  <unicode hex="0050"/>
  <outline>
    <contour>
      <point x="232" y="322" type="line"/>
      <point x="273" y="312"/>
      <point x="304" y="310"/>
      <point x="330" y="310" type="curve" smooth="yes"/>
      <point x="465" y="310"/>
      <point x="567" y="383"/>
      <point x="567" y="517" type="curve" smooth="yes"/>
      <point x="567" y="656"/>
      <point x="456" y="702"/>
      <point x="330" y="702" type="curve" smooth="yes"/>
      <point x="297" y="702"/>
      <point x="219" y="699"/>
      <point x="182" y="699" type="curve" smooth="yes"/>
      <point x="155" y="699"/>
      <point x="69" y="701"/>
      <point x="30" y="701" type="curve"/>
      <point x="29" y="690"/>
      <point x="29" y="679"/>
      <point x="30" y="669" type="curve"/>
      <point x="125" y="661"/>
      <point x="130" y="659"/>
      <point x="130" y="576" type="curve" smooth="yes"/>
      <point x="130" y="111" type="line" smooth="yes"/>
      <point x="130" y="39"/>
      <point x="126" y="40"/>
      <point x="30" y="31" type="curve"/>
      <point x="29" y="20"/>
      <point x="29" y="9"/>
      <point x="30" y="-1" type="curve"/>
      <point x="73" y="-1"/>
      <point x="146" y="1"/>
      <point x="185" y="1" type="curve" smooth="yes"/>
      <point x="224" y="1"/>
      <point x="303" y="-1"/>
      <point x="347" y="-1" type="curve"/>
      <point x="348" y="9"/>
      <point x="348" y="21"/>
      <point x="347" y="31" type="curve"/>
      <point x="289" y="35"/>
      <point x="268" y="37"/>
      <point x="254" y="49" type="curve" smooth="yes"/>
      <point x="241" y="61"/>
      <point x="240" y="83"/>
      <point x="240" y="124" type="curve" smooth="yes"/>
      <point x="240" y="658" type="line"/>
      <point x="259" y="661"/>
      <point x="279" y="662"/>
      <point x="293" y="662" type="curve" smooth="yes"/>
      <point x="394" y="662"/>
      <point x="445" y="605"/>
      <point x="445" y="512" type="curve" smooth="yes"/>
      <point x="445" y="416"/>
      <point x="391" y="351"/>
      <point x="303" y="351" type="curve" smooth="yes"/>
      <point x="276" y="351"/>
      <point x="251" y="357"/>
      <point x="232" y="362" type="curve"/>
    </contour>
  </outline>
</glyph>
<glyph name="R" format="2">
  <advance width="693"/>
  <unicode hex="0052"/>
  <outline>
    <contour>
      <point x="229" y="320" type="line"/>
      <point x="266" y="316" type="line" smooth="yes"/>
      <point x="297" y="313"/>
      <point x="309" y="307"/>
      <point x="332" y="273" type="curve" smooth="yes"/>
      <point x="517" y="0" type="line"/>
      <point x="538" y="0"/>
      <point x="551" y="1"/>
      <point x="573" y="1" type="curve" smooth="yes"/>
      <point x="604" y="1"/>
      <point x="677" y="-1"/>
      <point x="716" y="-1" type="curve"/>
      <point x="718" y="9"/>
      <point x="718" y="21"/>
      <point x="716" y="31" type="curve"/>
      <point x="631" y="39"/>
      <point x="617" y="44"/>
      <point x="549" y="142" type="curve" smooth="yes"/>
      <point x="444" y="294" type="line" smooth="yes"/>
      <point x="431" y="313"/>
      <point x="421" y="325"/>
      <point x="410" y="334" type="curve"/>
      <point x="410" y="349" type="line"/>
      <point x="398" y="333" type="line"/>
      <point x="517" y="366"/>
      <point x="570" y="438"/>
      <point x="570" y="526" type="curve" smooth="yes"/>
      <point x="570" y="655"/>
      <point x="456" y="702"/>
      <point x="331" y="702" type="curve" smooth="yes"/>
      <point x="299" y="702"/>
      <point x="218" y="699"/>
      <point x="183" y="699" type="curve" smooth="yes"/>
      <point x="154" y="699"/>
      <point x="68" y="701"/>
      <point x="30" y="701" type="curve"/>
      <point x="28" y="690"/>
      <point x="28" y="679"/>
      <point x="30" y="669" type="curve"/>
      <point x="124" y="662"/>
      <point x="130" y="659"/>
      <point x="130" y="577" type="curve" smooth="yes"/>
      <point x="130" y="111" type="line" smooth="yes"/>
      <point x="130" y="39"/>
      <point x="126" y="38"/>
      <point x="30" y="31" type="curve"/>
      <point x="28" y="20"/>
      <point x="28" y="9"/>
      <point x="30" y="-1" type="curve"/>
      <point x="69" y="-1"/>
      <point x="147" y="1"/>
      <point x="184" y="1" type="curve" smooth="yes"/>
      <point x="222" y="1"/>
      <point x="295" y="-1"/>
      <point x="335" y="-1" type="curve"/>
      <point x="337" y="9"/>
      <point x="337" y="21"/>
      <point x="335" y="31" type="curve"/>
      <point x="241" y="39"/>
      <point x="240" y="40"/>
      <point x="240" y="124" type="curve" smooth="yes"/>
      <point x="240" y="657" type="line"/>
      <point x="261" y="660"/>
      <point x="281" y="661"/>
      <point x="295" y="661" type="curve" smooth="yes"/>
      <point x="397" y="661"/>
      <point x="451" y="609"/>
      <point x="451" y="514" type="curve" smooth="yes"/>
      <point x="451" y="410"/>
      <point x="386" y="356"/>
      <point x="282" y="356" type="curve" smooth="yes"/>
      <point x="268" y="356"/>
      <point x="253" y="357"/>
      <point x="229" y="363" type="curve"/>
    </contour>
  </outline>
</glyph>
<glyph name="underscore" format="2">
  <advance width="400"/>
  <unicode hex="005F"/>
  <outline>
    <contour>
      <point x="-35" y="-88" type="line"/>
      <point x="-35" y="-133" type="line"/>
      <point x="435" y="-133" type="line"/>
      <point x="435" y="-88" type="line"/>
    </contour>
  </outline>
  <guideline angle="0" x="0" y="-110"/>
</glyph>
<glyph name="c" format="2">
  <advance width="471"/>
  <unicode hex="0063"/>
  <outline>
    <contour>
      <point x="434" y="97" type="curve"/>
      <point x="389" y="69"/>
      <point x="349" y="58"/>
      <point x="307" y="58" type="curve" smooth="yes"/>
      <point x="197" y="58"/>
      <point x="140" y="141"/>
      <point x="140" y="253" type="curve" smooth="yes"/>
      <point x="140" y="341"/>
      <point x="175" y="451"/>
      <point x="270" y="451" type="curve" smooth="yes"/>
      <point x="292" y="451"/>
      <point x="315" y="445"/>
      <point x="326" y="433" type="curve"/>
      <point x="319" y="456" type="line"/>
      <point x="312" y="384"/>
      <point x="347" y="338"/>
      <point x="390" y="338" type="curve" smooth="yes"/>
      <point x="419" y="338"/>
      <point x="444" y="357"/>
      <point x="444" y="393" type="curve" smooth="yes"/>
      <point x="444" y="461"/>
      <point x="353" y="492"/>
      <point x="279" y="492" type="curve" smooth="yes"/>
      <point x="136" y="492"/>
      <point x="39" y="377"/>
      <point x="39" y="231" type="curve" smooth="yes"/>
      <point x="39" y="97"/>
      <point x="121" y="-12"/>
      <point x="259" y="-12" type="curve" smooth="yes"/>
      <point x="331" y="-12"/>
      <point x="394" y="17"/>
      <point x="449" y="74" type="curve"/>
      <point x="446" y="81"/>
      <point x="440" y="90"/>
    </contour>
  </outline>
</glyph>
<glyph name="j" format="2">
  <advance width="282"/>
  <unicode hex="006A"/>
  <outline>
    <contour>
      <point x="69" y="667" type="curve" smooth="yes"/>
      <point x="69" y="630"/>
      <point x="99" y="599"/>
      <point x="137" y="599" type="curve" smooth="yes"/>
      <point x="178" y="599"/>
      <point x="208" y="633"/>
      <point x="208" y="668" type="curve" smooth="yes"/>
      <point x="208" y="705"/>
      <point x="176" y="736"/>
      <point x="139" y="736" type="curve" smooth="yes"/>
      <point x="100" y="736"/>
      <point x="69" y="705"/>
    </contour>
    <contour>
      <point x="181" y="497" type="line"/>
      <point x="128" y="476"/>
      <point x="76" y="462"/>
      <point x="20" y="451" type="curve"/>
      <point x="18" y="443"/>
      <point x="18" y="434"/>
      <point x="20" y="425" type="curve"/>
      <point x="94" y="415"/>
      <point x="95" y="406"/>
      <point x="95" y="328" type="curve" smooth="yes"/>
      <point x="95" y="273"/>
      <point x="96" y="41"/>
      <point x="96" y="-29" type="curve" smooth="yes"/>
      <point x="96" y="-77"/>
      <point x="96" y="-199"/>
      <point x="43" y="-208" type="curve"/>
      <point x="58" y="-218" type="line"/>
      <point x="43" y="-177"/>
      <point x="12" y="-158"/>
      <point x="-21" y="-158" type="curve" smooth="yes"/>
      <point x="-57" y="-158"/>
      <point x="-76" y="-180"/>
      <point x="-76" y="-204" type="curve" smooth="yes"/>
      <point x="-76" y="-228"/>
      <point x="-56" y="-255"/>
      <point x="-3" y="-255" type="curve" smooth="yes"/>
      <point x="46" y="-255"/>
      <point x="95" y="-231"/>
      <point x="137" y="-186" type="curve" smooth="yes"/>
      <point x="182" y="-138"/>
      <point x="198" y="-86"/>
      <point x="198" y="51" type="curve" smooth="yes"/>
      <point x="198" y="97"/>
      <point x="196" y="353"/>
      <point x="196" y="381" type="curve" smooth="yes"/>
      <point x="196" y="418"/>
      <point x="197" y="454"/>
      <point x="198" y="491" type="curve"/>
    </contour>
  </outline>
</glyph>
<glyph name="k" format="2">
  <advance width="550"/>
  <unicode hex="006B"/>
  <outline>
    <contour>
      <point x="20" y="-1" type="curve"/>
      <point x="60" y="-1"/>
      <point x="101" y="1"/>
      <point x="144" y="1" type="curve" smooth="yes"/>
      <point x="188" y="1"/>
      <point x="225" y="-1"/>
      <point x="260" y="-1" type="curve"/>
      <point x="261" y="9"/>
      <point x="261" y="20"/>
      <point x="260" y="30" type="curve"/>
      <point x="203" y="34"/>
      <point x="198" y="36"/>
      <point x="198" y="114" type="curve" smooth="yes"/>
      <point x="198" y="638" type="line" smooth="yes"/>
      <point x="198" y="682"/>
      <point x="198" y="719"/>
      <point x="200" y="749" type="curve"/>
      <point x="183" y="755" type="line"/>
      <point x="124" y="730"/>
      <point x="68" y="717"/>
      <point x="15" y="710" type="curve"/>
      <point x="14" y="705"/>
      <point x="14" y="701"/>
      <point x="14" y="696" type="curve" smooth="yes"/>
      <point x="14" y="692"/>
      <point x="14" y="688"/>
      <point x="15" y="683" type="curve"/>
      <point x="85" y="677"/>
      <point x="96" y="667"/>
      <point x="96" y="605" type="curve" smooth="yes"/>
      <point x="96" y="104" type="line" smooth="yes"/>
      <point x="96" y="38"/>
      <point x="88" y="34"/>
      <point x="20" y="30" type="curve"/>
      <point x="19" y="25"/>
      <point x="19" y="20"/>
      <point x="19" y="15" type="curve" smooth="yes"/>
      <point x="19" y="9"/>
      <point x="19" y="4"/>
    </contour>
    <contour>
      <point x="381" y="-1" type="curve"/>
      <point x="400" y="1"/>
      <point x="424" y="1"/>
      <point x="435" y="1" type="curve" smooth="yes"/>
      <point x="507" y="1"/>
      <point x="535" y="-1"/>
      <point x="553" y="-1" type="curve"/>
      <point x="554" y="10"/>
      <point x="554" y="21"/>
      <point x="553" y="30" type="curve"/>
      <point x="493" y="34"/>
      <point x="482" y="50"/>
      <point x="438" y="108" type="curve" smooth="yes"/>
      <point x="300" y="290" type="line"/>
      <point x="372" y="362" type="line" smooth="yes"/>
      <point x="416" y="406"/>
      <point x="459" y="443"/>
      <point x="529" y="445" type="curve"/>
      <point x="530" y="450"/>
      <point x="531" y="455"/>
      <point x="531" y="460" type="curve" smooth="yes"/>
      <point x="531" y="465"/>
      <point x="530" y="471"/>
      <point x="529" y="476" type="curve"/>
      <point x="506" y="476"/>
      <point x="439" y="475"/>
      <point x="415" y="475" type="curve" smooth="yes"/>
      <point x="383" y="475"/>
      <point x="337" y="477"/>
      <point x="310" y="477" type="curve"/>
      <point x="309" y="472"/>
      <point x="309" y="466"/>
      <point x="309" y="461" type="curve" smooth="yes"/>
      <point x="309" y="455"/>
      <point x="309" y="450"/>
      <point x="310" y="445" type="curve"/>
      <point x="341" y="444"/>
      <point x="360" y="436"/>
      <point x="360" y="425" type="curve" smooth="yes"/>
      <point x="360" y="410"/>
      <point x="338" y="390"/>
      <point x="303" y="352" type="curve" smooth="yes"/>
      <point x="247" y="292"/>
      <point x="235" y="282"/>
      <point x="231" y="279" type="curve" smooth="yes"/>
      <point x="224" y="273"/>
      <point x="214" y="267"/>
      <point x="197" y="267" type="curve" smooth="yes"/>
      <point x="189" y="267"/>
      <point x="179" y="268"/>
      <point x="167" y="272" type="curve"/>
      <point x="167" y="235" type="line"/>
      <point x="177" y="237"/>
      <point x="185" y="238"/>
      <point x="198" y="238" type="curve" smooth="yes"/>
      <point x="217" y="238"/>
      <point x="227" y="226"/>
      <point x="242" y="206" type="curve" smooth="yes"/>
      <point x="279" y="157"/>
      <point x="342" y="70"/>
      <point x="350" y="58" type="curve" smooth="yes"/>
      <point x="359" y="46"/>
      <point x="381" y="13"/>
    </contour>
  </outline>
</glyph>
<glyph name="l" format="2">
  <advance width="292"/>
  <unicode hex="006C"/>
  <outline>
    <contour>
      <point x="271" y="-1" type="curve"/>
      <point x="272" y="9"/>
      <point x="272" y="20"/>
      <point x="271" y="30" type="curve"/>
      <point x="204" y="34"/>
      <point x="198" y="36"/>
      <point x="198" y="114" type="curve" smooth="yes"/>
      <point x="198" y="638" type="line" smooth="yes"/>
      <point x="198" y="682"/>
      <point x="198" y="719"/>
      <point x="200" y="749" type="curve"/>
      <point x="183" y="755" type="line"/>
      <point x="124" y="730"/>
      <point x="68" y="717"/>
      <point x="15" y="710" type="curve"/>
      <point x="13" y="700"/>
      <point x="13" y="692"/>
      <point x="15" y="683" type="curve"/>
      <point x="85" y="677"/>
      <point x="96" y="667"/>
      <point x="96" y="605" type="curve"/>
      <point x="96" y="104" type="line" smooth="yes"/>
      <point x="96" y="38"/>
      <point x="88" y="34"/>
      <point x="20" y="30" type="curve"/>
      <point x="18" y="20"/>
      <point x="18" y="9"/>
      <point x="20" y="-1" type="curve"/>
      <point x="60" y="-1"/>
      <point x="95" y="1"/>
      <point x="145" y="1" type="curve" smooth="yes"/>
      <point x="194" y="1"/>
      <point x="232" y="-1"/>
    </contour>
  </outline>
</glyph>
<glyph name="m" format="2">
  <advance width="896"/>
  <unicode hex="006D"/>
  <outline>
    <contour>
      <point x="634" y="-1" type="curve"/>
      <point x="667" y="-1"/>
      <point x="703" y="1"/>
      <point x="754" y="1" type="curve" smooth="yes"/>
      <point x="803" y="1"/>
      <point x="838" y="-1"/>
      <point x="875" y="-1" type="curve"/>
      <point x="877" y="9"/>
      <point x="877" y="20"/>
      <point x="875" y="30" type="curve"/>
      <point x="812" y="34"/>
      <point x="806" y="36"/>
      <point x="806" y="114" type="curve" smooth="yes"/>
      <point x="806" y="341" type="line" smooth="yes"/>
      <point x="806" y="438"/>
      <point x="761" y="492"/>
      <point x="673" y="492" type="curve" smooth="yes"/>
      <point x="609" y="492"/>
      <point x="546" y="465"/>
      <point x="487" y="405" type="curve"/>
      <point x="495" y="367" type="line"/>
      <point x="527" y="405"/>
      <point x="568" y="425"/>
      <point x="616" y="425" type="curve" smooth="yes"/>
      <point x="688" y="425"/>
      <point x="705" y="384"/>
      <point x="705" y="306" type="curve" smooth="yes"/>
      <point x="705" y="104" type="line" smooth="yes"/>
      <point x="705" y="38"/>
      <point x="694" y="34"/>
      <point x="634" y="30" type="curve"/>
      <point x="632" y="20"/>
      <point x="632" y="9"/>
    </contour>
    <contour>
      <point x="27" y="-1" type="curve"/>
      <point x="67" y="-1"/>
      <point x="103" y="1"/>
      <point x="151" y="1" type="curve" smooth="yes"/>
      <point x="202" y="1"/>
      <point x="238" y="-1"/>
      <point x="276" y="-1" type="curve"/>
      <point x="277" y="9"/>
      <point x="277" y="20"/>
      <point x="276" y="30" type="curve"/>
      <point x="211" y="34"/>
      <point x="204" y="36"/>
      <point x="204" y="114" type="curve" smooth="yes"/>
      <point x="204" y="381" type="line"/>
      <point x="203" y="405" type="line"/>
      <point x="203" y="491" type="line"/>
      <point x="186" y="497" type="line"/>
      <point x="135" y="476"/>
      <point x="84" y="462"/>
      <point x="28" y="451" type="curve"/>
      <point x="26" y="443"/>
      <point x="26" y="434"/>
      <point x="28" y="425" type="curve"/>
      <point x="102" y="415"/>
      <point x="103" y="406"/>
      <point x="103" y="328" type="curve" smooth="yes"/>
      <point x="103" y="104" type="line" smooth="yes"/>
      <point x="103" y="38"/>
      <point x="95" y="34"/>
      <point x="27" y="30" type="curve"/>
      <point x="25" y="20"/>
      <point x="25" y="9"/>
    </contour>
    <contour>
      <point x="335" y="-1" type="curve"/>
      <point x="368" y="-1"/>
      <point x="403" y="1"/>
      <point x="452" y="1" type="curve" smooth="yes"/>
      <point x="502" y="1"/>
      <point x="537" y="-1"/>
      <point x="574" y="-1" type="curve"/>
      <point x="575" y="9"/>
      <point x="575" y="20"/>
      <point x="574" y="30" type="curve"/>
      <point x="511" y="34"/>
      <point x="504" y="36"/>
      <point x="504" y="114" type="curve" smooth="yes"/>
      <point x="504" y="341" type="line" smooth="yes"/>
      <point x="504" y="416"/>
      <point x="481" y="492"/>
      <point x="372" y="492" type="curve" smooth="yes"/>
      <point x="311" y="492"/>
      <point x="252" y="465"/>
      <point x="194" y="408" type="curve"/>
      <point x="196" y="365" type="line"/>
      <point x="229" y="405"/>
      <point x="271" y="425"/>
      <point x="314" y="425" type="curve" smooth="yes"/>
      <point x="387" y="425"/>
      <point x="403" y="385"/>
      <point x="403" y="306" type="curve" smooth="yes"/>
      <point x="403" y="104" type="line" smooth="yes"/>
      <point x="403" y="38"/>
      <point x="392" y="34"/>
      <point x="335" y="30" type="curve"/>
      <point x="333" y="20"/>
      <point x="333" y="9"/>
    </contour>
  </outline>
</glyph>
<glyph name="n" format="2">
  <advance width="603"/>
  <unicode hex="006E"/>
  <outline>
    <contour>
      <point x="340" y="-1" type="curve"/>
      <point x="377" y="-1"/>
      <point x="411" y="1"/>
      <point x="460" y="1" type="curve" smooth="yes"/>
      <point x="511" y="1"/>
      <point x="545" y="-1"/>
      <point x="585" y="-1" type="curve"/>
      <point x="586" y="9"/>
      <point x="586" y="20"/>
      <point x="585" y="30" type="curve"/>
      <point x="519" y="34"/>
      <point x="513" y="36"/>
      <point x="513" y="114" type="curve" smooth="yes"/>
      <point x="513" y="341" type="line" smooth="yes"/>
      <point x="513" y="438"/>
      <point x="465" y="492"/>
      <point x="377" y="492" type="curve" smooth="yes"/>
      <point x="315" y="492"/>
      <point x="245" y="465"/>
      <point x="174" y="386" type="curve"/>
      <point x="178" y="349" type="line"/>
      <point x="233" y="408"/>
      <point x="273" y="425"/>
      <point x="319" y="425" type="curve" smooth="yes"/>
      <point x="392" y="425"/>
      <point x="411" y="386"/>
      <point x="411" y="306" type="curve" smooth="yes"/>
      <point x="411" y="104" type="line" smooth="yes"/>
      <point x="411" y="38"/>
      <point x="402" y="34"/>
      <point x="340" y="30" type="curve"/>
      <point x="339" y="20"/>
      <point x="339" y="9"/>
    </contour>
    <contour>
      <point x="27" y="-1" type="curve"/>
      <point x="67" y="-1"/>
      <point x="108" y="1"/>
      <point x="151" y="1" type="curve" smooth="yes"/>
      <point x="197" y="1"/>
      <point x="237" y="-1"/>
      <point x="275" y="-1" type="curve"/>
      <point x="276" y="9"/>
      <point x="276" y="20"/>
      <point x="275" y="30" type="curve"/>
      <point x="211" y="34"/>
      <point x="204" y="36"/>
      <point x="204" y="114" type="curve"/>
      <point x="203" y="491" type="line"/>
      <point x="186" y="497" type="line"/>
      <point x="139" y="478"/>
      <point x="84" y="462"/>
      <point x="28" y="451" type="curve"/>
      <point x="26" y="443"/>
      <point x="26" y="434"/>
      <point x="28" y="425" type="curve"/>
      <point x="102" y="415"/>
      <point x="103" y="406"/>
      <point x="103" y="328" type="curve" smooth="yes"/>
      <point x="103" y="104" type="line" smooth="yes"/>
      <point x="103" y="38"/>
      <point x="95" y="34"/>
      <point x="27" y="30" type="curve"/>
      <point x="25" y="20"/>
      <point x="25" y="9"/>
    </contour>
  </outline>
</glyph>
<glyph name="p" format="2">
  <advance width="588"/>
  <unicode hex="0070"/>
  <outline>
    <contour>
      <point x="19" y="-246" type="curve"/>
      <point x="61" y="-246"/>
      <point x="94" y="-244"/>
      <point x="146" y="-244" type="curve" smooth="yes"/>
      <point x="200" y="-244"/>
      <point x="245" y="-246"/>
      <point x="290" y="-246" type="curve"/>
      <point x="291" y="-235"/>
      <point x="291" y="-225"/>
      <point x="290" y="-214" type="curve"/>
      <point x="204" y="-210"/>
      <point x="195" y="-208"/>
      <point x="195" y="-130" type="curve" smooth="yes"/>
      <point x="194" y="405" type="line" smooth="yes"/>
      <point x="194" y="430"/>
      <point x="194" y="453"/>
      <point x="195" y="490" type="curve"/>
      <point x="181" y="497" type="line"/>
      <point x="125" y="475"/>
      <point x="75" y="461"/>
      <point x="20" y="451" type="curve"/>
      <point x="19" y="443"/>
      <point x="19" y="434"/>
      <point x="20" y="425" type="curve"/>
      <point x="94" y="415"/>
      <point x="95" y="406"/>
      <point x="95" y="328" type="curve" smooth="yes"/>
      <point x="95" y="-142" type="line" smooth="yes"/>
      <point x="95" y="-206"/>
      <point x="88" y="-211"/>
      <point x="19" y="-215" type="curve"/>
      <point x="18" y="-225"/>
      <point x="18" y="-235"/>
    </contour>
    <contour>
      <point x="299" y="-12" type="curve" smooth="yes"/>
      <point x="447" y="-12"/>
      <point x="548" y="111"/>
      <point x="548" y="258" type="curve" smooth="yes"/>
      <point x="548" y="381"/>
      <point x="478" y="492"/>
      <point x="352" y="492" type="curve" smooth="yes"/>
      <point x="292" y="492"/>
      <point x="241" y="466"/>
      <point x="185" y="404" type="curve"/>
      <point x="185" y="361" type="line"/>
      <point x="223" y="407"/>
      <point x="262" y="430"/>
      <point x="308" y="430" type="curve" smooth="yes"/>
      <point x="409" y="430"/>
      <point x="444" y="320"/>
      <point x="444" y="221" type="curve" smooth="yes"/>
      <point x="444" y="121"/>
      <point x="407" y="25"/>
      <point x="308" y="25" type="curve" smooth="yes"/>
      <point x="255" y="25"/>
      <point x="215" y="49"/>
      <point x="184" y="103" type="curve"/>
      <point x="181" y="10" type="line"/>
      <point x="215" y="-3"/>
      <point x="255" y="-12"/>
    </contour>
  </outline>
</glyph>
<glyph name="q" format="2">
  <advance width="578"/>
  <unicode hex="0071"/>
  <outline>
    <contour>
      <point x="306" y="-266" type="curve"/>
      <point x="347" y="-266"/>
      <point x="385" y="-264"/>
      <point x="438" y="-264" type="curve" smooth="yes"/>
      <point x="490" y="-264"/>
      <point x="530" y="-266"/>
      <point x="571" y="-266" type="curve"/>
      <point x="573" y="-254"/>
      <point x="573" y="-244"/>
      <point x="571" y="-234" type="curve"/>
      <point x="501" y="-230"/>
      <point x="494" y="-228"/>
      <point x="494" y="-150" type="curve" smooth="yes"/>
      <point x="494" y="363" type="line" smooth="yes"/>
      <point x="494" y="415"/>
      <point x="495" y="455"/>
      <point x="496" y="482" type="curve"/>
      <point x="490" y="486"/>
      <point x="482" y="489"/>
      <point x="472" y="490" type="curve"/>
      <point x="448" y="474"/>
      <point x="424" y="461"/>
      <point x="394" y="452" type="curve"/>
      <point x="394" y="84" type="line"/>
      <point x="393" y="60" type="line"/>
      <point x="393" y="-162" type="line" smooth="yes"/>
      <point x="393" y="-226"/>
      <point x="384" y="-231"/>
      <point x="306" y="-235" type="curve"/>
      <point x="304" y="-245"/>
      <point x="304" y="-255"/>
    </contour>
    <contour>
      <point x="241" y="-12" type="curve" smooth="yes"/>
      <point x="298" y="-12"/>
      <point x="353" y="8"/>
      <point x="401" y="58" type="curve"/>
      <point x="400" y="99" type="line"/>
      <point x="377" y="65"/>
      <point x="332" y="51"/>
      <point x="291" y="51" type="curve" smooth="yes"/>
      <point x="177" y="51"/>
      <point x="143" y="158"/>
      <point x="143" y="260" type="curve" smooth="yes"/>
      <point x="143" y="380"/>
      <point x="191" y="451"/>
      <point x="281" y="451" type="curve" smooth="yes"/>
      <point x="335" y="451"/>
      <point x="372" y="427"/>
      <point x="404" y="369" type="curve"/>
      <point x="434" y="452" type="line"/>
      <point x="389" y="481"/>
      <point x="343" y="492"/>
      <point x="295" y="492" type="curve" smooth="yes"/>
      <point x="138" y="492"/>
      <point x="39" y="372"/>
      <point x="39" y="225" type="curve" smooth="yes"/>
      <point x="39" y="103"/>
      <point x="107" y="-12"/>
    </contour>
  </outline>
</glyph>
<glyph name="s" format="2">
  <advance width="424"/>
  <unicode hex="0073"/>
  <outline>
    <contour>
      <point x="73" y="158" type="curve"/>
      <point x="64" y="159"/>
      <point x="54" y="158"/>
      <point x="40" y="157" type="curve"/>
      <point x="44" y="96"/>
      <point x="48" y="45"/>
      <point x="48" y="4" type="curve"/>
      <point x="74" y="4"/>
      <point x="122" y="-4"/>
      <point x="127" y="-4" type="curve"/>
      <point x="129" y="-4"/>
      <point x="171" y="-12"/>
      <point x="206" y="-12" type="curve" smooth="yes"/>
      <point x="296" y="-12"/>
      <point x="386" y="33"/>
      <point x="386" y="138" type="curve" smooth="yes"/>
      <point x="386" y="235"/>
      <point x="308" y="266"/>
      <point x="231" y="297" type="curve"/>
      <point x="188" y="313"/>
      <point x="132" y="334"/>
      <point x="132" y="386" type="curve" smooth="yes"/>
      <point x="132" y="428"/>
      <point x="167" y="454"/>
      <point x="222" y="454" type="curve" smooth="yes"/>
      <point x="283" y="454"/>
      <point x="315" y="422"/>
      <point x="332" y="347" type="curve"/>
      <point x="342" y="346"/>
      <point x="353" y="347"/>
      <point x="367" y="348" type="curve"/>
      <point x="363" y="397"/>
      <point x="362" y="440"/>
      <point x="362" y="483" type="curve"/>
      <point x="354" y="482"/>
      <point x="349" y="482"/>
      <point x="348" y="482" type="curve"/>
      <point x="346" y="482"/>
      <point x="320" y="482"/>
      <point x="293" y="486" type="curve"/>
      <point x="290" y="486"/>
      <point x="252" y="492"/>
      <point x="222" y="492" type="curve" smooth="yes"/>
      <point x="130" y="492"/>
      <point x="44" y="445"/>
      <point x="44" y="349" type="curve" smooth="yes"/>
      <point x="44" y="264"/>
      <point x="113" y="234"/>
      <point x="187" y="204" type="curve" smooth="yes"/>
      <point x="251" y="178"/>
      <point x="299" y="159"/>
      <point x="299" y="100" type="curve" smooth="yes"/>
      <point x="299" y="47"/>
      <point x="258" y="23"/>
      <point x="206" y="23" type="curve" smooth="yes"/>
      <point x="136" y="23"/>
      <point x="93" y="70"/>
    </contour>
  </outline>
</glyph>
<glyph name="u" format="2">
  <advance width="583"/>
  <unicode hex="0075"/>
  <outline>
    <contour>
      <point x="226" y="-12" type="curve" smooth="yes"/>
      <point x="285" y="-12"/>
      <point x="341" y="17"/>
      <point x="400" y="76" type="curve"/>
      <point x="396" y="117" type="line"/>
      <point x="361" y="77"/>
      <point x="324" y="55"/>
      <point x="281" y="55" type="curve" smooth="yes"/>
      <point x="209" y="55"/>
      <point x="190" y="94"/>
      <point x="190" y="174" type="curve" smooth="yes"/>
      <point x="190" y="376" type="line" smooth="yes"/>
      <point x="190" y="408"/>
      <point x="191" y="444"/>
      <point x="192" y="486" type="curve"/>
      <point x="177" y="493" type="line"/>
      <point x="123" y="480"/>
      <point x="72" y="471"/>
      <point x="15" y="463" type="curve"/>
      <point x="12" y="455"/>
      <point x="12" y="446"/>
      <point x="15" y="438" type="curve"/>
      <point x="89" y="427"/>
      <point x="90" y="418"/>
      <point x="90" y="340" type="curve" smooth="yes"/>
      <point x="90" y="138" type="line" smooth="yes"/>
      <point x="90" y="40"/>
      <point x="139" y="-12"/>
    </contour>
    <contour>
      <point x="409" y="-10" type="line"/>
      <point x="458" y="2"/>
      <point x="510" y="9"/>
      <point x="567" y="15" type="curve"/>
      <point x="568" y="24"/>
      <point x="568" y="32"/>
      <point x="567" y="40" type="curve"/>
      <point x="490" y="48"/>
      <point x="489" y="57"/>
      <point x="489" y="117" type="curve" smooth="yes"/>
      <point x="489" y="376" type="line" smooth="yes"/>
      <point x="489" y="408"/>
      <point x="490" y="444"/>
      <point x="491" y="486" type="curve"/>
      <point x="476" y="493" type="line"/>
      <point x="421" y="480"/>
      <point x="370" y="471"/>
      <point x="313" y="463" type="curve"/>
      <point x="311" y="455"/>
      <point x="311" y="446"/>
      <point x="313" y="438" type="curve"/>
      <point x="387" y="427"/>
      <point x="388" y="418"/>
      <point x="388" y="340" type="curve" smooth="yes"/>
      <point x="388" y="98" type="line"/>
      <point x="391" y="77" type="line"/>
      <point x="393" y="-3" type="line"/>
    </contour>
  </outline>
</glyph>
<glyph name="y" format="2">
  <advance width="499"/>
  <unicode hex="0079"/>
  <outline>
    <contour>
      <point x="94" y="-255" type="curve" smooth="yes"/>
      <point x="130" y="-255"/>
      <point x="160" y="-234"/>
      <point x="194" y="-169" type="curve" smooth="yes"/>
      <point x="214" y="-129"/>
      <point x="253" y="-44"/>
      <point x="264" y="-19" type="curve" smooth="yes"/>
      <point x="435" y="380" type="line" smooth="yes"/>
      <point x="452" y="421"/>
      <point x="464" y="441"/>
      <point x="520" y="445" type="curve"/>
      <point x="522" y="455"/>
      <point x="522" y="466"/>
      <point x="520" y="476" type="curve"/>
      <point x="495" y="476"/>
      <point x="460" y="474"/>
      <point x="434" y="474" type="curve" smooth="yes"/>
      <point x="394" y="474"/>
      <point x="359" y="476"/>
      <point x="326" y="476" type="curve"/>
      <point x="324" y="466"/>
      <point x="324" y="455"/>
      <point x="326" y="445" type="curve"/>
      <point x="377" y="441"/>
      <point x="394" y="435"/>
      <point x="394" y="416" type="curve" smooth="yes"/>
      <point x="394" y="406"/>
      <point x="391" y="394"/>
      <point x="383" y="373" type="curve" smooth="yes"/>
      <point x="344" y="273"/>
      <point x="309" y="192"/>
      <point x="251" y="62" type="curve" smooth="yes"/>
      <point x="207" y="-42"/>
      <point x="187" y="-84"/>
      <point x="162" y="-130" type="curve"/>
      <point x="186" y="-123" type="line"/>
      <point x="80" y="-116"/>
      <point x="38" y="-163"/>
      <point x="38" y="-203" type="curve" smooth="yes"/>
      <point x="38" y="-231"/>
      <point x="58" y="-255"/>
    </contour>
    <contour>
      <point x="283" y="105" type="line"/>
      <point x="247" y="196"/>
      <point x="214" y="274"/>
      <point x="177" y="375" type="curve" smooth="yes"/>
      <point x="170" y="395"/>
      <point x="167" y="409"/>
      <point x="167" y="418" type="curve" smooth="yes"/>
      <point x="167" y="438"/>
      <point x="183" y="442"/>
      <point x="228" y="445" type="curve"/>
      <point x="229" y="455"/>
      <point x="229" y="466"/>
      <point x="228" y="476" type="curve"/>
      <point x="196" y="476"/>
      <point x="145" y="474"/>
      <point x="107" y="474" type="curve" smooth="yes"/>
      <point x="64" y="474"/>
      <point x="25" y="476"/>
      <point x="-14" y="476" type="curve"/>
      <point x="-16" y="465"/>
      <point x="-16" y="454"/>
      <point x="-14" y="445" type="curve"/>
      <point x="40" y="439"/>
      <point x="52" y="428"/>
      <point x="68" y="385" type="curve" smooth="yes"/>
      <point x="133" y="215"/>
      <point x="217" y="5"/>
      <point x="232" y="-36" type="curve"/>
    </contour>
  </outline>
  <guideline angle="63.8351" x="274" y="0"/>
</glyph>
<glyph name="braceleft" format="2">
  <advance width="395"/>
  <unicode hex="007B"/>
  <outline>
    <contour>
      <point x="118" y="288" type="line"/>
      <point x="205" y="305"/>
      <point x="219" y="347"/>
      <point x="219" y="425" type="curve" smooth="yes"/>
      <point x="219" y="616" type="line" smooth="yes"/>
      <point x="219" y="689"/>
      <point x="244" y="726"/>
      <point x="315" y="726" type="curve"/>
      <point x="315" y="761" type="line"/>
      <point x="190" y="761"/>
      <point x="133" y="725"/>
      <point x="133" y="590" type="curve" smooth="yes"/>
      <point x="133" y="401" type="line" smooth="yes"/>
      <point x="133" y="327"/>
      <point x="112" y="310"/>
      <point x="45" y="300" type="curve"/>
      <point x="45" y="272" type="line"/>
      <point x="112" y="262"/>
      <point x="133" y="245"/>
      <point x="133" y="171" type="curve" smooth="yes"/>
      <point x="133" y="-19" type="line" smooth="yes"/>
      <point x="133" y="-156"/>
      <point x="190" y="-191"/>
      <point x="315" y="-191" type="curve"/>
      <point x="315" y="-157" type="line"/>
      <point x="244" y="-157"/>
      <point x="219" y="-120"/>
      <point x="219" y="-45" type="curve" smooth="yes"/>
      <point x="219" y="146" type="line" smooth="yes"/>
      <point x="219" y="225"/>
      <point x="205" y="266"/>
      <point x="118" y="284" type="curve"/>
    </contour>
  </outline>
  <guideline angle="0" x="0" y="286"/>
</glyph>
<glyph name="asciitilde" format="2">
  <advance width="581"/>
  <unicode hex="007E"/>
  <outline>
    <contour>
      <point x="529" y="287" type="curve"/>
      <point x="491" y="256"/>
      <point x="453" y="247"/>
      <point x="415" y="247" type="curve" smooth="yes"/>
      <point x="333" y="247"/>
      <point x="249" y="307"/>
      <point x="166" y="307" type="curve" smooth="yes"/>
      <point x="127" y="307"/>
      <point x="90" y="297"/>
      <point x="52" y="266" type="curve"/>
      <point x="49" y="251"/>
      <point x="49" y="232"/>
      <point x="52" y="218" type="curve"/>
      <point x="90" y="248"/>
      <point x="127" y="257"/>
      <point x="166" y="257" type="curve" smooth="yes"/>
      <point x="246" y="257"/>
      <point x="330" y="198"/>
      <point x="415" y="198" type="curve" smooth="yes"/>
      <point x="453" y="198"/>
      <point x="491" y="208"/>
      <point x="529" y="238" type="curve"/>
      <point x="530" y="252"/>
      <point x="530" y="273"/>
    </contour>
  </outline>
</glyph>
<glyph name="currency" format="2">
  <advance width="598"/>
  <unicode hex="00A4"/>
  <outline>
    <contour>
      <point x="299" y="96" type="curve" smooth="yes"/>
      <point x="415" y="96"/>
      <point x="514" y="185"/>
      <point x="514" y="311" type="curve" smooth="yes"/>
      <point x="514" y="434"/>
      <point x="420" y="527"/>
      <point x="299" y="527" type="curve" smooth="yes"/>
      <point x="184" y="527"/>
      <point x="84" y="439"/>
      <point x="84" y="311" type="curve" smooth="yes"/>
      <point x="84" y="204"/>
      <point x="165" y="96"/>
    </contour>
    <contour>
      <point x="176" y="151" type="line"/>
      <point x="137" y="185" type="line"/>
      <point x="70" y="125" type="line"/>
      <point x="83" y="109"/>
      <point x="96" y="96"/>
      <point x="111" y="83" type="curve"/>
    </contour>
    <contour>
      <point x="299" y="146" type="curve" smooth="yes"/>
      <point x="211" y="146"/>
      <point x="140" y="219"/>
      <point x="140" y="311" type="curve" smooth="yes"/>
      <point x="140" y="403"/>
      <point x="210" y="478"/>
      <point x="299" y="478" type="curve" smooth="yes"/>
      <point x="390" y="478"/>
      <point x="458" y="401"/>
      <point x="458" y="311" type="curve" smooth="yes"/>
      <point x="458" y="221"/>
      <point x="389" y="146"/>
    </contour>
    <contour>
      <point x="487" y="82" type="line"/>
      <point x="502" y="96"/>
      <point x="516" y="110"/>
      <point x="528" y="124" type="curve"/>
      <point x="461" y="188" type="line"/>
      <point x="424" y="148" type="line"/>
    </contour>
    <contour>
      <point x="174" y="474" type="line"/>
      <point x="111" y="541" type="line"/>
      <point x="96" y="527"/>
      <point x="82" y="512"/>
      <point x="70" y="499" type="curve"/>
      <point x="135" y="437" type="line"/>
    </contour>
    <contour>
      <point x="528" y="499" type="line"/>
      <point x="515" y="514"/>
      <point x="501" y="529"/>
      <point x="487" y="541" type="curve"/>
      <point x="422" y="473" type="line"/>
      <point x="464" y="438" type="line"/>
    </contour>
  </outline>
  <guideline angle="0" x="0" y="238"/>
</glyph>
<glyph name="yen" format="2">
  <advance width="553"/>
  <unicode hex="00A5"/>
  <outline>
    <contour>
      <point x="437" y="475" type="line" smooth="yes"/>
      <point x="493" y="573"/>
      <point x="502" y="579"/>
      <point x="577" y="590" type="curve"/>
      <point x="578" y="601"/>
      <point x="578" y="611"/>
      <point x="577" y="622" type="curve"/>
      <point x="535" y="622"/>
      <point x="505" y="620"/>
      <point x="463" y="620" type="curve" smooth="yes"/>
      <point x="427" y="620"/>
      <point x="391" y="622"/>
      <point x="336" y="622" type="curve"/>
      <point x="334" y="612"/>
      <point x="334" y="603"/>
      <point x="336" y="590" type="curve"/>
      <point x="397" y="581"/>
      <point x="422" y="578"/>
      <point x="422" y="559" type="curve" smooth="yes"/>
      <point x="422" y="547"/>
      <point x="414" y="532"/>
      <point x="402" y="509" type="curve" smooth="yes"/>
      <point x="300" y="318" type="line"/>
      <point x="313" y="316" type="line"/>
      <point x="208" y="510" type="line" smooth="yes"/>
      <point x="195" y="533"/>
      <point x="187" y="550"/>
      <point x="187" y="562" type="curve" smooth="yes"/>
      <point x="187" y="579"/>
      <point x="206" y="585"/>
      <point x="258" y="590" type="curve"/>
      <point x="260" y="603"/>
      <point x="260" y="612"/>
      <point x="258" y="622" type="curve"/>
      <point x="211" y="622"/>
      <point x="166" y="620"/>
      <point x="128" y="620" type="curve" smooth="yes"/>
      <point x="79" y="620"/>
      <point x="29" y="622"/>
      <point x="-17" y="622" type="curve"/>
      <point x="-20" y="611"/>
      <point x="-20" y="601"/>
      <point x="-17" y="590" type="curve"/>
      <point x="57" y="579"/>
      <point x="58" y="575"/>
      <point x="109" y="482" type="curve" smooth="yes"/>
      <point x="233" y="256" type="line"/>
      <point x="321" y="270" type="line"/>
    </contour>
    <contour>
      <point x="123" y="-1" type="curve"/>
      <point x="168" y="-1"/>
      <point x="212" y="1"/>
      <point x="276" y="1" type="curve" smooth="yes"/>
      <point x="336" y="1"/>
      <point x="393" y="-1"/>
      <point x="430" y="-1" type="curve"/>
      <point x="431" y="11"/>
      <point x="431" y="21"/>
      <point x="430" y="31" type="curve"/>
      <point x="330" y="40"/>
      <point x="327" y="41"/>
      <point x="327" y="127" type="curve" smooth="yes"/>
      <point x="327" y="287" type="line"/>
      <point x="225" y="287" type="line"/>
      <point x="225" y="114" type="line" smooth="yes"/>
      <point x="225" y="39"/>
      <point x="221" y="41"/>
      <point x="123" y="31" type="curve"/>
      <point x="122" y="21"/>
      <point x="122" y="11"/>
    </contour>
    <contour>
      <point x="484" y="152" type="line"/>
      <point x="486" y="167"/>
      <point x="486" y="181"/>
      <point x="484" y="196" type="curve"/>
      <point x="66" y="196" type="line"/>
      <point x="65" y="181"/>
      <point x="65" y="167"/>
      <point x="66" y="152" type="curve"/>
    </contour>
    <contour>
      <point x="484" y="268" type="line"/>
      <point x="486" y="283"/>
      <point x="486" y="298"/>
      <point x="484" y="312" type="curve"/>
      <point x="66" y="312" type="line"/>
      <point x="65" y="298"/>
      <point x="65" y="283"/>
      <point x="66" y="268" type="curve"/>
    </contour>
  </outline>
  <guideline angle="90" x="276" y="0"/>
  <guideline angle="104.112" x="135" y="0"/>
  <guideline angle="90" x="-157" y="0"/>
</glyph>
<glyph name="brokenbar" format="2">
  <advance width="307"/>
  <unicode hex="00A6"/>
  <outline>
    <contour>
      <point x="125" y="199" type="line"/>
      <point x="125" y="-183" type="line"/>
      <point x="182" y="-183" type="line"/>
      <point x="182" y="199" type="line"/>
    </contour>
    <contour>
      <point x="182" y="329" type="line"/>
      <point x="182" y="711" type="line"/>
      <point x="125" y="711" type="line"/>
      <point x="125" y="329" type="line"/>
    </contour>
  </outline>
  <guideline angle="0" x="0" y="285"/>
</glyph>
<glyph name="section" format="2">
  <advance width="550"/>
  <unicode hex="00A7"/>
  <outline>
    <contour>
      <point x="391" y="-88" type="line"/>
      <point x="386" y="157"/>
      <point x="105" y="259"/>
      <point x="105" y="465" type="curve" smooth="yes"/>
      <point x="105" y="577"/>
      <point x="188" y="673"/>
      <point x="292" y="673" type="curve" smooth="yes"/>
      <point x="304" y="673"/>
      <point x="314" y="672"/>
      <point x="325" y="669" type="curve"/>
      <point x="330" y="610"/>
      <point x="359" y="576"/>
      <point x="398" y="576" type="curve" smooth="yes"/>
      <point x="429" y="576"/>
      <point x="448" y="596"/>
      <point x="448" y="625" type="curve" smooth="yes"/>
      <point x="448" y="679"/>
      <point x="377" y="711"/>
      <point x="300" y="711" type="curve" smooth="yes"/>
      <point x="141" y="711"/>
      <point x="50" y="574"/>
      <point x="50" y="414" type="curve" smooth="yes"/>
      <point x="50" y="132"/>
      <point x="325" y="66"/>
      <point x="360" y="-123" type="curve"/>
    </contour>
    <contour>
      <point x="229" y="-200" type="curve" smooth="yes"/>
      <point x="390" y="-200"/>
      <point x="480" y="-62"/>
      <point x="480" y="98" type="curve" smooth="yes"/>
      <point x="480" y="379"/>
      <point x="203" y="446"/>
      <point x="170" y="634" type="curve"/>
      <point x="139" y="599" type="line"/>
      <point x="144" y="354"/>
      <point x="424" y="253"/>
      <point x="424" y="46" type="curve" smooth="yes"/>
      <point x="424" y="-64"/>
      <point x="344" y="-162"/>
      <point x="237" y="-162" type="curve" smooth="yes"/>
      <point x="225" y="-162"/>
      <point x="215" y="-161"/>
      <point x="204" y="-158" type="curve"/>
      <point x="200" y="-99"/>
      <point x="171" y="-65"/>
      <point x="132" y="-65" type="curve" smooth="yes"/>
      <point x="100" y="-65"/>
      <point x="82" y="-88"/>
      <point x="82" y="-115" type="curve" smooth="yes"/>
      <point x="82" y="-168"/>
      <point x="153" y="-200"/>
    </contour>
  </outline>
</glyph>
<glyph name="copyright" format="2">
  <advance width="1063"/>
  <unicode hex="00A9"/>
  <outline>
    <contour>
      <point x="988" y="317" type="curve" smooth="yes"/>
      <point x="988" y="582"/>
      <point x="798" y="771"/>
      <point x="532" y="771" type="curve" smooth="yes"/>
      <point x="264" y="771"/>
      <point x="75" y="582"/>
      <point x="75" y="317" type="curve" smooth="yes"/>
      <point x="75" y="50"/>
      <point x="264" y="-140"/>
      <point x="532" y="-140" type="curve" smooth="yes"/>
      <point x="798" y="-140"/>
      <point x="988" y="49"/>
    </contour>
    <contour>
      <point x="931" y="317" type="curve" smooth="yes"/>
      <point x="931" y="74"/>
      <point x="773" y="-92"/>
      <point x="532" y="-92" type="curve" smooth="yes"/>
      <point x="290" y="-92"/>
      <point x="131" y="74"/>
      <point x="131" y="317" type="curve" smooth="yes"/>
      <point x="131" y="557"/>
      <point x="290" y="724"/>
      <point x="532" y="724" type="curve" smooth="yes"/>
      <point x="773" y="724"/>
      <point x="931" y="557"/>
    </contour>
    <contour>
      <point x="727" y="228" type="curve"/>
      <point x="716" y="230"/>
      <point x="706" y="230"/>
      <point x="696" y="229" type="curve"/>
      <point x="676" y="134"/>
      <point x="625" y="90"/>
      <point x="550" y="90" type="curve" smooth="yes"/>
      <point x="426" y="90"/>
      <point x="373" y="197"/>
      <point x="373" y="318" type="curve" smooth="yes"/>
      <point x="373" y="433"/>
      <point x="422" y="543"/>
      <point x="543" y="543" type="curve" smooth="yes"/>
      <point x="622" y="543"/>
      <point x="673" y="497"/>
      <point x="692" y="404" type="curve"/>
      <point x="702" y="404"/>
      <point x="713" y="404"/>
      <point x="723" y="406" type="curve"/>
      <point x="719" y="460"/>
      <point x="716" y="511"/>
      <point x="716" y="557" type="curve"/>
      <point x="709" y="555"/>
      <point x="702" y="555"/>
      <point x="695" y="555" type="curve" smooth="yes"/>
      <point x="684" y="555"/>
      <point x="663" y="558"/>
      <point x="632" y="566" type="curve" smooth="yes"/>
      <point x="601" y="575"/>
      <point x="568" y="580"/>
      <point x="536" y="580" type="curve" smooth="yes"/>
      <point x="380" y="580"/>
      <point x="267" y="468"/>
      <point x="267" y="313" type="curve" smooth="yes"/>
      <point x="267" y="151"/>
      <point x="378" y="53"/>
      <point x="538" y="53" type="curve" smooth="yes"/>
      <point x="565" y="53"/>
      <point x="591" y="55"/>
      <point x="615" y="60" type="curve" smooth="yes"/>
      <point x="639" y="66"/>
      <point x="672" y="76"/>
      <point x="714" y="92" type="curve"/>
      <point x="718" y="139"/>
      <point x="722" y="184"/>
    </contour>
  </outline>
</glyph>
<glyph name="registered" format="2">
  <advance width="575"/>
  <unicode hex="00AE"/>
  <outline>
    <contour>
      <point x="289" y="294" type="curve" smooth="yes"/>
      <point x="430" y="294"/>
      <point x="525" y="388"/>
      <point x="525" y="530" type="curve" smooth="yes"/>
      <point x="525" y="672"/>
      <point x="430" y="765"/>
      <point x="289" y="765" type="curve" smooth="yes"/>
      <point x="144" y="765"/>
      <point x="50" y="672"/>
      <point x="50" y="530" type="curve" smooth="yes"/>
      <point x="50" y="388"/>
      <point x="144" y="294"/>
    </contour>
    <contour>
      <point x="289" y="324" type="curve" smooth="yes"/>
      <point x="164" y="324"/>
      <point x="86" y="405"/>
      <point x="86" y="530" type="curve" smooth="yes"/>
      <point x="86" y="652"/>
      <point x="164" y="735"/>
      <point x="289" y="735" type="curve" smooth="yes"/>
      <point x="412" y="735"/>
      <point x="490" y="652"/>
      <point x="490" y="530" type="curve" smooth="yes"/>
      <point x="490" y="405"/>
      <point x="412" y="324"/>
    </contour>
    <contour>
      <point x="244" y="521" type="line"/>
      <point x="264" y="519" type="line"/>
      <point x="279" y="517"/>
      <point x="281" y="514"/>
      <point x="291" y="499" type="curve"/>
      <point x="353" y="400" type="line"/>
      <point x="361" y="401"/>
      <point x="370" y="401"/>
      <point x="379" y="401" type="curve" smooth="yes"/>
      <point x="402" y="401"/>
      <point x="435" y="400"/>
      <point x="443" y="400" type="curve"/>
      <point x="444" y="406"/>
      <point x="444" y="415"/>
      <point x="443" y="420" type="curve"/>
      <point x="404" y="423"/>
      <point x="402" y="423"/>
      <point x="370" y="472" type="curve" smooth="yes"/>
      <point x="348" y="505" type="line" smooth="yes"/>
      <point x="340" y="517"/>
      <point x="334" y="525"/>
      <point x="318" y="530" type="curve"/>
      <point x="329" y="519" type="line"/>
      <point x="329" y="527" type="line"/>
      <point x="371" y="543"/>
      <point x="395" y="569"/>
      <point x="395" y="602" type="curve" smooth="yes"/>
      <point x="395" y="647"/>
      <point x="352" y="672"/>
      <point x="290" y="672" type="curve" smooth="yes"/>
      <point x="280" y="672"/>
      <point x="255" y="671"/>
      <point x="224" y="671" type="curve" smooth="yes"/>
      <point x="193" y="671"/>
      <point x="181" y="672"/>
      <point x="155" y="672" type="curve"/>
      <point x="153" y="667"/>
      <point x="153" y="658"/>
      <point x="155" y="652" type="curve"/>
      <point x="197" y="649"/>
      <point x="197" y="648"/>
      <point x="197" y="608" type="curve" smooth="yes"/>
      <point x="197" y="460" type="line" smooth="yes"/>
      <point x="197" y="425"/>
      <point x="197" y="424"/>
      <point x="155" y="420" type="curve"/>
      <point x="153" y="415"/>
      <point x="153" y="406"/>
      <point x="155" y="400" type="curve"/>
      <point x="176" y="400"/>
      <point x="208" y="401"/>
      <point x="220" y="401" type="curve" smooth="yes"/>
      <point x="234" y="401"/>
      <point x="263" y="400"/>
      <point x="285" y="400" type="curve"/>
      <point x="286" y="406"/>
      <point x="286" y="415"/>
      <point x="285" y="420" type="curve"/>
      <point x="252" y="424"/>
      <point x="251" y="425"/>
      <point x="251" y="465" type="curve" smooth="yes"/>
      <point x="251" y="656" type="line"/>
      <point x="241" y="646" type="line"/>
      <point x="256" y="648"/>
      <point x="268" y="648"/>
      <point x="276" y="648" type="curve" smooth="yes"/>
      <point x="316" y="648"/>
      <point x="335" y="631"/>
      <point x="335" y="595" type="curve" smooth="yes"/>
      <point x="335" y="560"/>
      <point x="313" y="541"/>
      <point x="275" y="541" type="curve" smooth="yes"/>
      <point x="265" y="541"/>
      <point x="257" y="541"/>
      <point x="244" y="543" type="curve"/>
    </contour>
  </outline>
</glyph>
<glyph name="ordmasculine" format="2">
  <advance width="426"/>
  <unicode hex="00BA"/>
  <outline>
    <contour>
      <point x="211" y="298" type="curve" smooth="yes"/>
      <point x="313" y="298"/>
      <point x="386" y="366"/>
      <point x="386" y="466" type="curve" smooth="yes"/>
      <point x="386" y="561"/>
      <point x="318" y="630"/>
      <point x="216" y="630" type="curve" smooth="yes"/>
      <point x="115" y="630"/>
      <point x="40" y="563"/>
      <point x="40" y="460" type="curve" smooth="yes"/>
      <point x="40" y="363"/>
      <point x="107" y="298"/>
    </contour>
    <contour>
      <point x="127" y="467" type="curve" smooth="yes"/>
      <point x="127" y="549"/>
      <point x="157" y="600"/>
      <point x="213" y="600" type="curve" smooth="yes"/>
      <point x="270" y="600"/>
      <point x="300" y="546"/>
      <point x="300" y="459" type="curve" smooth="yes"/>
      <point x="300" y="378"/>
      <point x="269" y="327"/>
      <point x="214" y="327" type="curve" smooth="yes"/>
      <point x="157" y="327"/>
      <point x="127" y="382"/>
    </contour>
    <contour>
      <point x="364" y="200" type="line"/>
      <point x="365" y="212"/>
      <point x="365" y="224"/>
      <point x="364" y="237" type="curve"/>
      <point x="63" y="237" type="line"/>
      <point x="62" y="224"/>
      <point x="62" y="212"/>
      <point x="63" y="200" type="curve"/>
    </contour>
  </outline>
  <guideline angle="90" x="40" y="0"/>
  <guideline angle="90" x="386" y="0"/>
</glyph>
<glyph name="guillemotright" format="2">
  <advance width="477"/>
  <unicode hex="00BB"/>
  <outline>
    <contour>
      <point x="352" y="252" type="line"/>
      <point x="308" y="213"/>
      <point x="241" y="136"/>
      <point x="204" y="80" type="curve"/>
      <point x="208" y="72"/>
      <point x="216" y="66"/>
      <point x="225" y="61" type="curve"/>
      <point x="282" y="117"/>
      <point x="359" y="179"/>
      <point x="434" y="228" type="curve"/>
      <point x="436" y="236"/>
      <point x="437" y="244"/>
      <point x="437" y="252" type="curve" smooth="yes"/>
      <point x="437" y="256"/>
      <point x="437" y="260"/>
      <point x="436" y="264" type="curve"/>
      <point x="364" y="311"/>
      <point x="289" y="373"/>
      <point x="230" y="430" type="curve"/>
      <point x="222" y="425"/>
      <point x="213" y="419"/>
      <point x="209" y="412" type="curve"/>
      <point x="244" y="357"/>
      <point x="310" y="278"/>
      <point x="352" y="240" type="curve"/>
    </contour>
    <contour>
      <point x="178" y="253" type="line"/>
      <point x="136" y="217"/>
      <point x="70" y="142"/>
      <point x="35" y="86" type="curve"/>
      <point x="39" y="80"/>
      <point x="47" y="74"/>
      <point x="55" y="69" type="curve"/>
      <point x="110" y="123"/>
      <point x="181" y="181"/>
      <point x="254" y="229" type="curve"/>
      <point x="256" y="237"/>
      <point x="257" y="244"/>
      <point x="257" y="252" type="curve" smooth="yes"/>
      <point x="257" y="256"/>
      <point x="257" y="260"/>
      <point x="256" y="264" type="curve"/>
      <point x="186" y="310"/>
      <point x="119" y="369"/>
      <point x="61" y="424" type="curve"/>
      <point x="54" y="419"/>
      <point x="47" y="413"/>
      <point x="42" y="407" type="curve"/>
      <point x="75" y="353"/>
      <point x="138" y="278"/>
      <point x="178" y="241" type="curve"/>
    </contour>
  </outline>
  <guideline angle="0" x="0" y="239"/>
</glyph>
<glyph name="questiondown" format="2">
  <advance width="412"/>
  <unicode hex="00BF"/>
  <outline>
    <contour>
      <point x="264" y="267" type="line"/>
      <point x="252" y="268"/>
      <point x="238" y="268"/>
      <point x="227" y="267" type="curve"/>
      <point x="218" y="160" type="line"/>
      <point x="237" y="172" type="line"/>
      <point x="90" y="175"/>
      <point x="35" y="141"/>
      <point x="35" y="32" type="curve" smooth="yes"/>
      <point x="35" y="-20"/>
      <point x="47" y="-62"/>
      <point x="70" y="-101" type="curve" smooth="yes"/>
      <point x="116" y="-179"/>
      <point x="205" y="-242"/>
      <point x="275" y="-242" type="curve" smooth="yes"/>
      <point x="317" y="-242"/>
      <point x="347" y="-220"/>
      <point x="347" y="-188" type="curve" smooth="yes"/>
      <point x="347" y="-156"/>
      <point x="318" y="-138"/>
      <point x="281" y="-138" type="curve" smooth="yes"/>
      <point x="251" y="-138"/>
      <point x="217" y="-150"/>
      <point x="186" y="-170" type="curve"/>
      <point x="209" y="-168" type="line"/>
      <point x="134" y="-138"/>
      <point x="84" y="-62"/>
      <point x="84" y="8" type="curve" smooth="yes"/>
      <point x="84" y="61"/>
      <point x="114" y="75"/>
      <point x="255" y="75" type="curve"/>
      <point x="256" y="75"/>
      <point x="263" y="75"/>
      <point x="284" y="74" type="curve"/>
    </contour>
    <contour>
      <point x="317" y="409" type="curve" smooth="yes"/>
      <point x="317" y="450"/>
      <point x="287" y="481"/>
      <point x="245" y="481" type="curve" smooth="yes"/>
      <point x="203" y="481"/>
      <point x="173" y="448"/>
      <point x="173" y="409" type="curve" smooth="yes"/>
      <point x="173" y="370"/>
      <point x="203" y="336"/>
      <point x="245" y="336" type="curve" smooth="yes"/>
      <point x="287" y="336"/>
      <point x="317" y="368"/>
    </contour>
  </outline>
</glyph>
<glyph name="germandbls" format="2">
  <advance width="601"/>
  <unicode hex="00DF"/>
  <outline>
    <contour>
      <point x="103" y="104" type="line" smooth="yes"/>
      <point x="103" y="38"/>
      <point x="96" y="34"/>
      <point x="27" y="30" type="curve"/>
      <point x="26" y="20"/>
      <point x="26" y="9"/>
      <point x="27" y="-1" type="curve"/>
      <point x="72" y="-1"/>
      <point x="93" y="1"/>
      <point x="160" y="1" type="curve" smooth="yes"/>
      <point x="168" y="1"/>
      <point x="189" y="1"/>
      <point x="205" y="0" type="curve"/>
      <point x="209" y="4" type="line"/>
      <point x="207" y="31"/>
      <point x="205" y="68"/>
      <point x="205" y="119" type="curve" smooth="yes"/>
      <point x="205" y="509" type="line" smooth="yes"/>
      <point x="205" y="583"/>
      <point x="214" y="637"/>
      <point x="233" y="668" type="curve" smooth="yes"/>
      <point x="253" y="700"/>
      <point x="284" y="717"/>
      <point x="323" y="717" type="curve" smooth="yes"/>
      <point x="384" y="717"/>
      <point x="416" y="675"/>
      <point x="416" y="610" type="curve" smooth="yes"/>
      <point x="416" y="465"/>
      <point x="275" y="482"/>
      <point x="275" y="358" type="curve" smooth="yes"/>
      <point x="275" y="277"/>
      <point x="329" y="244"/>
      <point x="381" y="213" type="curve" smooth="yes"/>
      <point x="435" y="181"/>
      <point x="474" y="158"/>
      <point x="474" y="99" type="curve" smooth="yes"/>
      <point x="474" y="53"/>
      <point x="445" y="23"/>
      <point x="406" y="23" type="curve" smooth="yes"/>
      <point x="389" y="23"/>
      <point x="373" y="28"/>
      <point x="364" y="37" type="curve"/>
      <point x="371" y="16" type="line"/>
      <point x="377" y="77"/>
      <point x="346" y="125"/>
      <point x="303" y="125" type="curve" smooth="yes"/>
      <point x="277" y="125"/>
      <point x="258" y="108"/>
      <point x="258" y="78" type="curve" smooth="yes"/>
      <point x="258" y="18"/>
      <point x="341" y="-10"/>
      <point x="398" y="-10" type="curve" smooth="yes"/>
      <point x="490" y="-10"/>
      <point x="563" y="54"/>
      <point x="563" y="144" type="curve" smooth="yes"/>
      <point x="563" y="224"/>
      <point x="511" y="255"/>
      <point x="460" y="285" type="curve" smooth="yes"/>
      <point x="407" y="316"/>
      <point x="368" y="337"/>
      <point x="368" y="398" type="curve" smooth="yes"/>
      <point x="368" y="499"/>
      <point x="514" y="491"/>
      <point x="514" y="620" type="curve" smooth="yes"/>
      <point x="514" y="714"/>
      <point x="430" y="755"/>
      <point x="343" y="755" type="curve" smooth="yes"/>
      <point x="275" y="755"/>
      <point x="216" y="733"/>
      <point x="175" y="697" type="curve" smooth="yes"/>
      <point x="131" y="657"/>
      <point x="109" y="602"/>
      <point x="104" y="507" type="curve" smooth="yes"/>
      <point x="102" y="469"/>
      <point x="95" y="466"/>
      <point x="20" y="454" type="curve"/>
      <point x="18" y="446"/>
      <point x="18" y="437"/>
      <point x="20" y="427" type="curve"/>
      <point x="103" y="427" type="line"/>
    </contour>
  </outline>
</glyph>
<glyph name="eth" format="2">
  <advance width="567"/>
  <unicode hex="00F0"/>
  <outline>
    <contour>
      <point x="273" y="-11" type="curve" smooth="yes"/>
      <point x="440" y="-11"/>
      <point x="523" y="127"/>
      <point x="523" y="280" type="curve" smooth="yes"/>
      <point x="523" y="427"/>
      <point x="436" y="578"/>
      <point x="327" y="669" type="curve" smooth="yes"/>
      <point x="283" y="705"/>
      <point x="262" y="721"/>
      <point x="203" y="756" type="curve"/>
      <point x="192" y="747"/>
      <point x="184" y="735"/>
      <point x="177" y="723" type="curve"/>
      <point x="219" y="693"/>
      <point x="264" y="652"/>
      <point x="280" y="632" type="curve" smooth="yes"/>
      <point x="359" y="538"/>
      <point x="415" y="447"/>
      <point x="415" y="261" type="curve" smooth="yes"/>
      <point x="415" y="160"/>
      <point x="391" y="27"/>
      <point x="284" y="27" type="curve" smooth="yes"/>
      <point x="181" y="27"/>
      <point x="151" y="151"/>
      <point x="151" y="245" type="curve" smooth="yes"/>
      <point x="151" y="362"/>
      <point x="197" y="430"/>
      <point x="280" y="430" type="curve" smooth="yes"/>
      <point x="321" y="430"/>
      <point x="359" y="414"/>
      <point x="422" y="372" type="curve"/>
      <point x="405" y="433" type="line"/>
      <point x="352" y="465"/>
      <point x="310" y="480"/>
      <point x="261" y="480" type="curve" smooth="yes"/>
      <point x="127" y="480"/>
      <point x="39" y="368"/>
      <point x="39" y="230" type="curve" smooth="yes"/>
      <point x="39" y="89"/>
      <point x="131" y="-11"/>
    </contour>
    <contour>
      <point x="323" y="632" type="line"/>
      <point x="333" y="637" type="line"/>
      <point x="456" y="720" type="line"/>
      <point x="450" y="732"/>
      <point x="441" y="744"/>
      <point x="430" y="755" type="curve"/>
      <point x="304" y="670" type="line"/>
      <point x="293" y="663" type="line"/>
      <point x="153" y="572" type="line"/>
      <point x="161" y="561"/>
      <point x="169" y="548"/>
      <point x="179" y="538" type="curve"/>
    </contour>
  </outline>
</glyph>
<glyph name="eogonek" format="2">
  <advance width="497"/>
  <unicode hex="0119"/>
  <outline>
    <contour>
      <point x="259" y="-12" type="curve" smooth="yes"/>
      <point x="282" y="-12"/>
      <point x="300" y="-9"/>
      <point x="321" y="-2" type="curve"/>
      <point x="322" y="-4" type="line"/>
      <point x="262" y="-50"/>
      <point x="232" y="-99"/>
      <point x="232" y="-151" type="curve" smooth="yes"/>
      <point x="232" y="-209"/>
      <point x="269" y="-250"/>
      <point x="340" y="-250" type="curve" smooth="yes"/>
      <point x="378" y="-250"/>
      <point x="415" y="-238"/>
      <point x="448" y="-211" type="curve"/>
      <point x="447" y="-204"/>
      <point x="444" y="-196"/>
      <point x="440" y="-188" type="curve"/>
      <point x="428" y="-192"/>
      <point x="413" y="-196"/>
      <point x="395" y="-196" type="curve" smooth="yes"/>
      <point x="353" y="-196"/>
      <point x="328" y="-175"/>
      <point x="328" y="-125" type="curve" smooth="yes"/>
      <point x="328" y="-67"/>
      <point x="362" y="-3"/>
      <point x="417" y="44" type="curve" smooth="yes"/>
      <point x="441" y="65"/>
      <point x="431" y="53"/>
      <point x="457" y="81" type="curve"/>
      <point x="453" y="90"/>
      <point x="448" y="97"/>
      <point x="442" y="104" type="curve"/>
      <point x="397" y="74"/>
      <point x="354" y="60"/>
      <point x="308" y="60" type="curve" smooth="yes"/>
      <point x="200" y="60"/>
      <point x="137" y="139"/>
      <point x="137" y="270" type="curve" smooth="yes"/>
      <point x="137" y="392"/>
      <point x="189" y="454"/>
      <point x="255" y="454" type="curve" smooth="yes"/>
      <point x="316" y="454"/>
      <point x="348" y="400"/>
      <point x="348" y="328" type="curve"/>
      <point x="348" y="327"/>
      <point x="348" y="321"/>
      <point x="347" y="318" type="curve"/>
      <point x="131" y="314" type="line"/>
      <point x="128" y="277" type="line"/>
      <point x="452" y="274" type="line"/>
      <point x="453" y="280"/>
      <point x="454" y="291"/>
      <point x="454" y="304" type="curve" smooth="yes"/>
      <point x="454" y="415"/>
      <point x="384" y="492"/>
      <point x="267" y="492" type="curve" smooth="yes"/>
      <point x="120" y="492"/>
      <point x="39" y="369"/>
      <point x="39" y="232" type="curve" smooth="yes"/>
      <point x="39" y="97"/>
      <point x="117" y="-12"/>
    </contour>
  </outline>
  <guideline angle="90" x="457" y="0"/>
</glyph>
<glyph name="Lslash" format="2">
  <advance width="618"/>
  <unicode hex="0141"/>
  <outline>
    <contour>
      <point x="433" y="435" type="line"/>
      <point x="428" y="450"/>
      <point x="423" y="463"/>
      <point x="415" y="475" type="curve"/>
      <point x="27" y="308" type="line"/>
      <point x="31" y="294"/>
      <point x="36" y="280"/>
      <point x="44" y="268" type="curve"/>
    </contour>
    <contour>
      <point x="37" y="-1" type="curve"/>
      <point x="77" y="-1"/>
      <point x="154" y="1"/>
      <point x="192" y="1" type="curve" smooth="yes"/>
      <point x="321" y="1"/>
      <point x="449" y="0"/>
      <point x="579" y="0" type="curve"/>
      <point x="585" y="44"/>
      <point x="595" y="109"/>
      <point x="611" y="191" type="curve"/>
      <point x="601" y="193"/>
      <point x="590" y="193"/>
      <point x="580" y="191" type="curve"/>
      <point x="556" y="137"/>
      <point x="532" y="99"/>
      <point x="511" y="79" type="curve" smooth="yes"/>
      <point x="484" y="54"/>
      <point x="444" y="42"/>
      <point x="388" y="42" type="curve" smooth="yes"/>
      <point x="246" y="42" type="line"/>
      <point x="244" y="51"/>
      <point x="244" y="79"/>
      <point x="244" y="124" type="curve" smooth="yes"/>
      <point x="244" y="589" type="line" smooth="yes"/>
      <point x="244" y="661"/>
      <point x="248" y="660"/>
      <point x="343" y="669" type="curve"/>
      <point x="345" y="680"/>
      <point x="345" y="691"/>
      <point x="343" y="701" type="curve"/>
      <point x="304" y="701"/>
      <point x="226" y="699"/>
      <point x="189" y="699" type="curve" smooth="yes"/>
      <point x="152" y="699"/>
      <point x="78" y="701"/>
      <point x="37" y="701" type="curve"/>
      <point x="36" y="690"/>
      <point x="36" y="679"/>
      <point x="37" y="669" type="curve"/>
      <point x="129" y="661"/>
      <point x="134" y="659"/>
      <point x="134" y="576" type="curve" smooth="yes"/>
      <point x="134" y="111" type="line" smooth="yes"/>
      <point x="134" y="40"/>
      <point x="130" y="40"/>
      <point x="37" y="31" type="curve"/>
      <point x="36" y="20"/>
      <point x="36" y="9"/>
    </contour>
  </outline>
  <guideline angle="90" x="27" y="0"/>
</glyph>
<glyph name="oe" format="2">
  <advance width="849"/>
  <unicode hex="0153"/>
  <outline>
    <contour>
      <point x="273" y="-12" type="curve" smooth="yes"/>
      <point x="352" y="-12"/>
      <point x="417" y="22"/>
      <point x="458" y="78" type="curve"/>
      <point x="444" y="79" type="line"/>
      <point x="480" y="23"/>
      <point x="538" y="-12"/>
      <point x="617" y="-12" type="curve" smooth="yes"/>
      <point x="690" y="-12"/>
      <point x="754" y="19"/>
      <point x="809" y="81" type="curve"/>
      <point x="805" y="90"/>
      <point x="800" y="97"/>
      <point x="794" y="104" type="curve"/>
      <point x="750" y="74"/>
      <point x="708" y="60"/>
      <point x="664" y="60" type="curve" smooth="yes"/>
      <point x="558" y="60"/>
      <point x="497" y="137"/>
      <point x="497" y="273" type="curve" smooth="yes"/>
      <point x="497" y="386"/>
      <point x="546" y="454"/>
      <point x="611" y="454" type="curve" smooth="yes"/>
      <point x="669" y="454"/>
      <point x="700" y="400"/>
      <point x="700" y="328" type="curve"/>
      <point x="700" y="327"/>
      <point x="700" y="321"/>
      <point x="699" y="318" type="curve"/>
      <point x="460" y="314" type="line"/>
      <point x="460" y="277" type="line"/>
      <point x="804" y="274" type="line"/>
      <point x="805" y="280"/>
      <point x="806" y="291"/>
      <point x="806" y="304" type="curve" smooth="yes"/>
      <point x="806" y="415"/>
      <point x="738" y="492"/>
      <point x="625" y="492" type="curve" smooth="yes"/>
      <point x="546" y="492"/>
      <point x="488" y="455"/>
      <point x="450" y="398" type="curve"/>
      <point x="464" y="398" type="line"/>
      <point x="424" y="456"/>
      <point x="360" y="492"/>
      <point x="282" y="492" type="curve" smooth="yes"/>
      <point x="138" y="492"/>
      <point x="39" y="389"/>
      <point x="39" y="234" type="curve" smooth="yes"/>
      <point x="39" y="89"/>
      <point x="131" y="-12"/>
    </contour>
    <contour>
      <point x="278" y="25" type="curve" smooth="yes"/>
      <point x="194" y="25"/>
      <point x="152" y="110"/>
      <point x="152" y="246" type="curve" smooth="yes"/>
      <point x="152" y="376"/>
      <point x="196" y="454"/>
      <point x="277" y="454" type="curve" smooth="yes"/>
      <point x="359" y="454"/>
      <point x="402" y="368"/>
      <point x="402" y="233" type="curve" smooth="yes"/>
      <point x="402" y="106"/>
      <point x="358" y="25"/>
    </contour>
  </outline>
  <guideline angle="90" x="-178" y="0"/>
  <guideline angle="90" x="-178" y="0"/>
</glyph>
<glyph name="halfringleft" format="2">
  <advance width="241"/>
  <unicode hex="02BF"/>
  <outline>
    <contour>
      <point x="181" y="470" type="line"/>
      <point x="136" y="470"/>
      <point x="100" y="505"/>
      <point x="100" y="565" type="curve" smooth="yes"/>
      <point x="100" y="624"/>
      <point x="134" y="659"/>
      <point x="181" y="659" type="curve"/>
      <point x="181" y="699" type="line"/>
      <point x="97" y="699"/>
      <point x="25" y="654"/>
      <point x="25" y="560" type="curve" smooth="yes"/>
      <point x="25" y="471"/>
      <point x="95" y="432"/>
      <point x="181" y="432" type="curve"/>
    </contour>
  </outline>
</glyph>
<glyph name="acutecomb" format="2">
  <unicode hex="0301"/>
  <outline>
    <contour>
      <point x="-163" y="746" type="line"/>
      <point x="-186" y="750"/>
      <point x="-210" y="752"/>
      <point x="-237" y="752" type="curve" smooth="yes"/>
      <point x="-257" y="752"/>
      <point x="-268" y="750"/>
      <point x="-271" y="747" type="curve"/>
      <point x="-320" y="551" type="line"/>
      <point x="-312" y="548"/>
      <point x="-298" y="547"/>
      <point x="-291" y="548" type="curve"/>
      <point x="-163" y="742" type="line"/>
    </contour>
  </outline>
</glyph>
<glyph name="circumflexcomb" format="2">
  <unicode hex="0302"/>
  <outline>
    <contour>
      <point x="-295" y="679" type="line"/>
      <point x="-253" y="638"/>
      <point x="-206" y="593"/>
      <point x="-155" y="548" type="curve"/>
      <point x="-145" y="550"/>
      <point x="-135" y="554"/>
      <point x="-126" y="561" type="curve"/>
      <point x="-164" y="616"/>
      <point x="-211" y="692"/>
      <point x="-242" y="748" type="curve"/>
      <point x="-255" y="751"/>
      <point x="-270" y="752"/>
      <point x="-286" y="752" type="curve" smooth="yes"/>
      <point x="-302" y="752"/>
      <point x="-317" y="751"/>
      <point x="-330" y="748" type="curve"/>
      <point x="-361" y="692"/>
      <point x="-408" y="616"/>
      <point x="-447" y="561" type="curve"/>
      <point x="-438" y="554"/>
      <point x="-427" y="550"/>
      <point x="-418" y="548" type="curve"/>
      <point x="-368" y="593"/>
      <point x="-321" y="638"/>
      <point x="-279" y="679" type="curve"/>
    </contour>
  </outline>
  <guideline angle="0" x="0" y="525"/>
  <guideline angle="0" x="0" y="735"/>
</glyph>
<glyph name="tildecomb" format="2">
  <unicode hex="0303"/>
  <outline>
    <contour>
      <point x="-138" y="726" type="curve"/>
      <point x="-154" y="686"/>
      <point x="-173" y="666"/>
      <point x="-197" y="666" type="curve" smooth="yes"/>
      <point x="-220" y="666"/>
      <point x="-245" y="683"/>
      <point x="-269" y="697" type="curve" smooth="yes"/>
      <point x="-296" y="713"/>
      <point x="-316" y="719"/>
      <point x="-333" y="719" type="curve" smooth="yes"/>
      <point x="-386" y="719"/>
      <point x="-428" y="672"/>
      <point x="-457" y="595" type="curve"/>
      <point x="-446" y="590"/>
      <point x="-435" y="586"/>
      <point x="-425" y="584" type="curve"/>
      <point x="-409" y="623"/>
      <point x="-389" y="642"/>
      <point x="-365" y="642" type="curve" smooth="yes"/>
      <point x="-340" y="642"/>
      <point x="-317" y="626"/>
      <point x="-293" y="612" type="curve" smooth="yes"/>
      <point x="-266" y="596"/>
      <point x="-246" y="590"/>
      <point x="-228" y="590" type="curve" smooth="yes"/>
      <point x="-175" y="590"/>
      <point x="-133" y="635"/>
      <point x="-106" y="715" type="curve"/>
      <point x="-116" y="719"/>
      <point x="-126" y="723"/>
    </contour>
  </outline>
</glyph>
<glyph name="brevecomb" format="2">
  <unicode hex="0306"/>
  <outline>
    <contour>
      <point x="-402" y="742" type="curve"/>
      <point x="-413" y="741"/>
      <point x="-423" y="739"/>
      <point x="-432" y="735" type="curve"/>
      <point x="-420" y="610"/>
      <point x="-371" y="542"/>
      <point x="-286" y="542" type="curve" smooth="yes"/>
      <point x="-201" y="542"/>
      <point x="-148" y="610"/>
      <point x="-137" y="735" type="curve"/>
      <point x="-146" y="739"/>
      <point x="-156" y="741"/>
      <point x="-167" y="742" type="curve"/>
      <point x="-178" y="662"/>
      <point x="-220" y="623"/>
      <point x="-285" y="623" type="curve" smooth="yes"/>
      <point x="-347" y="623"/>
      <point x="-388" y="657"/>
    </contour>
  </outline>
</glyph>
<glyph name="dieresiscomb" format="2">
  <unicode hex="0308"/>
  <outline>
    <contour>
      <point x="-450" y="664" type="curve" smooth="yes"/>
      <point x="-450" y="629"/>
      <point x="-425" y="601"/>
      <point x="-388" y="601" type="curve" smooth="yes"/>
      <point x="-351" y="601"/>
      <point x="-326" y="629"/>
      <point x="-326" y="664" type="curve" smooth="yes"/>
      <point x="-326" y="699"/>
      <point x="-351" y="726"/>
      <point x="-388" y="726" type="curve" smooth="yes"/>
      <point x="-425" y="726"/>
      <point x="-450" y="699"/>
    </contour>
    <contour>
      <point x="-247" y="664" type="curve" smooth="yes"/>
      <point x="-247" y="629"/>
      <point x="-222" y="601"/>
      <point x="-185" y="601" type="curve" smooth="yes"/>
      <point x="-148" y="601"/>
      <point x="-123" y="629"/>
      <point x="-123" y="664" type="curve" smooth="yes"/>
      <point x="-123" y="699"/>
      <point x="-148" y="726"/>
      <point x="-185" y="726" type="curve" smooth="yes"/>
      <point x="-222" y="726"/>
      <point x="-247" y="699"/>
    </contour>
  </outline>
</glyph>
<glyph name="ringcomb" format="2">
  <unicode hex="030A"/>
  <outline>
    <contour>
      <point x="-406" y="638" type="curve" smooth="yes"/>
      <point x="-406" y="572"/>
      <point x="-352" y="538"/>
      <point x="-286" y="538" type="curve" smooth="yes"/>
      <point x="-222" y="538"/>
      <point x="-166" y="578"/>
      <point x="-166" y="640" type="curve" smooth="yes"/>
      <point x="-166" y="708"/>
      <point x="-220" y="740"/>
      <point x="-286" y="740" type="curve" smooth="yes"/>
      <point x="-352" y="740"/>
      <point x="-406" y="704"/>
    </contour>
    <contour>
      <point x="-286" y="711" type="curve" smooth="yes"/>
      <point x="-251" y="711"/>
      <point x="-229" y="681"/>
      <point x="-229" y="638" type="curve" smooth="yes"/>
      <point x="-229" y="596"/>
      <point x="-250" y="569"/>
      <point x="-286" y="569" type="curve" smooth="yes"/>
      <point x="-322" y="569"/>
      <point x="-343" y="598"/>
      <point x="-343" y="640" type="curve" smooth="yes"/>
      <point x="-343" y="684"/>
      <point x="-322" y="711"/>
    </contour>
  </outline>
</glyph>
<glyph name="commaaccentcomb" format="2">
  <unicode hex="0326"/>
  <outline>
    <contour>
      <point x="-345" y="-236" type="curve"/>
      <point x="-284" y="-221"/>
      <point x="-257" y="-196"/>
      <point x="-257" y="-161" type="curve" smooth="yes"/>
      <point x="-257" y="-148"/>
      <point x="-259" y="-142"/>
      <point x="-266" y="-124" type="curve"/>
      <point x="-251" y="-128" type="line"/>
      <point x="-266" y="-144"/>
      <point x="-285" y="-152"/>
      <point x="-302" y="-152" type="curve" smooth="yes"/>
      <point x="-329" y="-152"/>
      <point x="-351" y="-133"/>
      <point x="-351" y="-101" type="curve" smooth="yes"/>
      <point x="-351" y="-66"/>
      <point x="-324" y="-44"/>
      <point x="-288" y="-44" type="curve" smooth="yes"/>
      <point x="-239" y="-44"/>
      <point x="-208" y="-82"/>
      <point x="-208" y="-137" type="curve" smooth="yes"/>
      <point x="-208" y="-205"/>
      <point x="-256" y="-250"/>
      <point x="-337" y="-267" type="curve"/>
      <point x="-341" y="-257"/>
      <point x="-344" y="-247"/>
    </contour>
  </outline>
</glyph>
<glyph name="brevebelowcomb" format="2">
  <unicode hex="032E"/>
  <outline>
    <contour>
      <point x="-286" y="-242" type="curve" smooth="yes"/>
      <point x="-201" y="-242"/>
      <point x="-148" y="-180"/>
      <point x="-137" y="-55" type="curve"/>
      <point x="-146" y="-51"/>
      <point x="-156" y="-49"/>
      <point x="-167" y="-48" type="curve"/>
      <point x="-178" y="-128"/>
      <point x="-220" y="-162"/>
      <point x="-286" y="-162" type="curve" smooth="yes"/>
      <point x="-347" y="-162"/>
      <point x="-388" y="-132"/>
      <point x="-402" y="-48" type="curve"/>
      <point x="-413" y="-49"/>
      <point x="-423" y="-51"/>
      <point x="-432" y="-55" type="curve"/>
      <point x="-420" y="-180"/>
      <point x="-371" y="-242"/>
    </contour>
  </outline>
</glyph>
<glyph name="Germandbls" format="2">
  <advance width="743"/>
  <unicode hex="1E9E"/>
  <outline>
    <contour>
      <point x="488" y="369" type="line"/>
      <point x="663" y="649" type="line"/>
      <point x="662" y="657"/>
      <point x="660" y="664"/>
      <point x="657" y="670" type="curve"/>
      <point x="546" y="665" type="line"/>
      <point x="373" y="378" type="line"/>
      <point x="373" y="371"/>
      <point x="374" y="365"/>
      <point x="377" y="358" type="curve"/>
    </contour>
    <contour>
      <point x="377" y="358" type="line"/>
      <point x="496" y="311"/>
      <point x="603" y="262"/>
      <point x="603" y="154" type="curve" smooth="yes"/>
      <point x="603" y="78"/>
      <point x="549" y="25"/>
      <point x="472" y="25" type="curve" smooth="yes"/>
      <point x="389" y="25"/>
      <point x="337" y="87"/>
      <point x="315" y="196" type="curve"/>
      <point x="305" y="196"/>
      <point x="295" y="196"/>
      <point x="285" y="195" type="curve"/>
      <point x="289" y="122"/>
      <point x="291" y="60"/>
      <point x="292" y="7" type="curve"/>
      <point x="310" y="7"/>
      <point x="335" y="3"/>
      <point x="378" y="-4" type="curve" smooth="yes"/>
      <point x="429" y="-12"/>
      <point x="444" y="-14"/>
      <point x="466" y="-14" type="curve" smooth="yes"/>
      <point x="609" y="-14"/>
      <point x="701" y="73"/>
      <point x="701" y="194" type="curve" smooth="yes"/>
      <point x="701" y="331"/>
      <point x="584" y="383"/>
      <point x="487" y="424" type="curve"/>
    </contour>
    <contour>
      <point x="657" y="670" type="line"/>
      <point x="603" y="692"/>
      <point x="534" y="711"/>
      <point x="436" y="711" type="curve" smooth="yes"/>
      <point x="252" y="711"/>
      <point x="113" y="645"/>
      <point x="113" y="444" type="curve" smooth="yes"/>
      <point x="113" y="123" type="line" smooth="yes"/>
      <point x="113" y="40"/>
      <point x="108" y="39"/>
      <point x="14" y="31" type="curve"/>
      <point x="12" y="20"/>
      <point x="12" y="9"/>
      <point x="14" y="-1" type="curve"/>
      <point x="53" y="-1"/>
      <point x="130" y="1"/>
      <point x="161" y="1" type="curve" smooth="yes"/>
      <point x="183" y="1"/>
      <point x="209" y="0"/>
      <point x="221" y="0" type="curve"/>
      <point x="223" y="11"/>
      <point x="223" y="25"/>
      <point x="223" y="38" type="curve" smooth="yes"/>
      <point x="223" y="437" type="line" smooth="yes"/>
      <point x="223" y="616"/>
      <point x="338" y="664"/>
      <point x="456" y="664" type="curve" smooth="yes"/>
      <point x="519" y="664"/>
      <point x="578" y="650"/>
      <point x="626" y="630" type="curve"/>
    </contour>
  </outline>
</glyph>
<glyph name="emdash" format="2">
  <advance width="1000"/>
  <unicode hex="2014"/>
  <outline>
    <contour>
      <point x="984" y="223" type="line"/>
      <point x="985" y="242"/>
      <point x="985" y="261"/>
      <point x="984" y="281" type="curve"/>
      <point x="17" y="281" type="line"/>
      <point x="15" y="262"/>
      <point x="15" y="242"/>
      <point x="17" y="223" type="curve"/>
    </contour>
  </outline>
</glyph>
<glyph name="quoteleft" format="2">
  <advance width="222"/>
  <unicode hex="2018"/>
  <outline>
    <contour>
      <point x="103" y="526" type="line"/>
      <point x="91" y="544"/>
      <point x="88" y="560"/>
      <point x="88" y="576" type="curve" smooth="yes"/>
      <point x="88" y="629"/>
      <point x="138" y="674"/>
      <point x="184" y="694" type="curve"/>
      <point x="168" y="723" type="line"/>
      <point x="75" y="684"/>
      <point x="30" y="614"/>
      <point x="30" y="535" type="curve" smooth="yes"/>
      <point x="30" y="479"/>
      <point x="61" y="428"/>
      <point x="118" y="428" type="curve" smooth="yes"/>
      <point x="159" y="428"/>
      <point x="187" y="457"/>
      <point x="187" y="494" type="curve" smooth="yes"/>
      <point x="187" y="528"/>
      <point x="158" y="550"/>
      <point x="129" y="550" type="curve" smooth="yes"/>
      <point x="113" y="550"/>
      <point x="99" y="545"/>
      <point x="86" y="529" type="curve"/>
    </contour>
  </outline>
</glyph>
<glyph name="daggerdbl" format="2">
  <advance width="557"/>
  <unicode hex="2021"/>
  <outline>
    <contour>
      <point x="279" y="-183" type="curve" smooth="yes"/>
      <point x="307" y="-183"/>
      <point x="333" y="-166"/>
      <point x="333" y="-129" type="curve" smooth="yes"/>
      <point x="333" y="-113"/>
      <point x="296" y="-10"/>
      <point x="296" y="101" type="curve" smooth="yes"/>
      <point x="296" y="179"/>
      <point x="334" y="252"/>
      <point x="334" y="263" type="curve" smooth="yes"/>
      <point x="334" y="275"/>
      <point x="296" y="346"/>
      <point x="296" y="430" type="curve" smooth="yes"/>
      <point x="296" y="536"/>
      <point x="333" y="640"/>
      <point x="333" y="656" type="curve" smooth="yes"/>
      <point x="333" y="692"/>
      <point x="307" y="711"/>
      <point x="279" y="711" type="curve" smooth="yes"/>
      <point x="250" y="711"/>
      <point x="223" y="692"/>
      <point x="223" y="656" type="curve" smooth="yes"/>
      <point x="223" y="640"/>
      <point x="262" y="536"/>
      <point x="262" y="430" type="curve" smooth="yes"/>
      <point x="262" y="346"/>
      <point x="222" y="275"/>
      <point x="222" y="263" type="curve" smooth="yes"/>
      <point x="222" y="252"/>
      <point x="262" y="179"/>
      <point x="262" y="101" type="curve" smooth="yes"/>
      <point x="262" y="-10"/>
      <point x="223" y="-113"/>
      <point x="223" y="-129" type="curve" smooth="yes"/>
      <point x="223" y="-166"/>
      <point x="250" y="-183"/>
    </contour>
    <contour>
      <point x="94" y="52" type="curve" smooth="yes"/>
      <point x="111" y="52"/>
      <point x="185" y="84"/>
      <point x="279" y="84" type="curve" smooth="yes"/>
      <point x="370" y="84"/>
      <point x="445" y="52"/>
      <point x="463" y="52" type="curve" smooth="yes"/>
      <point x="495" y="52"/>
      <point x="512" y="75"/>
      <point x="512" y="100" type="curve" smooth="yes"/>
      <point x="512" y="124"/>
      <point x="495" y="147"/>
      <point x="463" y="147" type="curve" smooth="yes"/>
      <point x="441" y="147"/>
      <point x="377" y="111"/>
      <point x="279" y="111" type="curve" smooth="yes"/>
      <point x="184" y="111"/>
      <point x="111" y="147"/>
      <point x="94" y="147" type="curve" smooth="yes"/>
      <point x="62" y="147"/>
      <point x="45" y="124"/>
      <point x="45" y="100" type="curve" smooth="yes"/>
      <point x="45" y="75"/>
      <point x="62" y="52"/>
    </contour>
    <contour>
      <point x="94" y="380" type="curve" smooth="yes"/>
      <point x="111" y="380"/>
      <point x="185" y="416"/>
      <point x="279" y="416" type="curve" smooth="yes"/>
      <point x="370" y="416"/>
      <point x="445" y="380"/>
      <point x="463" y="380" type="curve" smooth="yes"/>
      <point x="495" y="380"/>
      <point x="512" y="403"/>
      <point x="512" y="428" type="curve" smooth="yes"/>
      <point x="512" y="452"/>
      <point x="495" y="475"/>
      <point x="463" y="475" type="curve" smooth="yes"/>
      <point x="441" y="475"/>
      <point x="377" y="443"/>
      <point x="279" y="443" type="curve" smooth="yes"/>
      <point x="184" y="443"/>
      <point x="111" y="475"/>
      <point x="94" y="475" type="curve" smooth="yes"/>
      <point x="62" y="475"/>
      <point x="45" y="452"/>
      <point x="45" y="428" type="curve" smooth="yes"/>
      <point x="45" y="403"/>
      <point x="62" y="380"/>
    </contour>
  </outline>
  <guideline angle="90" x="39" y="0"/>
</glyph>
<glyph name="bullet" format="2">
  <advance width="523"/>
  <unicode hex="2022"/>
  <outline>
    <contour>
      <point x="100" y="369" type="curve" smooth="yes"/>
      <point x="100" y="279"/>
      <point x="171" y="208"/>
      <point x="261" y="208" type="curve" smooth="yes"/>
      <point x="351" y="208"/>
      <point x="423" y="279"/>
      <point x="423" y="369" type="curve" smooth="yes"/>
      <point x="423" y="459"/>
      <point x="351" y="531"/>
      <point x="261" y="531" type="curve" smooth="yes"/>
      <point x="171" y="531"/>
      <point x="100" y="459"/>
    </contour>
  </outline>
</glyph>
<glyph name="minute" format="2">
  <advance width="225"/>
  <unicode hex="2032"/>
  <outline>
    <contour>
      <point x="183" y="638" type="line" smooth="yes"/>
      <point x="190" y="657"/>
      <point x="195" y="671"/>
      <point x="195" y="676" type="curve" smooth="yes"/>
      <point x="195" y="696"/>
      <point x="169" y="711"/>
      <point x="140" y="711" type="curve" smooth="yes"/>
      <point x="116" y="711"/>
      <point x="85" y="697"/>
      <point x="84" y="678" type="curve" smooth="yes"/>
      <point x="70" y="418" type="line"/>
      <point x="100" y="418" type="line"/>
    </contour>
  </outline>
  <guideline angle="79.01" x="-48" y="0"/>
  <guideline angle="79.0044" x="64" y="0"/>
</glyph>
<glyph name="zerosuperior" format="2">
  <advance width="443"/>
  <unicode hex="2070"/>
  <outline>
    <contour>
      <point x="403" y="559" type="curve" smooth="yes"/>
      <point x="403" y="680"/>
      <point x="353" y="788"/>
      <point x="226" y="788" type="curve" smooth="yes"/>
      <point x="96" y="788"/>
      <point x="40" y="676"/>
      <point x="40" y="552" type="curve" smooth="yes"/>
      <point x="40" y="423"/>
      <point x="103" y="324"/>
      <point x="220" y="324" type="curve" smooth="yes"/>
      <point x="339" y="324"/>
      <point x="403" y="424"/>
    </contour>
    <contour>
      <point x="219" y="754" type="curve" smooth="yes"/>
      <point x="293" y="754"/>
      <point x="316" y="650"/>
      <point x="316" y="550" type="curve" smooth="yes"/>
      <point x="316" y="447"/>
      <point x="293" y="358"/>
      <point x="225" y="358" type="curve" smooth="yes"/>
      <point x="151" y="358"/>
      <point x="128" y="466"/>
      <point x="128" y="565" type="curve" smooth="yes"/>
      <point x="128" y="664"/>
      <point x="151" y="754"/>
    </contour>
  </outline>
</glyph>
<glyph name="foursuperior" format="2">
  <advance width="433"/>
  <unicode hex="2074"/>
  <outline>
    <contour>
      <point x="274" y="332" type="curve" smooth="yes"/>
      <point x="289" y="332"/>
      <point x="303" y="332"/>
      <point x="316" y="333" type="curve"/>
      <point x="316" y="713" type="line" smooth="yes"/>
      <point x="316" y="728"/>
      <point x="316" y="744"/>
      <point x="318" y="782" type="curve"/>
      <point x="299" y="786"/>
      <point x="276" y="788"/>
      <point x="254" y="788" type="curve"/>
      <point x="174" y="686"/>
      <point x="97" y="593"/>
      <point x="21" y="488" type="curve"/>
      <point x="21" y="475"/>
      <point x="22" y="453"/>
      <point x="24" y="440" type="curve"/>
      <point x="406" y="440" type="line"/>
      <point x="408" y="461"/>
      <point x="410" y="483"/>
      <point x="410" y="507" type="curve"/>
      <point x="78" y="507" type="line"/>
      <point x="128" y="573"/>
      <point x="179" y="637"/>
      <point x="233" y="703" type="curve"/>
      <point x="233" y="333" type="line"/>
      <point x="245" y="332"/>
      <point x="262" y="332"/>
    </contour>
  </outline>
</glyph>
<glyph name="Euro" format="2">
  <advance width="562"/>
  <unicode hex="20AC"/>
  <outline>
    <contour>
      <point x="334" y="-12" type="curve" smooth="yes"/>
      <point x="403" y="-12"/>
      <point x="468" y="15"/>
      <point x="527" y="58" type="curve"/>
      <point x="524" y="66"/>
      <point x="518" y="78"/>
      <point x="512" y="85" type="curve"/>
      <point x="461" y="59"/>
      <point x="417" y="48"/>
      <point x="379" y="48" type="curve" smooth="yes"/>
      <point x="253" y="48"/>
      <point x="192" y="175"/>
      <point x="192" y="318" type="curve" smooth="yes"/>
      <point x="192" y="470"/>
      <point x="248" y="591"/>
      <point x="349" y="591" type="curve" smooth="yes"/>
      <point x="375" y="591"/>
      <point x="394" y="584"/>
      <point x="416" y="568" type="curve"/>
      <point x="406" y="591" type="line"/>
      <point x="399" y="526"/>
      <point x="434" y="484"/>
      <point x="474" y="484" type="curve" smooth="yes"/>
      <point x="503" y="484"/>
      <point x="521" y="506"/>
      <point x="521" y="532" type="curve" smooth="yes"/>
      <point x="521" y="575"/>
      <point x="472" y="630"/>
      <point x="359" y="630" type="curve" smooth="yes"/>
      <point x="178" y="630"/>
      <point x="92" y="487"/>
      <point x="92" y="288" type="curve" smooth="yes"/>
      <point x="92" y="127"/>
      <point x="178" y="-12"/>
    </contour>
    <contour>
      <point x="389" y="219" type="line"/>
      <point x="399" y="263" type="line"/>
      <point x="36" y="263" type="line"/>
      <point x="25" y="219" type="line"/>
    </contour>
    <contour>
      <point x="416" y="333" type="line"/>
      <point x="426" y="377" type="line"/>
      <point x="36" y="377" type="line"/>
      <point x="25" y="333" type="line"/>
    </contour>
  </outline>
  <guideline angle="76.4393" x="330" y="0"/>
</glyph>
<glyph name="rupee" format="2">
  <advance width="500"/>
  <unicode hex="20B9"/>
  <outline>
    <contour>
      <point x="468" y="-1" type="curve"/>
      <point x="470" y="8"/>
      <point x="470" y="23"/>
      <point x="468" y="31" type="curve"/>
      <point x="393" y="39"/>
      <point x="378" y="40"/>
      <point x="324" y="126" type="curve" smooth="yes"/>
      <point x="253" y="240" type="line" smooth="yes"/>
      <point x="236" y="267"/>
      <point x="222" y="279"/>
      <point x="211" y="287" type="curve"/>
      <point x="211" y="305" type="line"/>
      <point x="93" y="279" type="line"/>
      <point x="112" y="279"/>
      <point x="122" y="272"/>
      <point x="145" y="235" type="curve" smooth="yes"/>
      <point x="292" y="0" type="line"/>
      <point x="310" y="0"/>
      <point x="324" y="1"/>
      <point x="343" y="1" type="curve" smooth="yes"/>
      <point x="371" y="1"/>
      <point x="434" y="-1"/>
    </contour>
    <contour>
      <point x="445" y="427" type="line"/>
      <point x="445" y="471" type="line"/>
      <point x="65" y="471" type="line"/>
      <point x="65" y="427" type="line"/>
    </contour>
    <contour>
      <point x="93" y="279" type="line"/>
      <point x="147" y="279" type="line"/>
      <point x="281" y="292"/>
      <point x="379" y="344"/>
      <point x="379" y="458" type="curve" smooth="yes"/>
      <point x="379" y="513"/>
      <point x="362" y="550"/>
      <point x="324" y="574" type="curve"/>
      <point x="342" y="609" type="line"/>
      <point x="165" y="576" type="line"/>
      <point x="232" y="576"/>
      <point x="273" y="539"/>
      <point x="273" y="454" type="curve" smooth="yes"/>
      <point x="273" y="375"/>
      <point x="234" y="323"/>
      <point x="145" y="323" type="curve" smooth="yes"/>
      <point x="65" y="323" type="line"/>
      <point x="65" y="279" type="line"/>
    </contour>
    <contour>
      <point x="437" y="576" type="line"/>
      <point x="437" y="620" type="line"/>
      <point x="65" y="620" type="line"/>
      <point x="65" y="576" type="line"/>
    </contour>
  </outline>
  <guideline angle="0" x="0" y="449"/>
  <guideline angle="95.0291" x="492" y="0"/>
  <guideline angle="90" x="80" y="0"/>
</glyph>
<glyph name="trademark" format="2">
  <advance width="861"/>
  <unicode hex="2122"/>
  <outline>
    <contour>
      <point x="713" y="698" type="line"/>
      <point x="683" y="698" type="line"/>
      <point x="589" y="465" type="line"/>
      <point x="498" y="698" type="line"/>
      <point x="447" y="698" type="line"/>
      <point x="436" y="682" type="line"/>
      <point x="554" y="378" type="line"/>
      <point x="562" y="378"/>
      <point x="579" y="379"/>
      <point x="587" y="381" type="curve"/>
    </contour>
    <contour>
      <point x="103" y="383" type="curve"/>
      <point x="127" y="383"/>
      <point x="154" y="384"/>
      <point x="189" y="384" type="curve" smooth="yes"/>
      <point x="216" y="384"/>
      <point x="255" y="383"/>
      <point x="276" y="383" type="curve"/>
      <point x="277" y="390"/>
      <point x="277" y="399"/>
      <point x="276" y="405" type="curve"/>
      <point x="222" y="409"/>
      <point x="221" y="410"/>
      <point x="221" y="455" type="curve" smooth="yes"/>
      <point x="221" y="683" type="line"/>
      <point x="158" y="683" type="line"/>
      <point x="158" y="448" type="line" smooth="yes"/>
      <point x="158" y="409"/>
      <point x="155" y="409"/>
      <point x="103" y="404" type="curve"/>
      <point x="102" y="398"/>
      <point x="102" y="389"/>
    </contour>
    <contour>
      <point x="30" y="601" type="curve"/>
      <point x="36" y="600"/>
      <point x="44" y="600"/>
      <point x="50" y="601" type="curve"/>
      <point x="59" y="625"/>
      <point x="66" y="643"/>
      <point x="77" y="654" type="curve"/>
      <point x="88" y="667"/>
      <point x="106" y="671"/>
      <point x="131" y="671" type="curve" smooth="yes"/>
      <point x="248" y="671" type="line" smooth="yes"/>
      <point x="274" y="671"/>
      <point x="290" y="667"/>
      <point x="302" y="654" type="curve"/>
      <point x="314" y="642"/>
      <point x="321" y="625"/>
      <point x="330" y="601" type="curve"/>
      <point x="336" y="600"/>
      <point x="344" y="600"/>
      <point x="350" y="601" type="curve"/>
      <point x="346" y="635"/>
      <point x="343" y="669"/>
      <point x="341" y="700" type="curve"/>
      <point x="318" y="698"/>
      <point x="292" y="697"/>
      <point x="190" y="697" type="curve" smooth="yes"/>
      <point x="91" y="697"/>
      <point x="65" y="698"/>
      <point x="41" y="699" type="curve"/>
      <point x="39" y="669"/>
      <point x="34" y="635"/>
    </contour>
    <contour>
      <point x="447" y="698" type="line"/>
      <point x="422" y="698"/>
      <point x="389" y="699"/>
      <point x="365" y="699" type="curve"/>
      <point x="364" y="693"/>
      <point x="364" y="684"/>
      <point x="365" y="677" type="curve"/>
      <point x="415" y="672"/>
      <point x="419" y="672"/>
      <point x="417" y="633" type="curve" smooth="yes"/>
      <point x="409" y="455" type="line" smooth="yes"/>
      <point x="407" y="411"/>
      <point x="406" y="412"/>
      <point x="356" y="405" type="curve"/>
      <point x="355" y="398"/>
      <point x="355" y="389"/>
      <point x="356" y="383" type="curve"/>
      <point x="379" y="383"/>
      <point x="406" y="384"/>
      <point x="423" y="384" type="curve" smooth="yes"/>
      <point x="441" y="384"/>
      <point x="467" y="383"/>
      <point x="490" y="383" type="curve"/>
      <point x="491" y="389"/>
      <point x="491" y="398"/>
      <point x="490" y="404" type="curve"/>
      <point x="438" y="411"/>
      <point x="438" y="413"/>
      <point x="439" y="448" type="curve" smooth="yes"/>
      <point x="447" y="682" type="line"/>
    </contour>
    <contour>
      <point x="701" y="685" type="line"/>
      <point x="705" y="448" type="line" smooth="yes"/>
      <point x="706" y="410"/>
      <point x="703" y="410"/>
      <point x="654" y="404" type="curve"/>
      <point x="653" y="398"/>
      <point x="653" y="389"/>
      <point x="654" y="383" type="curve"/>
      <point x="677" y="383"/>
      <point x="706" y="384"/>
      <point x="738" y="384" type="curve" smooth="yes"/>
      <point x="765" y="384"/>
      <point x="805" y="383"/>
      <point x="820" y="383" type="curve"/>
      <point x="821" y="390"/>
      <point x="821" y="399"/>
      <point x="820" y="405" type="curve"/>
      <point x="767" y="409"/>
      <point x="768" y="410"/>
      <point x="767" y="455" type="curve" smooth="yes"/>
      <point x="763" y="633" type="line" smooth="yes"/>
      <point x="762" y="671"/>
      <point x="765" y="673"/>
      <point x="817" y="677" type="curve"/>
      <point x="818" y="683"/>
      <point x="818" y="692"/>
      <point x="817" y="699" type="curve"/>
      <point x="780" y="699"/>
      <point x="722" y="697"/>
      <point x="713" y="698" type="curve"/>
    </contour>
  </outline>
</glyph>
<glyph name="D.sc" format="2">
  <advance width="641"/>
  <outline>
    <contour>
      <point x="173" y="548" type="curve" smooth="yes"/>
      <point x="138" y="548"/>
      <point x="69" y="550"/>
      <point x="30" y="550" type="curve"/>
      <point x="28" y="539"/>
      <point x="28" y="529"/>
      <point x="30" y="519" type="curve"/>
      <point x="115" y="511"/>
      <point x="119" y="509"/>
      <point x="119" y="429" type="curve" smooth="yes"/>
      <point x="119" y="108" type="line" smooth="yes"/>
      <point x="119" y="39"/>
      <point x="116" y="39"/>
      <point x="30" y="30" type="curve"/>
      <point x="28" y="19"/>
      <point x="28" y="9"/>
      <point x="30" y="-1" type="curve"/>
      <point x="66" y="-1"/>
      <point x="143" y="1"/>
      <point x="172" y="1" type="curve" smooth="yes"/>
      <point x="200" y="1"/>
      <point x="256" y="-1"/>
      <point x="279" y="-1" type="curve" smooth="yes"/>
      <point x="471" y="-1"/>
      <point x="596" y="129"/>
      <point x="596" y="303" type="curve" smooth="yes"/>
      <point x="596" y="465"/>
      <point x="487" y="550"/>
      <point x="282" y="550" type="curve" smooth="yes"/>
      <point x="251" y="550"/>
      <point x="207" y="548"/>
    </contour>
    <contour>
      <point x="220" y="508" type="line"/>
      <point x="229" y="508"/>
      <point x="256" y="510"/>
      <point x="277" y="510" type="curve" smooth="yes"/>
      <point x="415" y="510"/>
      <point x="485" y="425"/>
      <point x="485" y="287" type="curve" smooth="yes"/>
      <point x="485" y="157"/>
      <point x="422" y="39"/>
      <point x="288" y="39" type="curve" smooth="yes"/>
      <point x="271" y="39"/>
      <point x="244" y="41"/>
      <point x="221" y="46" type="curve"/>
      <point x="220" y="61"/>
      <point x="220" y="86"/>
      <point x="220" y="120" type="curve" smooth="yes"/>
    </contour>
  </outline>
</glyph>
<glyph name="E.sc" format="2">
  <advance width="536"/>
  <outline>
    <contour>
      <point x="30" y="30" type="curve"/>
      <point x="28" y="19"/>
      <point x="28" y="9"/>
      <point x="30" y="-1" type="curve"/>
      <point x="79" y="-1"/>
      <point x="107" y="1"/>
      <point x="194" y="1" type="curve" smooth="yes"/>
      <point x="244" y="1"/>
      <point x="393" y="0"/>
      <point x="481" y="0" type="curve"/>
      <point x="487" y="42"/>
      <point x="495" y="97"/>
      <point x="508" y="167" type="curve"/>
      <point x="499" y="168"/>
      <point x="487" y="168"/>
      <point x="478" y="167" type="curve"/>
      <point x="460" y="123"/>
      <point x="438" y="88"/>
      <point x="424" y="73" type="curve"/>
      <point x="401" y="50"/>
      <point x="369" y="42"/>
      <point x="307" y="42" type="curve" smooth="yes"/>
      <point x="222" y="42" type="line"/>
      <point x="220" y="49"/>
      <point x="220" y="77"/>
      <point x="220" y="120" type="curve" smooth="yes"/>
      <point x="220" y="508" type="line"/>
      <point x="303" y="508" type="line" smooth="yes"/>
      <point x="350" y="508"/>
      <point x="382" y="501"/>
      <point x="404" y="482" type="curve" smooth="yes"/>
      <point x="420" y="468"/>
      <point x="438" y="439"/>
      <point x="450" y="402" type="curve"/>
      <point x="459" y="401"/>
      <point x="472" y="401"/>
      <point x="482" y="402" type="curve"/>
      <point x="474" y="456"/>
      <point x="466" y="505"/>
      <point x="462" y="550" type="curve"/>
      <point x="449" y="550"/>
      <point x="332" y="548"/>
      <point x="218" y="548" type="curve" smooth="yes"/>
      <point x="111" y="548"/>
      <point x="94" y="550"/>
      <point x="30" y="550" type="curve"/>
      <point x="28" y="539"/>
      <point x="28" y="529"/>
      <point x="30" y="519" type="curve"/>
      <point x="115" y="511"/>
      <point x="119" y="509"/>
      <point x="119" y="429" type="curve" smooth="yes"/>
      <point x="119" y="108" type="line" smooth="yes"/>
      <point x="119" y="39"/>
      <point x="116" y="39"/>
    </contour>
    <contour>
      <point x="350" y="168" type="curve"/>
      <point x="361" y="166"/>
      <point x="373" y="166"/>
      <point x="383" y="168" type="curve"/>
      <point x="382" y="212"/>
      <point x="381" y="245"/>
      <point x="381" y="284" type="curve" smooth="yes"/>
      <point x="381" y="300"/>
      <point x="381" y="320"/>
      <point x="383" y="398" type="curve"/>
      <point x="373" y="400"/>
      <point x="360" y="400"/>
      <point x="350" y="398" type="curve"/>
      <point x="337" y="314"/>
      <point x="325" y="306"/>
      <point x="238" y="306" type="curve" smooth="yes"/>
      <point x="203" y="306" type="line"/>
      <point x="203" y="263" type="line"/>
      <point x="246" y="263" type="line" smooth="yes"/>
      <point x="325" y="263"/>
      <point x="338" y="259"/>
    </contour>
  </outline>
  <guideline angle="90" x="-164" y="0"/>
</glyph>
<glyph name="F.sc" format="2">
  <advance width="518"/>
  <outline>
    <contour>
      <point x="28" y="-1" type="curve"/>
      <point x="67" y="-1"/>
      <point x="133" y="1"/>
      <point x="169" y="1" type="curve" smooth="yes"/>
      <point x="205" y="1"/>
      <point x="277" y="-1"/>
      <point x="316" y="-1" type="curve"/>
      <point x="318" y="9"/>
      <point x="318" y="19"/>
      <point x="316" y="30" type="curve"/>
      <point x="268" y="34"/>
      <point x="245" y="36"/>
      <point x="233" y="47" type="curve"/>
      <point x="220" y="60"/>
      <point x="220" y="79"/>
      <point x="220" y="120" type="curve" smooth="yes"/>
      <point x="220" y="508" type="line"/>
      <point x="325" y="508" type="line" smooth="yes"/>
      <point x="367" y="508"/>
      <point x="395" y="500"/>
      <point x="418" y="480" type="curve" smooth="yes"/>
      <point x="437" y="464"/>
      <point x="458" y="435"/>
      <point x="473" y="395" type="curve"/>
      <point x="482" y="393"/>
      <point x="494" y="394"/>
      <point x="505" y="395" type="curve"/>
      <point x="496" y="452"/>
      <point x="488" y="503"/>
      <point x="483" y="550" type="curve"/>
      <point x="479" y="550"/>
      <point x="330" y="548"/>
      <point x="208" y="548" type="curve" smooth="yes"/>
      <point x="97" y="548"/>
      <point x="89" y="550"/>
      <point x="30" y="550" type="curve"/>
      <point x="28" y="539"/>
      <point x="28" y="529"/>
      <point x="30" y="519" type="curve"/>
      <point x="115" y="511"/>
      <point x="119" y="509"/>
      <point x="119" y="429" type="curve" smooth="yes"/>
      <point x="119" y="108" type="line" smooth="yes"/>
      <point x="119" y="38"/>
      <point x="116" y="39"/>
      <point x="28" y="30" type="curve"/>
      <point x="27" y="19"/>
      <point x="27" y="9"/>
    </contour>
    <contour>
      <point x="358" y="154" type="curve"/>
      <point x="369" y="152"/>
      <point x="381" y="152"/>
      <point x="391" y="154" type="curve"/>
      <point x="390" y="199"/>
      <point x="389" y="232"/>
      <point x="389" y="272" type="curve" smooth="yes"/>
      <point x="389" y="288"/>
      <point x="389" y="309"/>
      <point x="391" y="388" type="curve"/>
      <point x="381" y="390"/>
      <point x="368" y="390"/>
      <point x="358" y="388" type="curve"/>
      <point x="345" y="302"/>
      <point x="333" y="294"/>
      <point x="246" y="294" type="curve" smooth="yes"/>
      <point x="211" y="294" type="line"/>
      <point x="211" y="252" type="line"/>
      <point x="254" y="252" type="line" smooth="yes"/>
      <point x="333" y="252"/>
      <point x="346" y="247"/>
    </contour>
  </outline>
</glyph>
<glyph name="G_macronbelowcomb_H_macronbelowcomb" format="2">
  <advance width="1628"/>
  <outline>
    <contour>
      <point x="253" y="-103" type="line"/>
      <point x="251" y="-119"/>
      <point x="251" y="-137"/>
      <point x="253" y="-153" type="curve"/>
      <point x="1369" y="-153" type="line"/>
      <point x="1371" y="-137"/>
      <point x="1371" y="-119"/>
      <point x="1369" y="-103" type="curve"/>
    </contour>
    <contour>
      <point x="424" y="-15" type="curve" smooth="yes"/>
      <point x="503" y="-15"/>
      <point x="592" y="1"/>
      <point x="684" y="32" type="curve"/>
      <point x="584" y="57" type="line"/>
      <point x="539" y="37"/>
      <point x="484" y="28"/>
      <point x="442" y="28" type="curve" smooth="yes"/>
      <point x="261" y="28"/>
      <point x="175" y="162"/>
      <point x="175" y="352" type="curve" smooth="yes"/>
      <point x="175" y="524"/>
      <point x="245" y="671"/>
      <point x="433" y="671" type="curve" smooth="yes"/>
      <point x="550" y="671"/>
      <point x="620" y="613"/>
      <point x="647" y="490" type="curve"/>
      <point x="657" y="489"/>
      <point x="670" y="490"/>
      <point x="682" y="492" type="curve"/>
      <point x="677" y="560"/>
      <point x="674" y="622"/>
      <point x="672" y="681" type="curve"/>
      <point x="664" y="679"/>
      <point x="656" y="678"/>
      <point x="648" y="678" type="curve" smooth="yes"/>
      <point x="627" y="678"/>
      <point x="606" y="684"/>
      <point x="581" y="691" type="curve" smooth="yes"/>
      <point x="539" y="703"/>
      <point x="476" y="711"/>
      <point x="426" y="711" type="curve" smooth="yes"/>
      <point x="197" y="711"/>
      <point x="50" y="565"/>
      <point x="50" y="341" type="curve" smooth="yes"/>
      <point x="50" y="116"/>
      <point x="198" y="-15"/>
    </contour>
    <contour>
      <point x="684" y="32" type="line"/>
      <point x="681" y="50"/>
      <point x="677" y="94"/>
      <point x="677" y="157" type="curve" smooth="yes"/>
      <point x="677" y="189" type="line" smooth="yes"/>
      <point x="677" y="261"/>
      <point x="680" y="260"/>
      <point x="762" y="270" type="curve"/>
      <point x="763" y="280"/>
      <point x="763" y="291"/>
      <point x="762" y="301" type="curve"/>
      <point x="723" y="301"/>
      <point x="662" y="299"/>
      <point x="621" y="299" type="curve" smooth="yes"/>
      <point x="580" y="299"/>
      <point x="501" y="301"/>
      <point x="459" y="301" type="curve"/>
      <point x="457" y="291"/>
      <point x="457" y="279"/>
      <point x="459" y="269" type="curve"/>
      <point x="564" y="261"/>
      <point x="569" y="260"/>
      <point x="569" y="177" type="curve" smooth="yes"/>
      <point x="569" y="35" type="line"/>
    </contour>
    <contour>
      <point x="820" y="-1" type="curve"/>
      <point x="860" y="-1"/>
      <point x="935" y="1"/>
      <point x="972" y="1" type="curve" smooth="yes"/>
      <point x="1009" y="1"/>
      <point x="1086" y="-1"/>
      <point x="1126" y="-1" type="curve"/>
      <point x="1127" y="9"/>
      <point x="1127" y="20"/>
      <point x="1126" y="31" type="curve"/>
      <point x="1032" y="39"/>
      <point x="1028" y="40"/>
      <point x="1028" y="124" type="curve" smooth="yes"/>
      <point x="1028" y="589" type="line" smooth="yes"/>
      <point x="1028" y="659"/>
      <point x="1033" y="661"/>
      <point x="1126" y="669" type="curve"/>
      <point x="1128" y="680"/>
      <point x="1128" y="691"/>
      <point x="1126" y="701" type="curve"/>
      <point x="1089" y="701"/>
      <point x="1009" y="699"/>
      <point x="974" y="699" type="curve" smooth="yes"/>
      <point x="937" y="699"/>
      <point x="859" y="701"/>
      <point x="819" y="701" type="curve"/>
      <point x="817" y="690"/>
      <point x="817" y="679"/>
      <point x="819" y="669" type="curve"/>
      <point x="913" y="661"/>
      <point x="918" y="660"/>
      <point x="918" y="576" type="curve" smooth="yes"/>
      <point x="918" y="111" type="line" smooth="yes"/>
      <point x="918" y="40"/>
      <point x="912" y="39"/>
      <point x="820" y="31" type="curve"/>
      <point x="818" y="20"/>
      <point x="818" y="9"/>
    </contour>
    <contour>
      <point x="1419" y="348" type="line"/>
      <point x="1419" y="392" type="line"/>
      <point x="1007" y="392" type="line"/>
      <point x="1007" y="348" type="line"/>
    </contour>
    <contour>
      <point x="1292" y="-1" type="curve"/>
      <point x="1332" y="-1"/>
      <point x="1405" y="1"/>
      <point x="1442" y="1" type="curve" smooth="yes"/>
      <point x="1480" y="1"/>
      <point x="1555" y="-1"/>
      <point x="1597" y="-1" type="curve"/>
      <point x="1598" y="9"/>
      <point x="1598" y="20"/>
      <point x="1597" y="31" type="curve"/>
      <point x="1501" y="39"/>
      <point x="1498" y="41"/>
      <point x="1498" y="124" type="curve" smooth="yes"/>
      <point x="1498" y="589" type="line" smooth="yes"/>
      <point x="1498" y="659"/>
      <point x="1503" y="661"/>
      <point x="1597" y="669" type="curve"/>
      <point x="1598" y="680"/>
      <point x="1598" y="691"/>
      <point x="1597" y="701" type="curve"/>
      <point x="1556" y="701"/>
      <point x="1483" y="699"/>
      <point x="1444" y="699" type="curve" smooth="yes"/>
      <point x="1407" y="699"/>
      <point x="1329" y="701"/>
      <point x="1291" y="701" type="curve"/>
      <point x="1290" y="690"/>
      <point x="1290" y="679"/>
      <point x="1291" y="669" type="curve"/>
      <point x="1384" y="661"/>
      <point x="1388" y="660"/>
      <point x="1388" y="576" type="curve" smooth="yes"/>
      <point x="1388" y="111" type="line" smooth="yes"/>
      <point x="1388" y="40"/>
      <point x="1384" y="39"/>
      <point x="1292" y="31" type="curve"/>
      <point x="1290" y="20"/>
      <point x="1290" y="9"/>
    </contour>
  </outline>
</glyph>
<glyph name="Germandbls.sc" format="2">
  <advance width="631"/>
  <outline>
    <contour>
      <point x="421" y="287" type="line"/>
      <point x="555" y="507" type="line"/>
      <point x="554" y="515"/>
      <point x="552" y="521"/>
      <point x="549" y="527" type="curve"/>
      <point x="448" y="522" type="line"/>
      <point x="316" y="296" type="line"/>
      <point x="316" y="289"/>
      <point x="317" y="284"/>
      <point x="320" y="277" type="curve"/>
    </contour>
    <contour>
      <point x="320" y="277" type="line"/>
      <point x="415" y="238"/>
      <point x="493" y="205"/>
      <point x="493" y="119" type="curve" smooth="yes"/>
      <point x="493" y="59"/>
      <point x="454" y="23"/>
      <point x="398" y="23" type="curve" smooth="yes"/>
      <point x="335" y="23"/>
      <point x="296" y="69"/>
      <point x="278" y="173" type="curve"/>
      <point x="269" y="173"/>
      <point x="258" y="172"/>
      <point x="249" y="171" type="curve"/>
      <point x="252" y="106"/>
      <point x="255" y="49"/>
      <point x="256" y="2" type="curve"/>
      <point x="271" y="2"/>
      <point x="291" y="-2"/>
      <point x="325" y="-8" type="curve" smooth="yes"/>
      <point x="348" y="-12"/>
      <point x="373" y="-15"/>
      <point x="397" y="-15" type="curve" smooth="yes"/>
      <point x="511" y="-15"/>
      <point x="583" y="54"/>
      <point x="583" y="154" type="curve" smooth="yes"/>
      <point x="583" y="265"/>
      <point x="494" y="306"/>
      <point x="420" y="340" type="curve"/>
    </contour>
    <contour>
      <point x="549" y="527" type="line"/>
      <point x="507" y="544"/>
      <point x="445" y="560"/>
      <point x="371" y="560" type="curve" smooth="yes"/>
      <point x="223" y="560"/>
      <point x="104" y="497"/>
      <point x="104" y="341" type="curve" smooth="yes"/>
      <point x="104" y="119" type="line" smooth="yes"/>
      <point x="104" y="39"/>
      <point x="99" y="37"/>
      <point x="13" y="30" type="curve"/>
      <point x="11" y="19"/>
      <point x="11" y="9"/>
      <point x="13" y="-1" type="curve"/>
      <point x="49" y="0"/>
      <point x="120" y="1"/>
      <point x="146" y="1" type="curve" smooth="yes"/>
      <point x="171" y="1"/>
      <point x="191" y="0"/>
      <point x="203" y="0" type="curve"/>
      <point x="205" y="11"/>
      <point x="205" y="24"/>
      <point x="205" y="37" type="curve" smooth="yes"/>
      <point x="205" y="335" type="line" smooth="yes"/>
      <point x="205" y="475"/>
      <point x="292" y="514"/>
      <point x="385" y="514" type="curve" smooth="yes"/>
      <point x="432" y="514"/>
      <point x="483" y="504"/>
      <point x="521" y="488" type="curve"/>
    </contour>
  </outline>
</glyph>
<glyph name="Hbar.sc" format="2">
  <advance width="699"/>
  <outline>
    <contour>
      <point x="669" y="378" type="line"/>
      <point x="671" y="394"/>
      <point x="671" y="407"/>
      <point x="669" y="421" type="curve"/>
      <point x="29" y="421" type="line"/>
      <point x="28" y="407"/>
      <point x="28" y="394"/>
      <point x="29" y="378" type="curve"/>
    </contour>
    <contour>
      <point x="29" y="30" type="curve"/>
      <point x="27" y="19"/>
      <point x="27" y="9"/>
      <point x="29" y="-1" type="curve"/>
      <point x="66" y="-1"/>
      <point x="135" y="1"/>
      <point x="169" y="1" type="curve" smooth="yes"/>
      <point x="203" y="1"/>
      <point x="274" y="-1"/>
      <point x="310" y="-1" type="curve"/>
      <point x="312" y="9"/>
      <point x="312" y="19"/>
      <point x="310" y="30" type="curve"/>
      <point x="224" y="38"/>
      <point x="220" y="39"/>
      <point x="220" y="120" type="curve" smooth="yes"/>
      <point x="220" y="442" type="line" smooth="yes"/>
      <point x="220" y="509"/>
      <point x="225" y="511"/>
      <point x="310" y="519" type="curve"/>
      <point x="312" y="529"/>
      <point x="312" y="539"/>
      <point x="310" y="550" type="curve"/>
      <point x="276" y="550"/>
      <point x="203" y="548"/>
      <point x="171" y="548" type="curve" smooth="yes"/>
      <point x="137" y="548"/>
      <point x="65" y="550"/>
      <point x="28" y="550" type="curve"/>
      <point x="26" y="539"/>
      <point x="26" y="529"/>
      <point x="28" y="519" type="curve"/>
      <point x="115" y="511"/>
      <point x="119" y="510"/>
      <point x="119" y="429" type="curve" smooth="yes"/>
      <point x="119" y="108" type="line" smooth="yes"/>
      <point x="119" y="39"/>
      <point x="114" y="38"/>
    </contour>
    <contour>
      <point x="507" y="257" type="line"/>
      <point x="507" y="300" type="line"/>
      <point x="201" y="300" type="line"/>
      <point x="201" y="257" type="line"/>
    </contour>
    <contour>
      <point x="391" y="30" type="curve"/>
      <point x="389" y="19"/>
      <point x="389" y="9"/>
      <point x="391" y="-1" type="curve"/>
      <point x="428" y="-1"/>
      <point x="495" y="1"/>
      <point x="529" y="1" type="curve" smooth="yes"/>
      <point x="563" y="1"/>
      <point x="632" y="-1"/>
      <point x="671" y="-1" type="curve"/>
      <point x="673" y="9"/>
      <point x="673" y="19"/>
      <point x="671" y="30" type="curve"/>
      <point x="583" y="38"/>
      <point x="580" y="40"/>
      <point x="580" y="120" type="curve" smooth="yes"/>
      <point x="580" y="442" type="line" smooth="yes"/>
      <point x="580" y="509"/>
      <point x="585" y="511"/>
      <point x="671" y="519" type="curve"/>
      <point x="673" y="529"/>
      <point x="673" y="539"/>
      <point x="671" y="550" type="curve"/>
      <point x="633" y="550"/>
      <point x="566" y="548"/>
      <point x="530" y="548" type="curve" smooth="yes"/>
      <point x="496" y="548"/>
      <point x="425" y="550"/>
      <point x="390" y="550" type="curve"/>
      <point x="388" y="539"/>
      <point x="388" y="529"/>
      <point x="390" y="519" type="curve"/>
      <point x="475" y="511"/>
      <point x="479" y="510"/>
      <point x="479" y="429" type="curve" smooth="yes"/>
      <point x="479" y="108" type="line" smooth="yes"/>
      <point x="479" y="39"/>
      <point x="475" y="38"/>
    </contour>
  </outline>
</glyph>
<glyph name="I.sc" format="2">
  <advance width="339"/>
  <outline>
    <contour>
      <point x="220" y="442" type="line" smooth="yes"/>
      <point x="220" y="511"/>
      <point x="224" y="510"/>
      <point x="311" y="519" type="curve"/>
      <point x="313" y="529"/>
      <point x="313" y="539"/>
      <point x="311" y="550" type="curve"/>
      <point x="275" y="550"/>
      <point x="206" y="548"/>
      <point x="172" y="548" type="curve" smooth="yes"/>
      <point x="137" y="548"/>
      <point x="65" y="550"/>
      <point x="28" y="550" type="curve"/>
      <point x="26" y="539"/>
      <point x="26" y="529"/>
      <point x="28" y="519" type="curve"/>
      <point x="115" y="511"/>
      <point x="119" y="509"/>
      <point x="119" y="429" type="curve" smooth="yes"/>
      <point x="119" y="108" type="line" smooth="yes"/>
      <point x="119" y="38"/>
      <point x="116" y="39"/>
      <point x="28" y="30" type="curve"/>
      <point x="26" y="19"/>
      <point x="26" y="9"/>
      <point x="28" y="-1" type="curve"/>
      <point x="67" y="-1"/>
      <point x="134" y="1"/>
      <point x="170" y="1" type="curve" smooth="yes"/>
      <point x="205" y="1"/>
      <point x="274" y="-1"/>
      <point x="311" y="-1" type="curve"/>
      <point x="313" y="9"/>
      <point x="313" y="19"/>
      <point x="311" y="30" type="curve"/>
      <point x="221" y="38"/>
      <point x="220" y="39"/>
      <point x="220" y="120" type="curve" smooth="yes"/>
    </contour>
  </outline>
</glyph>
<glyph name="J.sc" format="2">
  <advance width="302"/>
  <outline>
    <contour>
      <point x="3" y="-200" type="curve" smooth="yes"/>
      <point x="56" y="-200"/>
      <point x="109" y="-176"/>
      <point x="146" y="-129" type="curve" smooth="yes"/>
      <point x="186" y="-78"/>
      <point x="206" y="-10"/>
      <point x="206" y="91" type="curve" smooth="yes"/>
      <point x="206" y="442" type="line" smooth="yes"/>
      <point x="206" y="510"/>
      <point x="209" y="510"/>
      <point x="297" y="519" type="curve"/>
      <point x="299" y="529"/>
      <point x="299" y="539"/>
      <point x="297" y="550" type="curve"/>
      <point x="259" y="550"/>
      <point x="196" y="548"/>
      <point x="157" y="548" type="curve" smooth="yes"/>
      <point x="120" y="548"/>
      <point x="51" y="550"/>
      <point x="15" y="550" type="curve"/>
      <point x="13" y="539"/>
      <point x="13" y="529"/>
      <point x="15" y="519" type="curve"/>
      <point x="102" y="511"/>
      <point x="106" y="509"/>
      <point x="106" y="429" type="curve" smooth="yes"/>
      <point x="106" y="47" type="line" smooth="yes"/>
      <point x="106" y="-55"/>
      <point x="106" y="-135"/>
      <point x="57" y="-149" type="curve"/>
      <point x="38" y="-109"/>
      <point x="8" y="-85"/>
      <point x="-26" y="-85" type="curve" smooth="yes"/>
      <point x="-58" y="-85"/>
      <point x="-83" y="-106"/>
      <point x="-83" y="-138" type="curve" smooth="yes"/>
      <point x="-83" y="-182"/>
      <point x="-40" y="-200"/>
    </contour>
  </outline>
  <guideline angle="0" x="0" y="-197"/>
</glyph>
<glyph name="Klinebelow_hlinebelow" format="2">
  <advance width="1311"/>
  <outline>
    <component base="K"/>
    <component base="h" xOffset="715"/>
    <contour>
      <point x="188" y="-103" type="line"/>
      <point x="186" y="-119"/>
      <point x="186" y="-137"/>
      <point x="188" y="-153" type="curve"/>
      <point x="1145" y="-153" type="line"/>
      <point x="1147" y="-137"/>
      <point x="1147" y="-119"/>
      <point x="1145" y="-103" type="curve"/>
    </contour>
  </outline>
</glyph>
<glyph name="M.sc" format="2">
  <advance width="789"/>
  <outline>
    <contour>
      <point x="392" y="147" type="line"/>
      <point x="248" y="549" type="line"/>
      <point x="222" y="548"/>
      <point x="187" y="548"/>
      <point x="169" y="548" type="curve" smooth="yes"/>
      <point x="114" y="548"/>
      <point x="72" y="550"/>
      <point x="31" y="550" type="curve"/>
      <point x="29" y="539"/>
      <point x="29" y="529"/>
      <point x="31" y="519" type="curve"/>
      <point x="120" y="511"/>
      <point x="125" y="510"/>
      <point x="123" y="443" type="curve"/>
      <point x="110" y="119" type="line" smooth="yes"/>
      <point x="107" y="43"/>
      <point x="106" y="40"/>
      <point x="19" y="29" type="curve"/>
      <point x="17" y="18"/>
      <point x="17" y="8"/>
      <point x="19" y="-2" type="curve"/>
      <point x="34" y="-1"/>
      <point x="118" y="1"/>
      <point x="133" y="1" type="curve" smooth="yes"/>
      <point x="152" y="1"/>
      <point x="224" y="-1"/>
      <point x="242" y="-1" type="curve"/>
      <point x="244" y="9"/>
      <point x="244" y="19"/>
      <point x="242" y="30" type="curve"/>
      <point x="155" y="41"/>
      <point x="154" y="43"/>
      <point x="156" y="107" type="curve" smooth="yes"/>
      <point x="167" y="508" type="line"/>
      <point x="158" y="497" type="line"/>
      <point x="337" y="-4" type="line"/>
      <point x="350" y="-4"/>
      <point x="373" y="-3"/>
      <point x="381" y="1" type="curve"/>
      <point x="571" y="513" type="line"/>
      <point x="565" y="508" type="line"/>
      <point x="571" y="107" type="line" smooth="yes"/>
      <point x="572" y="38"/>
      <point x="567" y="38"/>
      <point x="484" y="29" type="curve"/>
      <point x="482" y="18"/>
      <point x="482" y="8"/>
      <point x="484" y="-2" type="curve"/>
      <point x="504" y="-1"/>
      <point x="602" y="1"/>
      <point x="622" y="1" type="curve" smooth="yes"/>
      <point x="642" y="1"/>
      <point x="743" y="-1"/>
      <point x="762" y="-1" type="curve"/>
      <point x="764" y="9"/>
      <point x="764" y="19"/>
      <point x="762" y="30" type="curve"/>
      <point x="672" y="37"/>
      <point x="672" y="38"/>
      <point x="671" y="119" type="curve" smooth="yes"/>
      <point x="666" y="443" type="line" smooth="yes"/>
      <point x="665" y="511"/>
      <point x="670" y="511"/>
      <point x="757" y="520" type="curve"/>
      <point x="759" y="530"/>
      <point x="759" y="540"/>
      <point x="757" y="551" type="curve"/>
      <point x="737" y="550"/>
      <point x="636" y="548"/>
      <point x="616" y="548" type="curve" smooth="yes"/>
      <point x="597" y="548"/>
      <point x="566" y="548"/>
      <point x="540" y="549" type="curve"/>
    </contour>
  </outline>
</glyph>
<glyph name="Oslash.sc" format="2">
  <advance width="660"/>
  <outline>
    <contour>
      <point x="600" y="528" type="line"/>
      <point x="590" y="540"/>
      <point x="580" y="552"/>
      <point x="570" y="560" type="curve"/>
      <point x="46" y="17" type="line"/>
      <point x="53" y="8"/>
      <point x="63" y="-3"/>
      <point x="76" y="-15" type="curve"/>
    </contour>
    <contour>
      <point x="319" y="-15" type="curve" smooth="yes"/>
      <point x="490" y="-15"/>
      <point x="600" y="107"/>
      <point x="600" y="277" type="curve" smooth="yes"/>
      <point x="600" y="442"/>
      <point x="496" y="560"/>
      <point x="328" y="560" type="curve" smooth="yes"/>
      <point x="156" y="560"/>
      <point x="46" y="437"/>
      <point x="46" y="268" type="curve" smooth="yes"/>
      <point x="46" y="104"/>
      <point x="148" y="-15"/>
    </contour>
    <contour>
      <point x="327" y="24" type="curve" smooth="yes"/>
      <point x="206" y="24"/>
      <point x="161" y="154"/>
      <point x="161" y="273" type="curve" smooth="yes"/>
      <point x="161" y="393"/>
      <point x="205" y="520"/>
      <point x="325" y="520" type="curve" smooth="yes"/>
      <point x="444" y="520"/>
      <point x="487" y="394"/>
      <point x="487" y="269" type="curve" smooth="yes"/>
      <point x="487" y="146"/>
      <point x="445" y="24"/>
    </contour>
  </outline>
</glyph>
<glyph name="Q.sc" format="2">
  <advance width="660"/>
  <outline>
    <contour>
      <point x="260" y="-9" type="curve" smooth="yes"/>
      <point x="301" y="-17"/>
      <point x="312" y="-11"/>
      <point x="338" y="-40" type="curve" smooth="yes"/>
      <point x="391" y="-102"/>
      <point x="428" y="-197"/>
      <point x="528" y="-197" type="curve" smooth="yes"/>
      <point x="587" y="-197"/>
      <point x="636" y="-167"/>
      <point x="679" y="-127" type="curve"/>
      <point x="675" y="-118"/>
      <point x="670" y="-108"/>
      <point x="665" y="-102" type="curve"/>
      <point x="642" y="-113"/>
      <point x="618" y="-119"/>
      <point x="593" y="-119" type="curve" smooth="yes"/>
      <point x="527" y="-119"/>
      <point x="478" y="-95"/>
      <point x="382" y="-10" type="curve"/>
      <point x="382" y="3" type="line"/>
      <point x="372" y="-8" type="line"/>
      <point x="514" y="10"/>
      <point x="600" y="127"/>
      <point x="600" y="278" type="curve" smooth="yes"/>
      <point x="600" y="442"/>
      <point x="497" y="560"/>
      <point x="328" y="560" type="curve" smooth="yes"/>
      <point x="156" y="560"/>
      <point x="46" y="439"/>
      <point x="46" y="267" type="curve" smooth="yes"/>
      <point x="46" y="124"/>
      <point x="123" y="18"/>
    </contour>
    <contour>
      <point x="487" y="269" type="curve" smooth="yes"/>
      <point x="487" y="146"/>
      <point x="445" y="24"/>
      <point x="328" y="24" type="curve" smooth="yes"/>
      <point x="206" y="24"/>
      <point x="161" y="154"/>
      <point x="161" y="274" type="curve" smooth="yes"/>
      <point x="161" y="393"/>
      <point x="205" y="520"/>
      <point x="325" y="520" type="curve" smooth="yes"/>
      <point x="444" y="520"/>
      <point x="487" y="394"/>
    </contour>
  </outline>
  <guideline angle="346.977" x="0" y="41"/>
  <guideline angle="134.994" x="190" y="0"/>
</glyph>
<glyph name="Z.sc" format="2">
  <advance width="522"/>
  <outline>
    <contour>
      <point x="483" y="530" type="line"/>
      <point x="483" y="538"/>
      <point x="481" y="544"/>
      <point x="479" y="550" type="curve"/>
      <point x="452" y="549"/>
      <point x="404" y="547"/>
      <point x="280" y="547" type="curve" smooth="yes"/>
      <point x="200" y="547"/>
      <point x="128" y="547"/>
      <point x="61" y="552" type="curve"/>
      <point x="55" y="499"/>
      <point x="50" y="443"/>
      <point x="40" y="381" type="curve"/>
      <point x="51" y="380"/>
      <point x="63" y="380"/>
      <point x="73" y="381" type="curve"/>
      <point x="87" y="425"/>
      <point x="104" y="457"/>
      <point x="123" y="476" type="curve" smooth="yes"/>
      <point x="145" y="498"/>
      <point x="175" y="509"/>
      <point x="223" y="509" type="curve" smooth="yes"/>
      <point x="364" y="509" type="line"/>
      <point x="358" y="521" type="line"/>
      <point x="23" y="18" type="line"/>
      <point x="23" y="13"/>
      <point x="24" y="6"/>
      <point x="27" y="-1" type="curve"/>
      <point x="60" y="-1"/>
      <point x="96" y="1"/>
      <point x="219" y="1" type="curve" smooth="yes"/>
      <point x="374" y="1"/>
      <point x="452" y="0"/>
      <point x="467" y="0" type="curve"/>
      <point x="472" y="46"/>
      <point x="481" y="108"/>
      <point x="495" y="186" type="curve"/>
      <point x="486" y="187"/>
      <point x="474" y="187"/>
      <point x="464" y="186" type="curve"/>
      <point x="444" y="137"/>
      <point x="423" y="102"/>
      <point x="406" y="83" type="curve" smooth="yes"/>
      <point x="379" y="54"/>
      <point x="342" y="42"/>
      <point x="282" y="42" type="curve" smooth="yes"/>
      <point x="140" y="42" type="line"/>
      <point x="149" y="30" type="line"/>
    </contour>
  </outline>
  <guideline angle="90" x="44" y="0"/>
</glyph>
<glyph name="acutecomb.cap" format="2">
  <outline>
    <contour>
      <point x="-149" y="844" type="line"/>
      <point x="-169" y="876"/>
      <point x="-202" y="911"/>
      <point x="-223" y="911" type="curve"/>
      <point x="-260" y="867"/>
      <point x="-312" y="805"/>
      <point x="-357" y="759" type="curve"/>
      <point x="-351" y="748"/>
      <point x="-345" y="740"/>
      <point x="-336" y="735" type="curve"/>
      <point x="-282" y="768"/>
      <point x="-193" y="819"/>
      <point x="-149" y="841" type="curve"/>
    </contour>
  </outline>
  <guideline angle="0" x="0" y="525"/>
  <guideline angle="0" x="0" y="735"/>
</glyph>
<glyph name="candrabinducomb.cap" format="2">
  <outline>
    <contour>
      <point x="-414" y="906" type="curve"/>
      <point x="-426" y="904"/>
      <point x="-436" y="902"/>
      <point x="-447" y="899" type="curve"/>
      <point x="-432" y="795"/>
      <point x="-371" y="737"/>
      <point x="-285" y="737" type="curve" smooth="yes"/>
      <point x="-199" y="737"/>
      <point x="-137" y="795"/>
      <point x="-123" y="899" type="curve"/>
      <point x="-134" y="902"/>
      <point x="-144" y="904"/>
      <point x="-155" y="906" type="curve"/>
      <point x="-174" y="841"/>
      <point x="-220" y="813"/>
      <point x="-286" y="813" type="curve" smooth="yes"/>
      <point x="-347" y="813"/>
      <point x="-396" y="839"/>
    </contour>
    <contour>
      <point x="-348" y="924" type="curve" smooth="yes"/>
      <point x="-348" y="891"/>
      <point x="-321" y="864"/>
      <point x="-288" y="864" type="curve" smooth="yes"/>
      <point x="-252" y="864"/>
      <point x="-225" y="893"/>
      <point x="-225" y="926" type="curve" smooth="yes"/>
      <point x="-225" y="958"/>
      <point x="-253" y="985"/>
      <point x="-287" y="985" type="curve" smooth="yes"/>
      <point x="-320" y="985"/>
      <point x="-348" y="958"/>
    </contour>
  </outline>
  <guideline angle="0" x="0" y="525"/>
  <guideline angle="0" x="0" y="735"/>
</glyph>
<glyph name="caroncomb.cap" format="2">
  <outline>
    <contour>
      <point x="-276" y="810" type="line"/>
      <point x="-320" y="844"/>
      <point x="-371" y="876"/>
      <point x="-426" y="908" type="curve"/>
      <point x="-435" y="906"/>
      <point x="-445" y="902"/>
      <point x="-454" y="895" type="curve"/>
      <point x="-413" y="853"/>
      <point x="-357" y="781"/>
      <point x="-324" y="739" type="curve"/>
      <point x="-313" y="736"/>
      <point x="-298" y="735"/>
      <point x="-286" y="735" type="curve" smooth="yes"/>
      <point x="-272" y="735"/>
      <point x="-257" y="736"/>
      <point x="-247" y="739" type="curve"/>
      <point x="-215" y="781"/>
      <point x="-159" y="853"/>
      <point x="-118" y="895" type="curve"/>
      <point x="-126" y="902"/>
      <point x="-136" y="906"/>
      <point x="-146" y="908" type="curve"/>
      <point x="-200" y="876"/>
      <point x="-250" y="843"/>
      <point x="-294" y="811" type="curve"/>
    </contour>
  </outline>
  <guideline angle="0" x="0" y="525"/>
  <guideline angle="0" x="0" y="735"/>
</glyph>
<glyph name="caronslovakcomb.cap" format="2">
  <outline>
    <contour>
      <point x="-83" y="695" type="line"/>
      <point x="-150" y="485" type="line"/>
      <point x="-159" y="484"/>
      <point x="-176" y="486"/>
      <point x="-184" y="487" type="curve"/>
      <point x="-173" y="701" type="line"/>
      <point x="-170" y="704"/>
      <point x="-159" y="705"/>
      <point x="-140" y="705" type="curve" smooth="yes"/>
      <point x="-125" y="705"/>
      <point x="-103" y="703"/>
      <point x="-83" y="699" type="curve"/>
    </contour>
  </outline>
</glyph>
<glyph name="circumflexcomb.cap" format="2">
  <outline>
    <contour>
      <point x="-296" y="833" type="line"/>
      <point x="-252" y="799"/>
      <point x="-201" y="767"/>
      <point x="-146" y="735" type="curve"/>
      <point x="-137" y="737"/>
      <point x="-127" y="741"/>
      <point x="-118" y="748" type="curve"/>
      <point x="-159" y="790"/>
      <point x="-214" y="862"/>
      <point x="-248" y="904" type="curve"/>
      <point x="-259" y="907"/>
      <point x="-274" y="908"/>
      <point x="-286" y="908" type="curve" smooth="yes"/>
      <point x="-300" y="908"/>
      <point x="-315" y="907"/>
      <point x="-325" y="904" type="curve"/>
      <point x="-359" y="862"/>
      <point x="-413" y="790"/>
      <point x="-454" y="748" type="curve"/>
      <point x="-446" y="741"/>
      <point x="-436" y="737"/>
      <point x="-426" y="735" type="curve"/>
      <point x="-372" y="767"/>
      <point x="-322" y="800"/>
      <point x="-278" y="832" type="curve"/>
    </contour>
  </outline>
  <guideline angle="0" x="0" y="525"/>
  <guideline angle="0" x="0" y="735"/>
</glyph>
<glyph name="eight.LP" format="2">
  <advance width="577"/>
  <outline>
    <contour>
      <point x="277" y="-12" type="curve" smooth="yes"/>
      <point x="440" y="-12"/>
      <point x="542" y="77"/>
      <point x="542" y="187" type="curve" smooth="yes"/>
      <point x="542" y="290"/>
      <point x="452" y="342"/>
      <point x="359" y="388" type="curve" smooth="yes"/>
      <point x="251" y="441"/>
      <point x="165" y="470"/>
      <point x="165" y="557" type="curve" smooth="yes"/>
      <point x="165" y="620"/>
      <point x="210" y="675"/>
      <point x="292" y="675" type="curve" smooth="yes"/>
      <point x="379" y="675"/>
      <point x="414" y="614"/>
      <point x="414" y="540" type="curve" smooth="yes"/>
      <point x="414" y="465"/>
      <point x="379" y="416"/>
      <point x="338" y="396" type="curve"/>
      <point x="380" y="370" type="line"/>
      <point x="380" y="382" type="line"/>
      <point x="445" y="412"/>
      <point x="516" y="467"/>
      <point x="516" y="549" type="curve" smooth="yes"/>
      <point x="516" y="633"/>
      <point x="441" y="711"/>
      <point x="300" y="711" type="curve" smooth="yes"/>
      <point x="157" y="711"/>
      <point x="64" y="630"/>
      <point x="64" y="529" type="curve" smooth="yes"/>
      <point x="64" y="442"/>
      <point x="132" y="391"/>
      <point x="221" y="345" type="curve" smooth="yes"/>
      <point x="324" y="291"/>
      <point x="438" y="256"/>
      <point x="438" y="155" type="curve" smooth="yes"/>
      <point x="438" y="88"/>
      <point x="388" y="24"/>
      <point x="291" y="24" type="curve" smooth="yes"/>
      <point x="190" y="24"/>
      <point x="142" y="92"/>
      <point x="142" y="178" type="curve" smooth="yes"/>
      <point x="142" y="253"/>
      <point x="179" y="309"/>
      <point x="234" y="343" type="curve"/>
      <point x="193" y="368" type="line"/>
      <point x="193" y="356" type="line"/>
      <point x="104" y="317"/>
      <point x="35" y="256"/>
      <point x="35" y="168" type="curve" smooth="yes"/>
      <point x="35" y="69"/>
      <point x="122" y="-12"/>
    </contour>
  </outline>
</glyph>
<glyph name="f._f" format="2">
  <advance width="301"/>
  <outline>
    <contour>
      <point x="27" y="-1" type="curve"/>
      <point x="68" y="-1"/>
      <point x="102" y="1"/>
      <point x="152" y="1" type="curve" smooth="yes"/>
      <point x="210" y="1"/>
      <point x="234" y="-1"/>
      <point x="278" y="-1" type="curve"/>
      <point x="280" y="9"/>
      <point x="280" y="20"/>
      <point x="278" y="30" type="curve"/>
      <point x="212" y="34"/>
      <point x="205" y="36"/>
      <point x="205" y="114" type="curve" smooth="yes"/>
      <point x="205" y="531" type="line" smooth="yes"/>
      <point x="205" y="653"/>
      <point x="240" y="705"/>
      <point x="311" y="705" type="curve" smooth="yes"/>
      <point x="331" y="705"/>
      <point x="345" y="702"/>
      <point x="357" y="695" type="curve"/>
      <point x="349" y="712" type="line"/>
      <point x="341" y="663"/>
      <point x="378" y="624"/>
      <point x="426" y="624" type="curve" smooth="yes"/>
      <point x="456" y="624"/>
      <point x="477" y="640"/>
      <point x="477" y="668" type="curve" smooth="yes"/>
      <point x="477" y="718"/>
      <point x="415" y="747"/>
      <point x="341" y="747" type="curve" smooth="yes"/>
      <point x="282" y="747"/>
      <point x="228" y="730"/>
      <point x="183" y="693" type="curve" smooth="yes"/>
      <point x="135" y="653"/>
      <point x="109" y="594"/>
      <point x="104" y="509" type="curve" smooth="yes"/>
      <point x="102" y="470"/>
      <point x="94" y="465"/>
      <point x="20" y="454" type="curve"/>
      <point x="18" y="446"/>
      <point x="18" y="437"/>
      <point x="20" y="427" type="curve"/>
      <point x="103" y="427" type="line"/>
      <point x="103" y="104" type="line" smooth="yes"/>
      <point x="103" y="38"/>
      <point x="96" y="34"/>
      <point x="27" y="30" type="curve"/>
      <point x="25" y="20"/>
      <point x="25" y="9"/>
    </contour>
    <contour>
      <point x="442" y="427" type="line"/>
      <point x="442" y="473" type="line"/>
      <point x="194" y="473" type="line"/>
      <point x="194" y="427" type="line"/>
    </contour>
  </outline>
  <guideline angle="90" x="299" y="0"/>
</glyph>
<glyph name="f._ij" format="2">
  <advance width="304"/>
  <outline>
    <contour>
      <point x="27" y="-1" type="curve"/>
      <point x="68" y="-1"/>
      <point x="102" y="1"/>
      <point x="152" y="1" type="curve" smooth="yes"/>
      <point x="203" y="1"/>
      <point x="240" y="-1"/>
      <point x="278" y="-1" type="curve"/>
      <point x="280" y="10"/>
      <point x="280" y="21"/>
      <point x="278" y="30" type="curve"/>
      <point x="211" y="34"/>
      <point x="205" y="36"/>
      <point x="205" y="114" type="curve" smooth="yes"/>
      <point x="205" y="531" type="line" smooth="yes"/>
      <point x="205" y="662"/>
      <point x="244" y="712"/>
      <point x="323" y="712" type="curve" smooth="yes"/>
      <point x="343" y="712"/>
      <point x="367" y="709"/>
      <point x="371" y="702" type="curve"/>
      <point x="366" y="719" type="line"/>
      <point x="362" y="671"/>
      <point x="393" y="626"/>
      <point x="439" y="626" type="curve" smooth="yes"/>
      <point x="469" y="626"/>
      <point x="493" y="643"/>
      <point x="493" y="676" type="curve" smooth="yes"/>
      <point x="493" y="735"/>
      <point x="412" y="755"/>
      <point x="352" y="755" type="curve" smooth="yes"/>
      <point x="287" y="755"/>
      <point x="222" y="733"/>
      <point x="178" y="694" type="curve" smooth="yes"/>
      <point x="111" y="634"/>
      <point x="106" y="546"/>
      <point x="105" y="519" type="curve" smooth="yes"/>
      <point x="103" y="471"/>
      <point x="100" y="466"/>
      <point x="20" y="454" type="curve"/>
      <point x="18" y="446"/>
      <point x="18" y="437"/>
      <point x="20" y="427" type="curve"/>
      <point x="103" y="427" type="line"/>
      <point x="103" y="104" type="line" smooth="yes"/>
      <point x="103" y="38"/>
      <point x="96" y="34"/>
      <point x="27" y="30" type="curve"/>
      <point x="26" y="19"/>
      <point x="26" y="9"/>
    </contour>
    <contour>
      <point x="343" y="427" type="line"/>
      <point x="343" y="473" type="line"/>
      <point x="194" y="473" type="line"/>
      <point x="194" y="427" type="line"/>
    </contour>
  </outline>
  <guideline angle="90" x="304" y="0"/>
</glyph>
<glyph name="four.sc" format="2">
  <advance width="498"/>
  <outline>
    <contour>
      <point x="322" y="-2" type="curve" smooth="yes"/>
      <point x="338" y="-2"/>
      <point x="354" y="-2"/>
      <point x="368" y="-1" type="curve"/>
      <point x="368" y="476" type="line" smooth="yes"/>
      <point x="368" y="492"/>
      <point x="368" y="510"/>
      <point x="370" y="552" type="curve"/>
      <point x="349" y="556"/>
      <point x="324" y="558"/>
      <point x="300" y="558" type="curve"/>
      <point x="205" y="434"/>
      <point x="114" y="321"/>
      <point x="23" y="192" type="curve"/>
      <point x="23" y="178"/>
      <point x="24" y="154"/>
      <point x="26" y="139" type="curve"/>
      <point x="468" y="139" type="line"/>
      <point x="470" y="163"/>
      <point x="472" y="187"/>
      <point x="472" y="213" type="curve"/>
      <point x="86" y="213" type="line"/>
      <point x="148" y="299"/>
      <point x="210" y="380"/>
      <point x="277" y="464" type="curve"/>
      <point x="277" y="-1" type="line"/>
      <point x="290" y="-2"/>
      <point x="308" y="-2"/>
    </contour>
  </outline>
</glyph>
<glyph name="g_macronbelowcomb_hlinebelow" format="2">
  <advance width="1144"/>
  <outline>
    <component base="g"/>
    <component base="h" xOffset="548"/>
    <contour>
      <point x="113" y="-313" type="line"/>
      <point x="111" y="-329"/>
      <point x="111" y="-347"/>
      <point x="113" y="-363" type="curve"/>
      <point x="1008" y="-363" type="line"/>
      <point x="1010" y="-347"/>
      <point x="1010" y="-329"/>
      <point x="1008" y="-313" type="curve"/>
    </contour>
  </outline>
</glyph>
<glyph name="halfringright.sc" format="2">
  <advance width="224"/>
  <outline>
    <contour>
      <point x="46" y="511" type="line"/>
      <point x="87" y="511"/>
      <point x="120" y="477"/>
      <point x="120" y="419" type="curve" smooth="yes"/>
      <point x="120" y="362"/>
      <point x="89" y="328"/>
      <point x="46" y="328" type="curve"/>
      <point x="46" y="289" type="line"/>
      <point x="124" y="289"/>
      <point x="192" y="333"/>
      <point x="192" y="424" type="curve" smooth="yes"/>
      <point x="192" y="510"/>
      <point x="126" y="548"/>
      <point x="46" y="548" type="curve"/>
    </contour>
  </outline>
</glyph>
<glyph name="i.f_" format="2">
  <advance width="295"/>
  <outline>
    <contour>
      <point x="-36" y="427" type="line"/>
      <point x="54" y="427" type="line" smooth="yes"/>
      <point x="89" y="427"/>
      <point x="100" y="420"/>
      <point x="100" y="381" type="curve" smooth="yes"/>
      <point x="100" y="104" type="line" smooth="yes"/>
      <point x="100" y="38"/>
      <point x="92" y="34"/>
      <point x="24" y="30" type="curve"/>
      <point x="22" y="20"/>
      <point x="22" y="9"/>
      <point x="24" y="-1" type="curve"/>
      <point x="64" y="-1"/>
      <point x="105" y="1"/>
      <point x="148" y="1" type="curve" smooth="yes"/>
      <point x="194" y="1"/>
      <point x="236" y="-1"/>
      <point x="274" y="-1" type="curve"/>
      <point x="276" y="9"/>
      <point x="276" y="20"/>
      <point x="274" y="30" type="curve"/>
      <point x="207" y="34"/>
      <point x="201" y="36"/>
      <point x="201" y="114" type="curve" smooth="yes"/>
      <point x="201" y="381" type="line" smooth="yes"/>
      <point x="201" y="413"/>
      <point x="202" y="449"/>
      <point x="203" y="491" type="curve"/>
      <point x="186" y="497" type="line"/>
      <point x="141" y="478"/>
      <point x="110" y="473"/>
      <point x="73" y="473" type="curve" smooth="yes"/>
      <point x="-36" y="473" type="line"/>
    </contour>
  </outline>
  <guideline angle="90" x="0" y="0"/>
</glyph>
<glyph name="longs._asc" format="2">
  <advance width="298"/>
  <outline>
    <contour>
      <point x="27" y="-1" type="curve"/>
      <point x="68" y="-1"/>
      <point x="102" y="1"/>
      <point x="152" y="1" type="curve" smooth="yes"/>
      <point x="210" y="1"/>
      <point x="234" y="-1"/>
      <point x="278" y="-1" type="curve"/>
      <point x="279" y="9"/>
      <point x="280" y="20"/>
      <point x="278" y="30" type="curve"/>
      <point x="211" y="34"/>
      <point x="205" y="36"/>
      <point x="205" y="114" type="curve" smooth="yes"/>
      <point x="205" y="531" type="line" smooth="yes"/>
      <point x="205" y="663"/>
      <point x="229" y="711"/>
      <point x="291" y="711" type="curve"/>
      <point x="291" y="711"/>
      <point x="302" y="711"/>
      <point x="306" y="706" type="curve"/>
      <point x="299" y="714" type="line"/>
      <point x="301" y="702"/>
      <point x="324" y="644"/>
      <point x="382" y="644" type="curve" smooth="yes"/>
      <point x="415" y="644"/>
      <point x="428" y="664"/>
      <point x="428" y="685" type="curve" smooth="yes"/>
      <point x="428" y="732"/>
      <point x="371" y="755"/>
      <point x="314" y="755" type="curve" smooth="yes"/>
      <point x="258" y="755"/>
      <point x="207" y="735"/>
      <point x="170" y="697" type="curve" smooth="yes"/>
      <point x="130" y="656"/>
      <point x="108" y="598"/>
      <point x="104" y="509" type="curve" smooth="yes"/>
      <point x="102" y="470"/>
      <point x="94" y="465"/>
      <point x="20" y="454" type="curve"/>
      <point x="18" y="446"/>
      <point x="18" y="437"/>
      <point x="20" y="427" type="curve"/>
      <point x="103" y="427" type="line"/>
      <point x="103" y="104" type="line" smooth="yes"/>
      <point x="103" y="38"/>
      <point x="96" y="34"/>
      <point x="27" y="30" type="curve"/>
      <point x="26" y="20"/>
      <point x="26" y="9"/>
    </contour>
  </outline>
</glyph>
<glyph name="macroncomb.cap" format="2">
  <outline>
    <contour>
      <point x="-430" y="823" type="line"/>
      <point x="-432" y="807"/>
      <point x="-432" y="791"/>
      <point x="-430" y="775" type="curve"/>
      <point x="-142" y="775" type="line"/>
      <point x="-140" y="791"/>
      <point x="-140" y="807"/>
      <point x="-142" y="823" type="curve"/>
    </contour>
  </outline>
  <guideline angle="90" x="-154" y="0"/>
</glyph>
<glyph name="seven.numr" format="2">
  <advance width="298"/>
  <outline>
    <contour>
      <point x="84" y="331" type="line"/>
      <point x="97" y="330"/>
      <point x="108" y="330"/>
      <point x="121" y="330" type="curve" smooth="yes"/>
      <point x="135" y="330"/>
      <point x="152" y="330"/>
      <point x="163" y="331" type="curve"/>
      <point x="194" y="436"/>
      <point x="246" y="568"/>
      <point x="289" y="674" type="curve"/>
      <point x="289" y="684"/>
      <point x="288" y="688"/>
      <point x="286" y="696" type="curve"/>
      <point x="271" y="694"/>
      <point x="228" y="694"/>
      <point x="194" y="694" type="curve" smooth="yes"/>
      <point x="137" y="694"/>
      <point x="83" y="694"/>
      <point x="33" y="698" type="curve"/>
      <point x="28" y="653"/>
      <point x="20" y="606"/>
      <point x="9" y="555" type="curve"/>
      <point x="17" y="552"/>
      <point x="27" y="552"/>
      <point x="34" y="552" type="curve"/>
      <point x="59" y="621"/>
      <point x="68" y="626"/>
      <point x="109" y="628" type="curve" smooth="yes"/>
      <point x="123" y="629"/>
      <point x="139" y="629"/>
      <point x="150" y="629" type="curve" smooth="yes"/>
      <point x="196" y="629"/>
      <point x="236" y="628"/>
      <point x="237" y="628" type="curve"/>
      <point x="185" y="531"/>
      <point x="130" y="436"/>
      <point x="80" y="340" type="curve"/>
    </contour>
  </outline>
</glyph>
<glyph name="six.sc" format="2">
  <advance width="500"/>
  <outline>
    <contour>
      <point x="254" y="-12" type="curve" smooth="yes"/>
      <point x="358" y="-12"/>
      <point x="461" y="51"/>
      <point x="461" y="180" type="curve" smooth="yes"/>
      <point x="461" y="298"/>
      <point x="374" y="351"/>
      <point x="284" y="351" type="curve" smooth="yes"/>
      <point x="237" y="351"/>
      <point x="190" y="336"/>
      <point x="152" y="307" type="curve"/>
      <point x="143" y="260" type="line"/>
      <point x="174" y="286"/>
      <point x="208" y="300"/>
      <point x="241" y="300" type="curve" smooth="yes"/>
      <point x="299" y="300"/>
      <point x="356" y="257"/>
      <point x="356" y="156" type="curve" smooth="yes"/>
      <point x="356" y="61"/>
      <point x="305" y="25"/>
      <point x="259" y="25" type="curve" smooth="yes"/>
      <point x="202" y="25"/>
      <point x="146" y="81"/>
      <point x="146" y="218" type="curve" smooth="yes"/>
      <point x="146" y="388"/>
      <point x="232" y="524"/>
      <point x="392" y="524" type="curve" smooth="yes"/>
      <point x="406" y="524"/>
      <point x="416" y="523"/>
      <point x="423" y="522" type="curve"/>
      <point x="425" y="535"/>
      <point x="426" y="545"/>
      <point x="426" y="558" type="curve"/>
      <point x="414" y="560"/>
      <point x="400" y="560"/>
      <point x="395" y="560" type="curve" smooth="yes"/>
      <point x="157" y="560"/>
      <point x="44" y="380"/>
      <point x="44" y="213" type="curve" smooth="yes"/>
      <point x="44" y="49"/>
      <point x="153" y="-12"/>
    </contour>
  </outline>
</glyph>
<glyph name="three.LP" format="2">
  <advance width="532"/>
  <outline>
    <contour>
      <point x="139" y="358" type="line"/>
      <point x="141" y="347"/>
      <point x="143" y="338"/>
      <point x="149" y="328" type="curve"/>
      <point x="170" y="333"/>
      <point x="191" y="336"/>
      <point x="214" y="336" type="curve" smooth="yes"/>
      <point x="329" y="336"/>
      <point x="387" y="259"/>
      <point x="387" y="177" type="curve" smooth="yes"/>
      <point x="387" y="82"/>
      <point x="311" y="24"/>
      <point x="213" y="24" type="curve" smooth="yes"/>
      <point x="195" y="24"/>
      <point x="174" y="26"/>
      <point x="153" y="32" type="curve"/>
      <point x="169" y="17" type="line"/>
      <point x="154" y="96"/>
      <point x="115" y="140"/>
      <point x="71" y="140" type="curve" smooth="yes"/>
      <point x="41" y="140"/>
      <point x="20" y="119"/>
      <point x="20" y="89" type="curve" smooth="yes"/>
      <point x="20" y="28"/>
      <point x="108" y="-12"/>
      <point x="211" y="-12" type="curve" smooth="yes"/>
      <point x="342" y="-12"/>
      <point x="490" y="52"/>
      <point x="490" y="204" type="curve" smooth="yes"/>
      <point x="490" y="309"/>
      <point x="419" y="379"/>
      <point x="285" y="394" type="curve"/>
    </contour>
    <contour>
      <point x="287" y="381" type="line"/>
      <point x="396" y="429"/>
      <point x="452" y="496"/>
      <point x="452" y="567" type="curve" smooth="yes"/>
      <point x="452" y="640"/>
      <point x="393" y="711"/>
      <point x="257" y="711" type="curve" smooth="yes"/>
      <point x="175" y="711"/>
      <point x="108" y="685"/>
      <point x="45" y="618" type="curve"/>
      <point x="48" y="610"/>
      <point x="54" y="602"/>
      <point x="62" y="594" type="curve"/>
      <point x="106" y="625"/>
      <point x="158" y="643"/>
      <point x="211" y="643" type="curve" smooth="yes"/>
      <point x="304" y="643"/>
      <point x="347" y="589"/>
      <point x="347" y="533" type="curve" smooth="yes"/>
      <point x="347" y="462"/>
      <point x="279" y="395"/>
      <point x="139" y="358" type="curve"/>
    </contour>
  </outline>
</glyph>
<glyph name="two.sc" format="2">
  <advance width="451"/>
  <outline>
    <contour>
      <point x="375" y="-1" type="curve"/>
      <point x="384" y="50"/>
      <point x="399" y="109"/>
      <point x="413" y="164" type="curve"/>
      <point x="404" y="168"/>
      <point x="390" y="169"/>
      <point x="383" y="169" type="curve"/>
      <point x="349" y="88"/>
      <point x="340" y="80"/>
      <point x="298" y="80" type="curve" smooth="yes"/>
      <point x="285" y="80"/>
      <point x="215" y="79"/>
      <point x="135" y="79" type="curve"/>
      <point x="281" y="220"/>
      <point x="376" y="323"/>
      <point x="376" y="423" type="curve" smooth="yes"/>
      <point x="376" y="511"/>
      <point x="303" y="560"/>
      <point x="211" y="560" type="curve" smooth="yes"/>
      <point x="138" y="560"/>
      <point x="84" y="529"/>
      <point x="39" y="472" type="curve"/>
      <point x="43" y="463"/>
      <point x="49" y="455"/>
      <point x="56" y="448" type="curve"/>
      <point x="88" y="478"/>
      <point x="127" y="494"/>
      <point x="168" y="494" type="curve" smooth="yes"/>
      <point x="227" y="494"/>
      <point x="275" y="460"/>
      <point x="275" y="387" type="curve" smooth="yes"/>
      <point x="275" y="302"/>
      <point x="209" y="189"/>
      <point x="18" y="26" type="curve"/>
      <point x="18" y="16"/>
      <point x="19" y="10"/>
      <point x="22" y="0" type="curve"/>
      <point x="46" y="1"/>
      <point x="89" y="1"/>
      <point x="153" y="1" type="curve" smooth="yes"/>
      <point x="219" y="1"/>
      <point x="306" y="1"/>
    </contour>
  </outline>
</glyph>
<glyph name="zero.LP" format="2">
  <advance width="611"/>
  <outline>
    <contour>
      <point x="302" y="672" type="curve" smooth="yes"/>
      <point x="421" y="672"/>
      <point x="458" y="502"/>
      <point x="458" y="338" type="curve" smooth="yes"/>
      <point x="458" y="171"/>
      <point x="420" y="26"/>
      <point x="311" y="26" type="curve" smooth="yes"/>
      <point x="191" y="26"/>
      <point x="154" y="201"/>
      <point x="154" y="363" type="curve" smooth="yes"/>
      <point x="154" y="525"/>
      <point x="191" y="672"/>
    </contour>
    <contour>
      <point x="563" y="355" type="curve" smooth="yes"/>
      <point x="563" y="543"/>
      <point x="492" y="711"/>
      <point x="312" y="711" type="curve" smooth="yes"/>
      <point x="128" y="711"/>
      <point x="48" y="537"/>
      <point x="48" y="343" type="curve" smooth="yes"/>
      <point x="48" y="140"/>
      <point x="136" y="-12"/>
      <point x="303" y="-12" type="curve" smooth="yes"/>
      <point x="473" y="-12"/>
      <point x="563" y="143"/>
    </contour>
  </outline>
</glyph>
